Hoogli-Light.ufo
<glyph name="exclam" format="1">
  <advance width="313"/>
  <unicode hex="0021"/>
  <outline>
    <contour>
      <point x="165" y="244"/>
      <point x="175" y="253"/>
      <point x="175" y="264" type="curve" smooth="yes"/>
      <point x="182" y="556" type="line" smooth="yes"/>
      <point x="182" y="566"/>
      <point x="173" y="576"/>
      <point x="162" y="576" type="curve" smooth="yes"/>
      <point x="152" y="576"/>
      <point x="142" y="567"/>
      <point x="142" y="556" type="curve" smooth="yes"/>
      <point x="135" y="264" type="line" smooth="yes"/>
      <point x="135" y="254"/>
      <point x="144" y="244"/>
      <point x="155" y="244" type="curve" smooth="yes"/>
    </contour>
    <contour>
      <point x="181" y="-15"/>
      <point x="197" y="0"/>
      <point x="197" y="35" type="curve" smooth="yes"/>
      <point x="197" y="64"/>
      <point x="180" y="86"/>
      <point x="155" y="86" type="curve" smooth="yes"/>
      <point x="129" y="86"/>
      <point x="114" y="64"/>
      <point x="114" y="35" type="curve" smooth="yes"/>
      <point x="114" y="1"/>
      <point x="136" y="-15"/>
      <point x="156" y="-15" type="curve" smooth="yes"/>
    </contour>
  </outline>
</glyph>
<glyph name="quotedbl" format="1">
  <advance width="394"/>
  <unicode hex="0022"/>
  <outline>
    <contour>
      <point x="261" y="366"/>
      <point x="272" y="373"/>
      <point x="274" y="384" type="curve" smooth="yes"/>
      <point x="316" y="568" type="line" smooth="yes"/>
      <point x="319" y="578"/>
      <point x="312" y="589"/>
      <point x="301" y="591" type="curve" smooth="yes"/>
      <point x="291" y="594"/>
      <point x="280" y="587"/>
      <point x="278" y="576" type="curve" smooth="yes"/>
      <point x="236" y="392" type="line" smooth="yes"/>
      <point x="233" y="382"/>
      <point x="240" y="371"/>
      <point x="251" y="369" type="curve" smooth="yes"/>
    </contour>
    <contour>
      <point x="94" y="366"/>
      <point x="105" y="373"/>
      <point x="107" y="384" type="curve" smooth="yes"/>
      <point x="149" y="568" type="line" smooth="yes"/>
      <point x="152" y="578"/>
      <point x="145" y="589"/>
      <point x="134" y="591" type="curve" smooth="yes"/>
      <point x="124" y="594"/>
      <point x="113" y="587"/>
      <point x="111" y="576" type="curve" smooth="yes"/>
      <point x="69" y="392" type="line" smooth="yes"/>
      <point x="66" y="382"/>
      <point x="73" y="371"/>
      <point x="84" y="369" type="curve" smooth="yes"/>
    </contour>
  </outline>
</glyph>
<glyph name="numbersign" format="1">
  <advance width="596"/>
  <unicode hex="0023"/>
  <outline>
    <contour>
      <point x="308" y="-11"/>
      <point x="320" y="-6"/>
      <point x="324" y="4" type="curve" smooth="yes"/>
      <point x="509" y="512" type="line" smooth="yes"/>
      <point x="512" y="522"/>
      <point x="507" y="534"/>
      <point x="497" y="538" type="curve" smooth="yes"/>
      <point x="487" y="541"/>
      <point x="475" y="536"/>
      <point x="471" y="526" type="curve" smooth="yes"/>
      <point x="286" y="18" type="line" smooth="yes"/>
      <point x="283" y="8"/>
      <point x="288" y="-4"/>
      <point x="298" y="-8" type="curve" smooth="yes"/>
    </contour>
    <contour>
      <point x="471" y="154" type="line" smooth="yes"/>
      <point x="482" y="154"/>
      <point x="491" y="163"/>
      <point x="491" y="174" type="curve" smooth="yes"/>
      <point x="491" y="185"/>
      <point x="482" y="194"/>
      <point x="471" y="194" type="curve" smooth="yes"/>
      <point x="47" y="194" type="line" smooth="yes"/>
      <point x="36" y="194"/>
      <point x="27" y="185"/>
      <point x="27" y="174" type="curve" smooth="yes"/>
      <point x="27" y="163"/>
      <point x="36" y="154"/>
      <point x="47" y="154" type="curve" smooth="yes"/>
    </contour>
    <contour>
      <point x="98" y="-11"/>
      <point x="110" y="-6"/>
      <point x="114" y="4" type="curve" smooth="yes"/>
      <point x="299" y="512" type="line" smooth="yes"/>
      <point x="302" y="522"/>
      <point x="297" y="534"/>
      <point x="287" y="538" type="curve" smooth="yes"/>
      <point x="277" y="541"/>
      <point x="265" y="536"/>
      <point x="261" y="526" type="curve" smooth="yes"/>
      <point x="76" y="18" type="line" smooth="yes"/>
      <point x="73" y="8"/>
      <point x="78" y="-4"/>
      <point x="88" y="-8" type="curve" smooth="yes"/>
    </contour>
    <contour>
      <point x="544" y="364" type="line" smooth="yes"/>
      <point x="555" y="364"/>
      <point x="564" y="373"/>
      <point x="564" y="384" type="curve" smooth="yes"/>
      <point x="564" y="395"/>
      <point x="555" y="404"/>
      <point x="544" y="404" type="curve" smooth="yes"/>
      <point x="119" y="404" type="line" smooth="yes"/>
      <point x="108" y="404"/>
      <point x="99" y="395"/>
      <point x="99" y="384" type="curve" smooth="yes"/>
      <point x="99" y="373"/>
      <point x="108" y="364"/>
      <point x="119" y="364" type="curve" smooth="yes"/>
    </contour>
  </outline>
</glyph>
<glyph name="quotesingle" format="1">
  <advance width="227"/>
  <unicode hex="0027"/>
  <outline>
    <contour>
      <point x="94" y="366"/>
      <point x="105" y="373"/>
      <point x="107" y="384" type="curve" smooth="yes"/>
      <point x="149" y="568" type="line" smooth="yes"/>
      <point x="152" y="578"/>
      <point x="145" y="589"/>
      <point x="134" y="591" type="curve" smooth="yes"/>
      <point x="124" y="594"/>
      <point x="113" y="587"/>
      <point x="111" y="576" type="curve" smooth="yes"/>
      <point x="69" y="392" type="line" smooth="yes"/>
      <point x="66" y="382"/>
      <point x="73" y="371"/>
      <point x="84" y="369" type="curve" smooth="yes"/>
    </contour>
  </outline>
</glyph>
<glyph name="parenleft" format="1">
  <advance width="322"/>
  <unicode hex="0028"/>
  <outline>
    <contour>
      <point x="223" y="-115"/>
      <point x="236" y="-115"/>
      <point x="244" y="-107" type="curve" smooth="yes"/>
      <point x="252" y="-100"/>
      <point x="252" y="-87"/>
      <point x="244" y="-79" type="curve" smooth="yes"/>
      <point x="165" y="3"/>
      <point x="107" y="125"/>
      <point x="107" y="259" type="curve" smooth="yes"/>
      <point x="107" y="394"/>
      <point x="169" y="523"/>
      <point x="245" y="607" type="curve" smooth="yes"/>
      <point x="252" y="615"/>
      <point x="251" y="628"/>
      <point x="243" y="635" type="curve" smooth="yes"/>
      <point x="235" y="642"/>
      <point x="222" y="641"/>
      <point x="215" y="633" type="curve" smooth="yes"/>
      <point x="133" y="543"/>
      <point x="67" y="404"/>
      <point x="67" y="259" type="curve" smooth="yes"/>
      <point x="67" y="115"/>
      <point x="129" y="-17"/>
      <point x="216" y="-107" type="curve" smooth="yes"/>
    </contour>
  </outline>
</glyph>
<glyph name="asterisk" format="1">
  <advance width="423"/>
  <unicode hex="002A"/>
  <outline>
    <contour>
      <point x="344" y="466" type="line" smooth="yes"/>
      <point x="353" y="471"/>
      <point x="357" y="484"/>
      <point x="351" y="493" type="curve" smooth="yes"/>
      <point x="346" y="502"/>
      <point x="333" y="506"/>
      <point x="324" y="500" type="curve" smooth="yes"/>
      <point x="79" y="357" type="line" smooth="yes"/>
      <point x="66.94" y="350.3"/>
      <point x="63.96" y="342.06"/>
      <point x="72" y="330" type="curve" smooth="yes"/>
      <point x="77" y="321"/>
      <point x="90" y="317"/>
      <point x="99" y="323" type="curve" smooth="yes"/>
    </contour>
    <contour>
      <point x="333" y="317"/>
      <point x="346" y="321"/>
      <point x="351" y="330" type="curve" smooth="yes"/>
      <point x="357" y="339"/>
      <point x="353" y="352"/>
      <point x="344" y="357" type="curve" smooth="yes"/>
      <point x="99" y="500" type="line" smooth="yes"/>
      <point x="90" y="506"/>
      <point x="77" y="502"/>
      <point x="72" y="493" type="curve" smooth="yes"/>
      <point x="66" y="484"/>
      <point x="70" y="471"/>
      <point x="79" y="466" type="curve" smooth="yes"/>
      <point x="324" y="323" type="line" smooth="yes"/>
    </contour>
    <contour>
      <point x="222" y="264"/>
      <point x="231" y="273"/>
      <point x="231" y="284" type="curve" smooth="yes"/>
      <point x="231" y="544" type="line" smooth="yes"/>
      <point x="231" y="555"/>
      <point x="222" y="564"/>
      <point x="211" y="564" type="curve" smooth="yes"/>
      <point x="200" y="564"/>
      <point x="191" y="555"/>
      <point x="191" y="544" type="curve" smooth="yes"/>
      <point x="191" y="284" type="line" smooth="yes"/>
      <point x="191" y="273"/>
      <point x="200" y="264"/>
      <point x="211" y="264" type="curve" smooth="yes"/>
    </contour>
  </outline>
</glyph>
<glyph name="comma" format="1">
  <advance width="212"/>
  <unicode hex="002C"/>
  <outline>
    <contour>
      <point x="60" y="-125"/>
      <point x="73" y="-124"/>
      <point x="79" y="-115" type="curve" smooth="yes"/>
      <point x="108" y="-76"/>
      <point x="127" y="-22"/>
      <point x="127" y="30" type="curve" smooth="yes"/>
      <point x="127" y="53"/>
      <point x="124" y="74"/>
      <point x="120" y="87" type="curve" smooth="yes"/>
      <point x="117" y="98"/>
      <point x="105" y="103"/>
      <point x="95" y="100" type="curve" smooth="yes"/>
      <point x="84" y="97"/>
      <point x="79" y="85"/>
      <point x="82" y="75" type="curve" smooth="yes"/>
      <point x="86" y="64"/>
      <point x="87" y="47"/>
      <point x="87" y="30" type="curve" smooth="yes"/>
      <point x="87" y="-14"/>
      <point x="72" y="-58"/>
      <point x="47" y="-91" type="curve" smooth="yes"/>
      <point x="41" y="-100"/>
      <point x="42" y="-113"/>
      <point x="51" y="-119" type="curve" smooth="yes"/>
    </contour>
  </outline>
</glyph>
<glyph name="hyphen" format="1">
  <advance width="395"/>
  <unicode hex="002D"/>
  <outline>
    <contour>
      <point x="296" y="198" type="line" smooth="yes"/>
      <point x="307" y="198"/>
      <point x="316" y="207"/>
      <point x="316" y="218" type="curve" smooth="yes"/>
      <point x="316" y="229"/>
      <point x="307" y="238"/>
      <point x="296" y="238" type="curve" smooth="yes"/>
      <point x="99" y="238" type="line" smooth="yes"/>
      <point x="88" y="238"/>
      <point x="79" y="229"/>
      <point x="79" y="218" type="curve" smooth="yes"/>
      <point x="79" y="207"/>
      <point x="88" y="198"/>
      <point x="99" y="198" type="curve" smooth="yes"/>
    </contour>
  </outline>
</glyph>
<glyph name="slash" format="1">
  <advance width="385"/>
  <unicode hex="002F"/>
  <outline>
    <contour>
      <point x="62" y="-116"/>
      <point x="74" y="-111"/>
      <point x="78" y="-101" type="curve" smooth="yes"/>
      <point x="339" y="613" type="line" smooth="yes"/>
      <point x="342" y="623"/>
      <point x="337" y="635"/>
      <point x="327" y="639" type="curve" smooth="yes"/>
      <point x="317" y="642"/>
      <point x="305" y="637"/>
      <point x="301" y="627" type="curve" smooth="yes"/>
      <point x="40" y="-87" type="line" smooth="yes"/>
      <point x="37" y="-97"/>
      <point x="42" y="-109"/>
      <point x="52" y="-113" type="curve" smooth="yes"/>
    </contour>
  </outline>
</glyph>
<glyph name="four" format="1">
  <advance width="528"/>
  <unicode hex="0034"/>
  <outline>
    <contour>
      <point x="45" y="119"/>
      <point x="58" y="120"/>
      <point x="64" y="128" type="curve" smooth="yes"/>
      <point x="378" y="508" type="line" smooth="yes"/>
      <point x="385" y="517"/>
      <point x="384" y="530"/>
      <point x="376" y="536" type="curve" smooth="yes"/>
      <point x="367" y="543"/>
      <point x="354" y="542"/>
      <point x="348" y="534" type="curve" smooth="yes"/>
      <point x="34" y="154" type="line" smooth="yes"/>
      <point x="27" y="145"/>
      <point x="28" y="132"/>
      <point x="36" y="126" type="curve" smooth="yes"/>
    </contour>
    <contour>
      <point x="484" y="121" type="line" smooth="yes"/>
      <point x="495" y="121"/>
      <point x="504" y="130"/>
      <point x="504" y="141" type="curve" smooth="yes"/>
      <point x="504" y="152"/>
      <point x="495" y="161"/>
      <point x="484" y="161" type="curve" smooth="yes"/>
      <point x="60" y="161" type="line" smooth="yes"/>
      <point x="49" y="161"/>
      <point x="40" y="152"/>
      <point x="40" y="141" type="curve" smooth="yes"/>
      <point x="40" y="130"/>
      <point x="49" y="121"/>
      <point x="60" y="121" type="curve" smooth="yes"/>
    </contour>
    <contour>
      <point x="381" y="-9"/>
      <point x="390" y="0"/>
      <point x="390" y="11" type="curve" smooth="yes"/>
      <point x="390" y="530" type="line" smooth="yes"/>
      <point x="390" y="541"/>
      <point x="381" y="550"/>
      <point x="370" y="550" type="curve" smooth="yes"/>
      <point x="359" y="550"/>
      <point x="350" y="541"/>
      <point x="350" y="530" type="curve" smooth="yes"/>
      <point x="350" y="11" type="line" smooth="yes"/>
      <point x="350" y="0"/>
      <point x="359" y="-9"/>
      <point x="370" y="-9" type="curve" smooth="yes"/>
    </contour>
  </outline>
</glyph>
<glyph name="five" format="1">
  <advance width="517"/>
  <unicode hex="0035"/>
  <outline>
    <contour>
      <point x="399" y="-13"/>
      <point x="459" y="65"/>
      <point x="459" y="162" type="curve" smooth="yes"/>
      <point x="459" y="254"/>
      <point x="390" y="325"/>
      <point x="269" y="325" type="curve" smooth="yes"/>
      <point x="195" y="325"/>
      <point x="142" y="306"/>
      <point x="106" y="289" type="curve" smooth="yes"/>
      <point x="97" y="284"/>
      <point x="92" y="272"/>
      <point x="97" y="262" type="curve" smooth="yes"/>
      <point x="102" y="253"/>
      <point x="114" y="248"/>
      <point x="124" y="253" type="curve" smooth="yes"/>
      <point x="156" y="268"/>
      <point x="203" y="285"/>
      <point x="269" y="285" type="curve" smooth="yes"/>
      <point x="360" y="285"/>
      <point x="419" y="234"/>
      <point x="419" y="162" type="curve" smooth="yes"/>
      <point x="419" y="85"/>
      <point x="369" y="27"/>
      <point x="264" y="27" type="curve" smooth="yes"/>
      <point x="198" y="27"/>
      <point x="137" y="42"/>
      <point x="94" y="62" type="curve" smooth="yes"/>
      <point x="85" y="67"/>
      <point x="72" y="62"/>
      <point x="68" y="52" type="curve" smooth="yes"/>
      <point x="63" y="43"/>
      <point x="68" y="30"/>
      <point x="78" y="26" type="curve" smooth="yes"/>
      <point x="125" y="4"/>
      <point x="192" y="-13"/>
      <point x="264" y="-13" type="curve" smooth="yes"/>
    </contour>
    <contour>
      <point x="124" y="256"/>
      <point x="134" y="265"/>
      <point x="135" y="275" type="curve" smooth="yes"/>
      <point x="155" y="511" type="line" smooth="yes"/>
      <point x="156" y="522"/>
      <point x="147" y="532"/>
      <point x="137" y="533" type="curve" smooth="yes"/>
      <point x="126" y="534"/>
      <point x="116" y="525"/>
      <point x="115" y="515" type="curve" smooth="yes"/>
      <point x="95" y="279" type="line" smooth="yes"/>
      <point x="94" y="268"/>
      <point x="103" y="258"/>
      <point x="113" y="257" type="curve" smooth="yes"/>
    </contour>
    <contour>
      <point x="406" y="500" type="line" smooth="yes"/>
      <point x="417" y="500"/>
      <point x="426" y="509"/>
      <point x="426" y="520" type="curve" smooth="yes"/>
      <point x="426" y="531"/>
      <point x="417" y="540"/>
      <point x="406" y="540" type="curve" smooth="yes"/>
      <point x="136" y="540" type="line" smooth="yes"/>
      <point x="125" y="540"/>
      <point x="116" y="531"/>
      <point x="116" y="520" type="curve" smooth="yes"/>
      <point x="116" y="509"/>
      <point x="125" y="500"/>
      <point x="136" y="500" type="curve" smooth="yes"/>
    </contour>
  </outline>
</glyph>
<glyph name="eight" format="1">
  <advance width="556"/>
  <unicode hex="0038"/>
  <outline>
    <contour>
      <point x="438" y="-17"/>
      <point x="491" y="59"/>
      <point x="491" y="144" type="curve" smooth="yes"/>
      <point x="491" y="238"/>
      <point x="412" y="306"/>
      <point x="279" y="306" type="curve" smooth="yes"/>
      <point x="138" y="306"/>
      <point x="65" y="238"/>
      <point x="65" y="143" type="curve" smooth="yes"/>
      <point x="65" y="59"/>
      <point x="130" y="-17"/>
      <point x="279" y="-17" type="curve" smooth="yes"/>
    </contour>
    <contour>
      <point x="168" y="23"/>
      <point x="105" y="75"/>
      <point x="105" y="143" type="curve" smooth="yes"/>
      <point x="105" y="220"/>
      <point x="172" y="266"/>
      <point x="279" y="266" type="curve" smooth="yes"/>
      <point x="380" y="266"/>
      <point x="451" y="220"/>
      <point x="451" y="144" type="curve" smooth="yes"/>
      <point x="451" y="75"/>
      <point x="398" y="23"/>
      <point x="279" y="23" type="curve" smooth="yes"/>
    </contour>
    <contour>
      <point x="407" y="266"/>
      <point x="464" y="333"/>
      <point x="464" y="409" type="curve" smooth="yes"/>
      <point x="464" y="490"/>
      <point x="397" y="548"/>
      <point x="279" y="548" type="curve" smooth="yes"/>
      <point x="155" y="548"/>
      <point x="92" y="490"/>
      <point x="92" y="409" type="curve" smooth="yes"/>
      <point x="92" y="333"/>
      <point x="145" y="266"/>
      <point x="279" y="266" type="curve" smooth="yes"/>
    </contour>
    <contour>
      <point x="183" y="306"/>
      <point x="132" y="349"/>
      <point x="132" y="409" type="curve" smooth="yes"/>
      <point x="132" y="472"/>
      <point x="191" y="508"/>
      <point x="279" y="508" type="curve" smooth="yes"/>
      <point x="363" y="508"/>
      <point x="424" y="472"/>
      <point x="424" y="409" type="curve" smooth="yes"/>
      <point x="424" y="349"/>
      <point x="371" y="306"/>
      <point x="279" y="306" type="curve" smooth="yes"/>
    </contour>
  </outline>
</glyph>
<glyph name="semicolon" format="1">
  <advance width="212"/>
  <unicode hex="003B"/>
  <outline>
    <contour>
      <point x="60" y="-133"/>
      <point x="73" y="-131"/>
      <point x="79" y="-122" type="curve" smooth="yes"/>
      <point x="109" y="-82"/>
      <point x="127" y="-29"/>
      <point x="127" y="23" type="curve" smooth="yes"/>
      <point x="127" y="45"/>
      <point x="125" y="66"/>
      <point x="120" y="81" type="curve" smooth="yes"/>
      <point x="117" y="91"/>
      <point x="105" y="97"/>
      <point x="95" y="94" type="curve" smooth="yes"/>
      <point x="85" y="91"/>
      <point x="79" y="79"/>
      <point x="82" y="69" type="curve" smooth="yes"/>
      <point x="85" y="58"/>
      <point x="87" y="41"/>
      <point x="87" y="23" type="curve" smooth="yes"/>
      <point x="87" y="-21"/>
      <point x="71" y="-64"/>
      <point x="47" y="-98" type="curve" smooth="yes"/>
      <point x="40" y="-107"/>
      <point x="42" y="-120"/>
      <point x="51" y="-126" type="curve" smooth="yes"/>
    </contour>
    <contour>
      <point x="128" y="276"/>
      <point x="146" y="292"/>
      <point x="146" y="327" type="curve" smooth="yes"/>
      <point x="146" y="354"/>
      <point x="127" y="377"/>
      <point x="104" y="377" type="curve" smooth="yes"/>
      <point x="77" y="377"/>
      <point x="63" y="354"/>
      <point x="63" y="327" type="curve" smooth="yes"/>
      <point x="63" y="293"/>
      <point x="84" y="276"/>
      <point x="105" y="276" type="curve" smooth="yes"/>
    </contour>
  </outline>
</glyph>
<glyph name="I" format="1">
  <advance width="239"/>
  <unicode hex="0049"/>
  <outline>
    <contour>
      <point x="130" y="-9"/>
      <point x="139" y="0"/>
      <point x="139" y="11" type="curve" smooth="yes"/>
      <point x="139" y="520" type="line" smooth="yes"/>
      <point x="139" y="531"/>
      <point x="130" y="540"/>
      <point x="119" y="540" type="curve" smooth="yes"/>
      <point x="108" y="540"/>
      <point x="99" y="531"/>
      <point x="99" y="520" type="curve" smooth="yes"/>
      <point x="99" y="11" type="line" smooth="yes"/>
      <point x="99" y="0"/>
      <point x="108" y="-9"/>
      <point x="119" y="-9" type="curve" smooth="yes"/>
    </contour>
    <contour>
      <point x="120" y="27" type="move" name="ogonek"/>
    </contour>
    <contour>
      <point x="119" y="-9" type="move" name="bottom"/>
    </contour>
    <contour>
      <point x="119" y="540" type="move" name="top"/>
    </contour>
  </outline>
</glyph>
<glyph name="P" format="1">
  <advance width="506"/>
  <unicode hex="0050"/>
  <outline>
    <contour>
      <point x="125" y="-9"/>
      <point x="134" y="0"/>
      <point x="134" y="11" type="curve" smooth="yes"/>
      <point x="134" y="520" type="line"/>
      <point x="114" y="500" type="line"/>
      <point x="264" y="500" type="line" smooth="yes"/>
      <point x="357" y="500"/>
      <point x="424" y="442"/>
      <point x="424" y="358" type="curve" smooth="yes"/>
      <point x="424" y="279"/>
      <point x="368" y="216"/>
      <point x="264" y="216" type="curve" smooth="yes"/>
      <point x="141" y="216" type="line" smooth="yes"/>
      <point x="130" y="216"/>
      <point x="121" y="207"/>
      <point x="121" y="196" type="curve" smooth="yes"/>
      <point x="121" y="185"/>
      <point x="130" y="176"/>
      <point x="141" y="176" type="curve" smooth="yes"/>
      <point x="264" y="176" type="line" smooth="yes"/>
      <point x="398" y="176"/>
      <point x="464" y="259"/>
      <point x="464" y="358" type="curve" smooth="yes"/>
      <point x="464" y="464"/>
      <point x="383" y="540"/>
      <point x="264" y="540" type="curve" smooth="yes"/>
      <point x="114" y="540" type="line" smooth="yes"/>
      <point x="103" y="540"/>
      <point x="94" y="531"/>
      <point x="94" y="520" type="curve" smooth="yes"/>
      <point x="94" y="11" type="line" smooth="yes"/>
      <point x="94" y="0"/>
      <point x="103" y="-9"/>
      <point x="114" y="-9" type="curve" smooth="yes"/>
    </contour>
  </outline>
</glyph>
<glyph name="U" format="1">
  <advance width="617"/>
  <unicode hex="0055"/>
  <outline>
    <contour>
      <point x="453" y="-18"/>
      <point x="535" y="63"/>
      <point x="535" y="213" type="curve" smooth="yes"/>
      <point x="535" y="520" type="line" smooth="yes"/>
      <point x="535" y="531"/>
      <point x="526" y="540"/>
      <point x="515" y="540" type="curve" smooth="yes"/>
      <point x="504" y="540"/>
      <point x="495" y="531"/>
      <point x="495" y="520" type="curve" smooth="yes"/>
      <point x="495" y="213" type="line" smooth="yes"/>
      <point x="495" y="89"/>
      <point x="427" y="22"/>
      <point x="306" y="22" type="curve" smooth="yes"/>
      <point x="198" y="22"/>
      <point x="122" y="89"/>
      <point x="122" y="210" type="curve" smooth="yes"/>
      <point x="122" y="520" type="line" smooth="yes"/>
      <point x="122" y="531"/>
      <point x="113" y="540"/>
      <point x="102" y="540" type="curve" smooth="yes"/>
      <point x="91" y="540"/>
      <point x="82" y="531"/>
      <point x="82" y="520" type="curve" smooth="yes"/>
      <point x="82" y="210" type="line" smooth="yes"/>
      <point x="82" y="63"/>
      <point x="174" y="-18"/>
      <point x="306" y="-18" type="curve" smooth="yes"/>
    </contour>
    <contour>
      <point x="357" y="-10" type="move" name="ogonek"/>
    </contour>
    <contour>
      <point x="304" y="508" type="move" name="top"/>
    </contour>
  </outline>
</glyph>
<glyph name="V" format="1">
  <advance width="584"/>
  <unicode hex="0056"/>
  <outline>
    <contour>
      <point x="293" y="-22"/>
      <point x="306" y="-18"/>
      <point x="311" y="-8" type="curve" smooth="yes"/>
      <point x="357" y="80"/>
      <point x="488" y="363"/>
      <point x="540" y="513" type="curve" smooth="yes"/>
      <point x="543" y="524"/>
      <point x="538" y="535"/>
      <point x="528" y="539" type="curve" smooth="yes"/>
      <point x="517" y="542"/>
      <point x="506" y="537"/>
      <point x="502" y="527" type="curve" smooth="yes"/>
      <point x="450" y="377"/>
      <point x="321" y="98"/>
      <point x="275" y="10" type="curve" smooth="yes"/>
      <point x="270" y="1"/>
      <point x="274" y="-12"/>
      <point x="284" y="-17" type="curve" smooth="yes"/>
    </contour>
    <contour>
      <point x="309" y="-5"/>
      <point x="313" y="7"/>
      <point x="308" y="16" type="curve" smooth="yes"/>
      <point x="266" y="94"/>
      <point x="125" y="398"/>
      <point x="83" y="527" type="curve" smooth="yes"/>
      <point x="80" y="537"/>
      <point x="68" y="543"/>
      <point x="58" y="540" type="curve" smooth="yes"/>
      <point x="48" y="537"/>
      <point x="42" y="525"/>
      <point x="45" y="515" type="curve" smooth="yes"/>
      <point x="87" y="384"/>
      <point x="230" y="76"/>
      <point x="272" y="-2" type="curve" smooth="yes"/>
      <point x="278" y="-12"/>
      <point x="290" y="-16"/>
      <point x="299" y="-11" type="curve" smooth="yes"/>
    </contour>
  </outline>
</glyph>
<glyph name="c" format="1">
  <advance width="438"/>
  <unicode hex="0063"/>
  <outline>
    <contour>
      <point x="313" y="-6"/>
      <point x="350" y="4"/>
      <point x="381" y="15" type="curve" smooth="yes"/>
      <point x="391" y="19"/>
      <point x="397" y="31"/>
      <point x="393" y="41" type="curve" smooth="yes"/>
      <point x="389" y="51"/>
      <point x="377" y="57"/>
      <point x="367" y="53" type="curve" smooth="yes"/>
      <point x="340" y="42"/>
      <point x="307" y="34"/>
      <point x="267" y="34" type="curve" smooth="yes"/>
      <point x="157" y="34"/>
      <point x="93" y="99"/>
      <point x="93" y="185" type="curve" smooth="yes"/>
      <point x="93" y="283"/>
      <point x="157" y="354"/>
      <point x="268" y="354" type="curve" smooth="yes"/>
      <point x="296" y="354"/>
      <point x="329" y="347"/>
      <point x="355" y="339" type="curve" smooth="yes"/>
      <point x="365" y="336"/>
      <point x="377" y="342"/>
      <point x="380" y="352" type="curve" smooth="yes"/>
      <point x="383" y="362"/>
      <point x="377" y="374"/>
      <point x="367" y="377" type="curve" smooth="yes"/>
      <point x="337" y="387"/>
      <point x="300" y="394"/>
      <point x="268" y="394" type="curve" smooth="yes"/>
      <point x="131" y="394"/>
      <point x="53" y="305"/>
      <point x="53" y="185" type="curve" smooth="yes"/>
      <point x="53" y="79"/>
      <point x="127" y="-6"/>
      <point x="267" y="-6" type="curve" smooth="yes"/>
    </contour>
    <contour>
      <point x="243" y="395" type="move" name="top"/>
    </contour>
    <contour>
      <point x="243" y="-4" type="move" name="bottom"/>
    </contour>
  </outline>
</glyph>
<glyph name="d" format="1">
  <advance width="510"/>
  <unicode hex="0064"/>
  <outline>
    <contour>
      <point x="317" y="-10"/>
      <point x="381" y="47"/>
      <point x="426" y="123" type="curve" smooth="yes"/>
      <point x="432" y="132"/>
      <point x="429" y="145"/>
      <point x="419" y="150" type="curve" smooth="yes"/>
      <point x="410" y="156"/>
      <point x="397" y="153"/>
      <point x="392" y="143" type="curve" smooth="yes"/>
      <point x="355" y="81"/>
      <point x="303" y="30"/>
      <point x="230" y="30" type="curve" smooth="yes"/>
      <point x="151" y="30"/>
      <point x="93" y="90"/>
      <point x="93" y="181" type="curve" smooth="yes"/>
      <point x="93" y="279"/>
      <point x="160" y="349"/>
      <point x="252" y="349" type="curve" smooth="yes"/>
      <point x="310" y="349"/>
      <point x="354" y="327"/>
      <point x="397" y="292" type="curve" smooth="yes"/>
      <point x="406" y="285"/>
      <point x="418" y="286"/>
      <point x="425" y="294" type="curve" smooth="yes"/>
      <point x="432" y="303"/>
      <point x="431" y="315"/>
      <point x="423" y="322" type="curve" smooth="yes"/>
      <point x="372" y="365"/>
      <point x="320" y="389"/>
      <point x="252" y="389" type="curve" smooth="yes"/>
      <point x="138" y="389"/>
      <point x="53" y="303"/>
      <point x="53" y="181" type="curve" smooth="yes"/>
      <point x="53" y="64"/>
      <point x="131" y="-10"/>
      <point x="230" y="-10" type="curve" smooth="yes"/>
    </contour>
    <contour>
      <point x="421" y="-10"/>
      <point x="430" y="-1"/>
      <point x="430" y="10" type="curve" smooth="yes"/>
      <point x="430" y="547" type="line" smooth="yes"/>
      <point x="430" y="558"/>
      <point x="421" y="567"/>
      <point x="410" y="567" type="curve" smooth="yes"/>
      <point x="399" y="567"/>
      <point x="390" y="558"/>
      <point x="390" y="547" type="curve" smooth="yes"/>
      <point x="390" y="10" type="line" smooth="yes"/>
      <point x="390" y="-1"/>
      <point x="399" y="-10"/>
      <point x="410" y="-10" type="curve" smooth="yes"/>
    </contour>
  </outline>
</glyph>
<glyph name="i" format="1">
  <advance width="214"/>
  <unicode hex="0069"/>
  <outline>
    <contour>
      <point x="118" y="-11"/>
      <point x="127" y="-2"/>
      <point x="127" y="9" type="curve" smooth="yes"/>
      <point x="127" y="368" type="line" smooth="yes"/>
      <point x="127" y="379"/>
      <point x="118" y="388"/>
      <point x="107" y="388" type="curve" smooth="yes"/>
      <point x="96" y="388"/>
      <point x="87" y="379"/>
      <point x="87" y="368" type="curve" smooth="yes"/>
      <point x="87" y="9" type="line" smooth="yes"/>
      <point x="87" y="-2"/>
      <point x="96" y="-11"/>
      <point x="107" y="-11" type="curve" smooth="yes"/>
    </contour>
    <contour>
      <point x="128" y="514"/>
      <point x="146" y="532"/>
      <point x="146" y="559" type="curve" smooth="yes"/>
      <point x="146" y="588"/>
      <point x="128" y="607"/>
      <point x="107" y="607" type="curve" smooth="yes"/>
      <point x="85" y="607"/>
      <point x="68" y="588"/>
      <point x="68" y="559" type="curve" smooth="yes"/>
      <point x="68" y="533"/>
      <point x="85" y="514"/>
      <point x="108" y="514" type="curve" smooth="yes"/>
    </contour>
    <contour>
      <point x="107" y="-9" type="move" name="bottom"/>
    </contour>
  </outline>
</glyph>
<glyph name="n" format="1">
  <advance width="492"/>
  <unicode hex="006E"/>
  <outline>
    <contour>
      <point x="413" y="-6"/>
      <point x="422" y="3"/>
      <point x="422" y="14" type="curve" smooth="yes"/>
      <point x="422" y="224" type="line" smooth="yes"/>
      <point x="422" y="354"/>
      <point x="360" y="394"/>
      <point x="284" y="394" type="curve" smooth="yes"/>
      <point x="213" y="394"/>
      <point x="145" y="351"/>
      <point x="91" y="296" type="curve" smooth="yes"/>
      <point x="83" y="288"/>
      <point x="83" y="275"/>
      <point x="91" y="268" type="curve" smooth="yes"/>
      <point x="99" y="260"/>
      <point x="112" y="260"/>
      <point x="119" y="268" type="curve" smooth="yes"/>
      <point x="165" y="315"/>
      <point x="223" y="354"/>
      <point x="284" y="354" type="curve" smooth="yes"/>
      <point x="342" y="354"/>
      <point x="382" y="316"/>
      <point x="382" y="224" type="curve" smooth="yes"/>
      <point x="382" y="14" type="line" smooth="yes"/>
      <point x="382" y="3"/>
      <point x="391" y="-6"/>
      <point x="402" y="-6" type="curve" smooth="yes"/>
    </contour>
    <contour>
      <point x="112" y="-6"/>
      <point x="121" y="3"/>
      <point x="121" y="14" type="curve" smooth="yes"/>
      <point x="121" y="374" type="line" smooth="yes"/>
      <point x="121" y="385"/>
      <point x="112" y="394"/>
      <point x="101" y="394" type="curve" smooth="yes"/>
      <point x="90" y="394"/>
      <point x="81" y="385"/>
      <point x="81" y="374" type="curve" smooth="yes"/>
      <point x="81" y="14" type="line" smooth="yes"/>
      <point x="81" y="3"/>
      <point x="90" y="-6"/>
      <point x="101" y="-6" type="curve" smooth="yes"/>
    </contour>
    <contour>
      <point x="254" y="402" type="move" name="top"/>
    </contour>
    <contour>
      <point x="240" y="30" type="move" name="bottom"/>
    </contour>
  </outline>
</glyph>
<glyph name="u" format="1">
  <advance width="492"/>
  <unicode hex="0075"/>
  <outline>
    <contour>
      <point x="279" y="-6"/>
      <point x="355" y="49"/>
      <point x="403" y="115" type="curve" smooth="yes"/>
      <point x="410" y="124"/>
      <point x="407" y="137"/>
      <point x="399" y="143" type="curve" smooth="yes"/>
      <point x="390" y="150"/>
      <point x="377" y="147"/>
      <point x="371" y="139" type="curve" smooth="yes"/>
      <point x="331" y="83"/>
      <point x="269" y="34"/>
      <point x="208" y="34" type="curve" smooth="yes"/>
      <point x="149" y="34"/>
      <point x="110" y="72"/>
      <point x="110" y="164" type="curve" smooth="yes"/>
      <point x="110" y="374" type="line" smooth="yes"/>
      <point x="110" y="385"/>
      <point x="101" y="394"/>
      <point x="90" y="394" type="curve" smooth="yes"/>
      <point x="79" y="394"/>
      <point x="70" y="385"/>
      <point x="70" y="374" type="curve" smooth="yes"/>
      <point x="70" y="164" type="line" smooth="yes"/>
      <point x="70" y="34"/>
      <point x="131" y="-6"/>
      <point x="208" y="-6" type="curve" smooth="yes"/>
    </contour>
    <contour>
      <point x="402" y="-6"/>
      <point x="411" y="3"/>
      <point x="411" y="14" type="curve" smooth="yes"/>
      <point x="411" y="374" type="line" smooth="yes"/>
      <point x="411" y="385"/>
      <point x="402" y="394"/>
      <point x="391" y="394" type="curve" smooth="yes"/>
      <point x="380" y="394"/>
      <point x="371" y="385"/>
      <point x="371" y="374" type="curve" smooth="yes"/>
      <point x="371" y="14" type="line" smooth="yes"/>
      <point x="371" y="3"/>
      <point x="380" y="-6"/>
      <point x="391" y="-6" type="curve" smooth="yes"/>
    </contour>
    <contour>
      <point x="392" y="21" type="move" name="ogonek"/>
    </contour>
    <contour>
      <point x="231" y="390" type="move" name="top"/>
    </contour>
  </outline>
</glyph>
<glyph name="v" format="1">
  <advance width="444"/>
  <unicode hex="0076"/>
  <outline>
    <contour>
      <point x="229" y="-10" type="line" smooth="yes"/>
      <point x="235" y="-10"/>
      <point x="243" y="-6"/>
      <point x="246" y="0" type="curve" smooth="yes"/>
      <point x="301" y="92"/>
      <point x="369" y="250"/>
      <point x="412" y="367" type="curve" smooth="yes"/>
      <point x="415" y="377"/>
      <point x="410" y="389"/>
      <point x="400" y="393" type="curve" smooth="yes"/>
      <point x="390" y="396"/>
      <point x="378" y="391"/>
      <point x="374" y="381" type="curve" smooth="yes"/>
      <point x="333" y="266"/>
      <point x="265" y="110"/>
      <point x="212" y="20" type="curve"/>
      <point x="229" y="30" type="line"/>
      <point x="225" y="30" type="line"/>
      <point x="242" y="20" type="line"/>
      <point x="188" y="111"/>
      <point x="131" y="222"/>
      <point x="70" y="381" type="curve" smooth="yes"/>
      <point x="66" y="391"/>
      <point x="54" y="397"/>
      <point x="44" y="393" type="curve" smooth="yes"/>
      <point x="34" y="389"/>
      <point x="28" y="377"/>
      <point x="32" y="367" type="curve" smooth="yes"/>
      <point x="95" y="204"/>
      <point x="152" y="91"/>
      <point x="208" y="0" type="curve" smooth="yes"/>
      <point x="211" y="-6"/>
      <point x="219" y="-10"/>
      <point x="225" y="-10" type="curve" smooth="yes"/>
    </contour>
  </outline>
</glyph>
<glyph name="x" format="1">
  <advance width="439"/>
  <unicode hex="0078"/>
  <outline>
    <contour>
      <point x="409" y="6"/>
      <point x="410" y="19"/>
      <point x="403" y="27" type="curve" smooth="yes"/>
      <point x="309" y="136"/>
      <point x="162" y="290"/>
      <point x="80" y="387" type="curve" smooth="yes"/>
      <point x="73" y="395"/>
      <point x="60" y="396"/>
      <point x="52" y="389" type="curve" smooth="yes"/>
      <point x="44" y="382"/>
      <point x="43" y="369"/>
      <point x="50" y="361" type="curve" smooth="yes"/>
      <point x="132" y="264"/>
      <point x="279" y="110"/>
      <point x="373" y="1" type="curve" smooth="yes"/>
      <point x="380" y="-7"/>
      <point x="393" y="-8"/>
      <point x="401" y="-1" type="curve" smooth="yes"/>
    </contour>
    <contour>
      <point x="46" y="-8"/>
      <point x="59" y="-7"/>
      <point x="66" y="1" type="curve" smooth="yes"/>
      <point x="134" y="79"/>
      <point x="300" y="258"/>
      <point x="383" y="362" type="curve" smooth="yes"/>
      <point x="389" y="370"/>
      <point x="388" y="383"/>
      <point x="379" y="390" type="curve" smooth="yes"/>
      <point x="371" y="396"/>
      <point x="358" y="395"/>
      <point x="351" y="386" type="curve" smooth="yes"/>
      <point x="270" y="284"/>
      <point x="104" y="105"/>
      <point x="36" y="27" type="curve" smooth="yes"/>
      <point x="29" y="19"/>
      <point x="30" y="6"/>
      <point x="38" y="-1" type="curve" smooth="yes"/>
    </contour>
  </outline>
</glyph>
<glyph name="braceleft" format="1">
  <advance width="403"/>
  <unicode hex="007B"/>
  <outline>
    <contour>
      <point x="311" y="-114" type="line" smooth="yes"/>
      <point x="322" y="-114"/>
      <point x="331" y="-105"/>
      <point x="331" y="-94" type="curve" smooth="yes"/>
      <point x="331" y="-83"/>
      <point x="322" y="-74"/>
      <point x="311" y="-74" type="curve" smooth="yes"/>
      <point x="290" y="-74" type="line" smooth="yes"/>
      <point x="205" y="-74"/>
      <point x="144" y="-33"/>
      <point x="144" y="19" type="curve" smooth="yes"/>
      <point x="144" y="88"/>
      <point x="214" y="124"/>
      <point x="214" y="185" type="curve" smooth="yes"/>
      <point x="214" y="229"/>
      <point x="180" y="266"/>
      <point x="90" y="280" type="curve"/>
      <point x="107" y="260" type="line"/>
      <point x="107" y="266" type="line"/>
      <point x="90" y="246" type="line"/>
      <point x="180" y="260"/>
      <point x="214" y="297"/>
      <point x="214" y="341" type="curve" smooth="yes"/>
      <point x="214" y="402"/>
      <point x="144" y="438"/>
      <point x="144" y="507" type="curve" smooth="yes"/>
      <point x="144" y="559"/>
      <point x="205" y="600"/>
      <point x="290" y="600" type="curve" smooth="yes"/>
      <point x="311" y="600" type="line" smooth="yes"/>
      <point x="322" y="600"/>
      <point x="331" y="609"/>
      <point x="331" y="620" type="curve" smooth="yes"/>
      <point x="331" y="631"/>
      <point x="322" y="640"/>
      <point x="311" y="640" type="curve" smooth="yes"/>
      <point x="290" y="640" type="line" smooth="yes"/>
      <point x="169" y="640"/>
      <point x="104" y="573"/>
      <point x="104" y="507" type="curve" smooth="yes"/>
      <point x="104" y="438"/>
      <point x="174" y="402"/>
      <point x="174" y="341" type="curve" smooth="yes"/>
      <point x="174" y="309"/>
      <point x="136" y="294"/>
      <point x="84" y="286" type="curve" smooth="yes"/>
      <point x="75" y="284"/>
      <point x="67" y="275"/>
      <point x="67" y="266" type="curve" smooth="yes"/>
      <point x="67" y="260" type="line" smooth="yes"/>
      <point x="67" y="251"/>
      <point x="75" y="242"/>
      <point x="84" y="240" type="curve" smooth="yes"/>
      <point x="136" y="232"/>
      <point x="174" y="217"/>
      <point x="174" y="185" type="curve" smooth="yes"/>
      <point x="174" y="124"/>
      <point x="104" y="88"/>
      <point x="104" y="19" type="curve" smooth="yes"/>
      <point x="104" y="-47"/>
      <point x="169" y="-114"/>
      <point x="290" y="-114" type="curve" smooth="yes"/>
    </contour>
  </outline>
</glyph>
<glyph name="bar" format="1">
  <advance width="285"/>
  <unicode hex="007C"/>
  <outline>
    <contour>
      <point x="154" y="-115"/>
      <point x="163" y="-106"/>
      <point x="163" y="-95" type="curve" smooth="yes"/>
      <point x="163" y="621" type="line" smooth="yes"/>
      <point x="163" y="632"/>
      <point x="154" y="641"/>
      <point x="143" y="641" type="curve" smooth="yes"/>
      <point x="132" y="641"/>
      <point x="123" y="632"/>
      <point x="123" y="621" type="curve" smooth="yes"/>
      <point x="123" y="-95" type="line" smooth="yes"/>
      <point x="123" y="-106"/>
      <point x="132" y="-115"/>
      <point x="143" y="-115" type="curve" smooth="yes"/>
    </contour>
  </outline>
</glyph>
<glyph name="asciitilde" format="1">
  <advance width="613"/>
  <unicode hex="007E"/>
  <outline>
    <contour>
      <point x="460" y="177"/>
      <point x="498" y="216"/>
      <point x="545" y="314" type="curve" smooth="yes"/>
      <point x="550" y="324"/>
      <point x="545" y="336"/>
      <point x="536" y="341" type="curve" smooth="yes"/>
      <point x="526" y="346"/>
      <point x="514" y="341"/>
      <point x="509" y="332" type="curve" smooth="yes"/>
      <point x="474" y="258"/>
      <point x="450" y="217"/>
      <point x="405" y="217" type="curve" smooth="yes"/>
      <point x="374" y="217"/>
      <point x="352" y="239"/>
      <point x="324" y="271" type="curve" smooth="yes"/>
      <point x="289" y="311"/>
      <point x="261" y="339"/>
      <point x="218" y="339" type="curve" smooth="yes"/>
      <point x="168" y="339"/>
      <point x="128" y="301"/>
      <point x="86" y="214" type="curve" smooth="yes"/>
      <point x="81" y="204"/>
      <point x="86" y="192"/>
      <point x="95" y="187" type="curve" smooth="yes"/>
      <point x="105" y="182"/>
      <point x="117" y="187"/>
      <point x="122" y="196" type="curve" smooth="yes"/>
      <point x="152" y="259"/>
      <point x="178" y="299"/>
      <point x="218" y="299" type="curve" smooth="yes"/>
      <point x="251" y="299"/>
      <point x="269" y="273"/>
      <point x="294" y="245" type="curve" smooth="yes"/>
      <point x="332" y="201"/>
      <point x="364" y="177"/>
      <point x="405" y="177" type="curve" smooth="yes"/>
    </contour>
  </outline>
</glyph>
<glyph name="copyright" format="1">
  <advance width="656"/>
  <unicode hex="00A9"/>
  <outline>
    <contour>
      <point x="509" y="-19"/>
      <point x="613" y="106"/>
      <point x="613" y="265" type="curve" smooth="yes"/>
      <point x="613" y="432"/>
      <point x="487" y="550"/>
      <point x="330" y="550" type="curve" smooth="yes"/>
      <point x="158" y="550"/>
      <point x="43" y="432"/>
      <point x="43" y="262" type="curve" smooth="yes"/>
      <point x="43" y="106"/>
      <point x="161" y="-19"/>
      <point x="330" y="-19" type="curve" smooth="yes"/>
    </contour>
    <contour>
      <point x="371" y="108"/>
      <point x="399" y="116"/>
      <point x="422" y="127" type="curve" smooth="yes"/>
      <point x="432" y="132"/>
      <point x="436" y="144"/>
      <point x="431" y="154" type="curve" smooth="yes"/>
      <point x="426" y="164"/>
      <point x="414" y="168"/>
      <point x="404" y="163" type="curve" smooth="yes"/>
      <point x="387" y="154"/>
      <point x="365" y="148"/>
      <point x="340" y="148" type="curve" smooth="yes"/>
      <point x="266" y="148"/>
      <point x="221" y="198"/>
      <point x="221" y="264" type="curve" smooth="yes"/>
      <point x="221" y="334"/>
      <point x="275" y="383"/>
      <point x="337" y="383" type="curve" smooth="yes"/>
      <point x="362" y="383"/>
      <point x="385" y="376"/>
      <point x="401" y="368" type="curve" smooth="yes"/>
      <point x="411" y="363"/>
      <point x="423" y="367"/>
      <point x="428" y="377" type="curve" smooth="yes"/>
      <point x="433" y="387"/>
      <point x="429" y="399"/>
      <point x="419" y="404" type="curve" smooth="yes"/>
      <point x="399" y="414"/>
      <point x="370" y="423"/>
      <point x="337" y="423" type="curve" smooth="yes"/>
      <point x="255" y="423"/>
      <point x="181" y="358"/>
      <point x="181" y="264" type="curve" smooth="yes"/>
      <point x="181" y="176"/>
      <point x="240" y="108"/>
      <point x="340" y="108" type="curve" smooth="yes"/>
    </contour>
    <contour>
      <point x="185" y="21"/>
      <point x="83" y="128"/>
      <point x="83" y="262" type="curve" smooth="yes"/>
      <point x="83" y="408"/>
      <point x="182" y="510"/>
      <point x="330" y="510" type="curve" smooth="yes"/>
      <point x="465" y="510"/>
      <point x="573" y="408"/>
      <point x="573" y="265" type="curve" smooth="yes"/>
      <point x="573" y="128"/>
      <point x="483" y="21"/>
      <point x="330" y="21" type="curve" smooth="yes"/>
    </contour>
  </outline>
</glyph>
<glyph name="ordfeminine" format="1">
  <advance width="436"/>
  <unicode hex="00AA"/>
  <outline>
    <contour>
      <point x="347" y="267"/>
      <point x="348" y="280"/>
      <point x="341" y="288" type="curve" smooth="yes"/>
      <point x="327" y="304"/>
      <point x="321" y="324"/>
      <point x="321" y="355" type="curve" smooth="yes"/>
      <point x="321" y="418" type="line" smooth="yes"/>
      <point x="321" y="488"/>
      <point x="285" y="536"/>
      <point x="204" y="536" type="curve" smooth="yes"/>
      <point x="178" y="536"/>
      <point x="149" y="529"/>
      <point x="132" y="523" type="curve" smooth="yes"/>
      <point x="122" y="520"/>
      <point x="116" y="508"/>
      <point x="119" y="498" type="curve" smooth="yes"/>
      <point x="122" y="488"/>
      <point x="134" y="482"/>
      <point x="144" y="485" type="curve" smooth="yes"/>
      <point x="159" y="489"/>
      <point x="182" y="496"/>
      <point x="204" y="496" type="curve" smooth="yes"/>
      <point x="257" y="496"/>
      <point x="281" y="464"/>
      <point x="281" y="418" type="curve" smooth="yes"/>
      <point x="281" y="355" type="line" smooth="yes"/>
      <point x="281" y="310"/>
      <point x="291" y="284"/>
      <point x="311" y="262" type="curve" smooth="yes"/>
      <point x="318" y="254"/>
      <point x="331" y="253"/>
      <point x="339" y="260" type="curve" smooth="yes"/>
    </contour>
    <contour>
      <point x="359" y="135" type="line" smooth="yes"/>
      <point x="370" y="135"/>
      <point x="379" y="144"/>
      <point x="379" y="155" type="curve" smooth="yes"/>
      <point x="379" y="166"/>
      <point x="370" y="175"/>
      <point x="359" y="175" type="curve" smooth="yes"/>
      <point x="88" y="175" type="line" smooth="yes"/>
      <point x="77" y="175"/>
      <point x="68" y="166"/>
      <point x="68" y="155" type="curve" smooth="yes"/>
      <point x="68" y="144"/>
      <point x="77" y="135"/>
      <point x="88" y="135" type="curve" smooth="yes"/>
    </contour>
    <contour>
      <point x="235" y="255"/>
      <point x="278" y="277"/>
      <point x="317" y="330" type="curve" smooth="yes"/>
      <point x="323" y="339"/>
      <point x="322" y="352"/>
      <point x="313" y="358" type="curve" smooth="yes"/>
      <point x="304" y="364"/>
      <point x="291" y="363"/>
      <point x="285" y="354" type="curve" smooth="yes"/>
      <point x="254" y="313"/>
      <point x="221" y="295"/>
      <point x="173" y="295" type="curve" smooth="yes"/>
      <point x="141" y="295"/>
      <point x="125" y="314"/>
      <point x="125" y="332" type="curve" smooth="yes"/>
      <point x="125" y="345"/>
      <point x="128" y="355"/>
      <point x="137" y="365" type="curve" smooth="yes"/>
      <point x="157" y="382"/>
      <point x="187" y="394"/>
      <point x="233" y="394" type="curve" smooth="yes"/>
      <point x="254" y="394"/>
      <point x="274" y="392"/>
      <point x="298" y="391" type="curve" smooth="yes"/>
      <point x="309" y="391"/>
      <point x="319" y="399"/>
      <point x="319" y="410" type="curve" smooth="yes"/>
      <point x="319" y="421"/>
      <point x="311" y="431"/>
      <point x="300" y="431" type="curve" smooth="yes"/>
      <point x="276" y="432"/>
      <point x="254" y="434"/>
      <point x="233" y="434" type="curve" smooth="yes"/>
      <point x="173" y="434"/>
      <point x="137" y="418"/>
      <point x="111" y="395" type="curve" smooth="yes"/>
      <point x="90" y="375"/>
      <point x="85" y="357"/>
      <point x="85" y="332" type="curve" smooth="yes"/>
      <point x="85" y="300"/>
      <point x="107" y="255"/>
      <point x="173" y="255" type="curve" smooth="yes"/>
    </contour>
  </outline>
</glyph>
<glyph name="guillemotleft" format="1">
  <advance width="430"/>
  <unicode hex="00AB"/>
  <outline>
    <contour>
      <point x="376" y="21"/>
      <point x="378" y="34"/>
      <point x="371" y="43" type="curve" smooth="yes"/>
      <point x="254" y="201" type="line" smooth="yes"/>
      <point x="248" y="210"/>
      <point x="235" y="212"/>
      <point x="226" y="205" type="curve" smooth="yes"/>
      <point x="217" y="199"/>
      <point x="215" y="186"/>
      <point x="222" y="177" type="curve" smooth="yes"/>
      <point x="339" y="19" type="line" smooth="yes"/>
      <point x="345" y="10"/>
      <point x="358" y="8"/>
      <point x="367" y="15" type="curve" smooth="yes"/>
    </contour>
    <contour>
      <point x="197" y="21"/>
      <point x="199" y="34"/>
      <point x="192" y="43" type="curve" smooth="yes"/>
      <point x="76" y="201" type="line" smooth="yes"/>
      <point x="70" y="210"/>
      <point x="57" y="212"/>
      <point x="48" y="205" type="curve" smooth="yes"/>
      <point x="39" y="199"/>
      <point x="37" y="186"/>
      <point x="44" y="177" type="curve" smooth="yes"/>
      <point x="160" y="19" type="line" smooth="yes"/>
      <point x="166" y="10"/>
      <point x="179" y="8"/>
      <point x="188" y="15" type="curve" smooth="yes"/>
    </contour>
    <contour>
      <point x="57" y="171"/>
      <point x="70" y="173"/>
      <point x="76" y="182" type="curve" smooth="yes"/>
      <point x="192" y="340" type="line" smooth="yes"/>
      <point x="199" y="349"/>
      <point x="197" y="362"/>
      <point x="188" y="368" type="curve" smooth="yes"/>
      <point x="179" y="375"/>
      <point x="166" y="373"/>
      <point x="160" y="364" type="curve" smooth="yes"/>
      <point x="44" y="206" type="line" smooth="yes"/>
      <point x="37" y="197"/>
      <point x="39" y="184"/>
      <point x="48" y="178" type="curve" smooth="yes"/>
    </contour>
    <contour>
      <point x="235" y="171"/>
      <point x="248" y="173"/>
      <point x="254" y="182" type="curve" smooth="yes"/>
      <point x="371" y="340" type="line" smooth="yes"/>
      <point x="378" y="349"/>
      <point x="376" y="362"/>
      <point x="367" y="368" type="curve" smooth="yes"/>
      <point x="358" y="375"/>
      <point x="345" y="373"/>
      <point x="339" y="364" type="curve" smooth="yes"/>
      <point x="222" y="206" type="line" smooth="yes"/>
      <point x="215" y="197"/>
      <point x="217" y="184"/>
      <point x="226" y="178" type="curve" smooth="yes"/>
    </contour>
  </outline>
</glyph>
<glyph name="logicalnot" format="1">
  <advance width="475"/>
  <unicode hex="00AC"/>
  <outline>
    <contour>
      <point x="376" y="232" type="line" smooth="yes"/>
      <point x="387" y="232"/>
      <point x="396" y="241"/>
      <point x="396" y="252" type="curve" smooth="yes"/>
      <point x="396" y="263"/>
      <point x="387" y="272"/>
      <point x="376" y="272" type="curve" smooth="yes"/>
      <point x="99" y="272" type="line" smooth="yes"/>
      <point x="88" y="272"/>
      <point x="79" y="263"/>
      <point x="79" y="252" type="curve" smooth="yes"/>
      <point x="79" y="241"/>
      <point x="88" y="232"/>
      <point x="99" y="232" type="curve" smooth="yes"/>
    </contour>
    <contour>
      <point x="387" y="119"/>
      <point x="396" y="128"/>
      <point x="396" y="139" type="curve" smooth="yes"/>
      <point x="396" y="245" type="line" smooth="yes"/>
      <point x="396" y="256"/>
      <point x="387" y="265"/>
      <point x="376" y="265" type="curve" smooth="yes"/>
      <point x="365" y="265"/>
      <point x="356" y="256"/>
      <point x="356" y="245" type="curve" smooth="yes"/>
      <point x="356" y="139" type="line" smooth="yes"/>
      <point x="356" y="128"/>
      <point x="365" y="119"/>
      <point x="376" y="119" type="curve" smooth="yes"/>
    </contour>
  </outline>
</glyph>
<glyph name="guillemotright" format="1">
  <advance width="430"/>
  <unicode hex="00BB"/>
  <outline>
    <contour>
      <point x="72" y="8"/>
      <point x="85" y="10"/>
      <point x="91" y="19" type="curve" smooth="yes"/>
      <point x="208" y="177" type="line" smooth="yes"/>
      <point x="215" y="186"/>
      <point x="213" y="199"/>
      <point x="204" y="205" type="curve" smooth="yes"/>
      <point x="195" y="212"/>
      <point x="182" y="210"/>
      <point x="176" y="201" type="curve" smooth="yes"/>
      <point x="59" y="43" type="line" smooth="yes"/>
      <point x="52" y="34"/>
      <point x="54" y="21"/>
      <point x="63" y="15" type="curve" smooth="yes"/>
    </contour>
    <contour>
      <point x="213" y="184"/>
      <point x="215" y="197"/>
      <point x="208" y="206" type="curve" smooth="yes"/>
      <point x="91" y="364" type="line" smooth="yes"/>
      <point x="85" y="373"/>
      <point x="72" y="375"/>
      <point x="63" y="368" type="curve" smooth="yes"/>
      <point x="54" y="362"/>
      <point x="52" y="349"/>
      <point x="59" y="340" type="curve" smooth="yes"/>
      <point x="176" y="182" type="line" smooth="yes"/>
      <point x="182" y="173"/>
      <point x="195" y="171"/>
      <point x="204" y="178" type="curve" smooth="yes"/>
    </contour>
    <contour>
      <point x="251" y="8"/>
      <point x="264" y="10"/>
      <point x="270" y="19" type="curve" smooth="yes"/>
      <point x="386" y="177" type="line" smooth="yes"/>
      <point x="393" y="186"/>
      <point x="391" y="199"/>
      <point x="382" y="205" type="curve" smooth="yes"/>
      <point x="373" y="212"/>
      <point x="360" y="210"/>
      <point x="354" y="201" type="curve" smooth="yes"/>
      <point x="238" y="43" type="line" smooth="yes"/>
      <point x="231" y="34"/>
      <point x="233" y="21"/>
      <point x="242" y="15" type="curve" smooth="yes"/>
    </contour>
    <contour>
      <point x="391" y="184"/>
      <point x="393" y="197"/>
      <point x="386" y="206" type="curve" smooth="yes"/>
      <point x="270" y="364" type="line" smooth="yes"/>
      <point x="264" y="373"/>
      <point x="251" y="375"/>
      <point x="242" y="368" type="curve" smooth="yes"/>
      <point x="233" y="362"/>
      <point x="231" y="349"/>
      <point x="238" y="340" type="curve" smooth="yes"/>
      <point x="354" y="182" type="line" smooth="yes"/>
      <point x="360" y="173"/>
      <point x="373" y="171"/>
      <point x="382" y="178" type="curve" smooth="yes"/>
    </contour>
  </outline>
</glyph>
<glyph name="onehalf" format="1">
  <advance width="789"/>
  <unicode hex="00BD"/>
  <outline>
    <contour>
      <point x="203" y="-12"/>
      <point x="216" y="-8"/>
      <point x="221" y="1" type="curve" smooth="yes"/>
      <point x="519" y="510" type="line" smooth="yes"/>
      <point x="525" y="519"/>
      <point x="521" y="532"/>
      <point x="512" y="537" type="curve" smooth="yes"/>
      <point x="503" y="543"/>
      <point x="490" y="539"/>
      <point x="485" y="530" type="curve" smooth="yes"/>
      <point x="187" y="21" type="line" smooth="yes"/>
      <point x="181" y="12"/>
      <point x="185" y="-1"/>
      <point x="194" y="-6" type="curve" smooth="yes"/>
    </contour>
    <contour>
      <point x="208" y="236"/>
      <point x="217" y="245"/>
      <point x="217" y="256" type="curve" smooth="yes"/>
      <point x="217" y="527" type="line" smooth="yes"/>
      <point x="217" y="538"/>
      <point x="208" y="547"/>
      <point x="197" y="547" type="curve" smooth="yes"/>
      <point x="186" y="547"/>
      <point x="177" y="538"/>
      <point x="177" y="527" type="curve" smooth="yes"/>
      <point x="177" y="256" type="line" smooth="yes"/>
      <point x="177" y="245"/>
      <point x="186" y="236"/>
      <point x="197" y="236" type="curve" smooth="yes"/>
    </contour>
    <contour>
      <point x="673" y="-9" type="line" smooth="yes"/>
      <point x="684" y="-9"/>
      <point x="693" y="0"/>
      <point x="693" y="11" type="curve" smooth="yes"/>
      <point x="693" y="22"/>
      <point x="684" y="31"/>
      <point x="673" y="31" type="curve" smooth="yes"/>
      <point x="474" y="31" type="line" smooth="yes"/>
      <point x="463" y="31"/>
      <point x="454" y="22"/>
      <point x="454" y="11" type="curve" smooth="yes"/>
      <point x="454" y="0"/>
      <point x="463" y="-9"/>
      <point x="474" y="-9" type="curve" smooth="yes"/>
    </contour>
    <contour>
      <point x="206" y="512" type="line" smooth="yes"/>
      <point x="216" y="517"/>
      <point x="220" y="530"/>
      <point x="215" y="539" type="curve" smooth="yes"/>
      <point x="210" y="549"/>
      <point x="197" y="553"/>
      <point x="188" y="548" type="curve" smooth="yes"/>
      <point x="102" y="502" type="line" smooth="yes"/>
      <point x="92" y="497"/>
      <point x="88" y="484"/>
      <point x="93" y="475" type="curve" smooth="yes"/>
      <point x="98" y="465"/>
      <point x="111" y="461"/>
      <point x="120" y="466" type="curve" smooth="yes"/>
    </contour>
    <contour>
      <point x="587" y="88" type="line" smooth="yes"/>
      <point x="656" y="154"/>
      <point x="673" y="179"/>
      <point x="673" y="217" type="curve" smooth="yes"/>
      <point x="673" y="257"/>
      <point x="645" y="299"/>
      <point x="574" y="299" type="curve" smooth="yes"/>
      <point x="540" y="299"/>
      <point x="512" y="290"/>
      <point x="482" y="271" type="curve" smooth="yes"/>
      <point x="473" y="265"/>
      <point x="470" y="252"/>
      <point x="476" y="243" type="curve" smooth="yes"/>
      <point x="482" y="234"/>
      <point x="495" y="231"/>
      <point x="504" y="237" type="curve" smooth="yes"/>
      <point x="526" y="252"/>
      <point x="548" y="259"/>
      <point x="574" y="259" type="curve" smooth="yes"/>
      <point x="611" y="259"/>
      <point x="633" y="241"/>
      <point x="633" y="217" type="curve" smooth="yes"/>
      <point x="633" y="187"/>
      <point x="612" y="168"/>
      <point x="559" y="118" type="curve" smooth="yes"/>
      <point x="466" y="31" type="line" smooth="yes"/>
      <point x="458" y="23"/>
      <point x="458" y="10"/>
      <point x="465" y="2" type="curve" smooth="yes"/>
      <point x="473" y="-6"/>
      <point x="486" y="-6"/>
      <point x="494" y="1" type="curve" smooth="yes"/>
    </contour>
  </outline>
</glyph>
<glyph name="eth" format="1">
  <advance width="498"/>
  <unicode hex="00F0"/>
  <outline>
    <contour>
      <point x="361" y="-14"/>
      <point x="438" y="66"/>
      <point x="438" y="209" type="curve" smooth="yes"/>
      <point x="438" y="320"/>
      <point x="389" y="433"/>
      <point x="227" y="567" type="curve" smooth="yes"/>
      <point x="218" y="574"/>
      <point x="206" y="573"/>
      <point x="199" y="565" type="curve" smooth="yes"/>
      <point x="192" y="556"/>
      <point x="193" y="544"/>
      <point x="201" y="537" type="curve" smooth="yes"/>
      <point x="349" y="413"/>
      <point x="398" y="312"/>
      <point x="398" y="209" type="curve" smooth="yes"/>
      <point x="398" y="94"/>
      <point x="339" y="26"/>
      <point x="238" y="26" type="curve" smooth="yes"/>
      <point x="146" y="26"/>
      <point x="90" y="88"/>
      <point x="90" y="165" type="curve" smooth="yes"/>
      <point x="90" y="252"/>
      <point x="154" y="309"/>
      <point x="239" y="309" type="curve" smooth="yes"/>
      <point x="302" y="309"/>
      <point x="364" y="280"/>
      <point x="393" y="252" type="curve" smooth="yes"/>
      <point x="401" y="245"/>
      <point x="414" y="245"/>
      <point x="422" y="253" type="curve" smooth="yes"/>
      <point x="429" y="261"/>
      <point x="429" y="274"/>
      <point x="421" y="282" type="curve" smooth="yes"/>
      <point x="386" y="314"/>
      <point x="314" y="349"/>
      <point x="239" y="349" type="curve" smooth="yes"/>
      <point x="130" y="349"/>
      <point x="50" y="276"/>
      <point x="50" y="165" type="curve" smooth="yes"/>
      <point x="50" y="68"/>
      <point x="120" y="-14"/>
      <point x="238" y="-14" type="curve" smooth="yes"/>
    </contour>
    <contour>
      <point x="371" y="526" type="line" smooth="yes"/>
      <point x="381" y="531"/>
      <point x="384" y="544"/>
      <point x="378" y="553" type="curve" smooth="yes"/>
      <point x="373" y="563"/>
      <point x="360" y="566"/>
      <point x="351" y="560" type="curve" smooth="yes"/>
      <point x="179" y="456" type="line" smooth="yes"/>
      <point x="169" y="451"/>
      <point x="166" y="438"/>
      <point x="172" y="429" type="curve" smooth="yes"/>
      <point x="177" y="419"/>
      <point x="190" y="416"/>
      <point x="199" y="422" type="curve" smooth="yes"/>
    </contour>
  </outline>
</glyph>
<glyph name="divide" format="1">
  <advance width="527"/>
  <unicode hex="00F7"/>
  <outline>
    <contour>
      <point x="440" y="247" type="line" smooth="yes"/>
      <point x="451" y="247"/>
      <point x="460" y="256"/>
      <point x="460" y="267" type="curve" smooth="yes"/>
      <point x="460" y="278"/>
      <point x="451" y="287"/>
      <point x="440" y="287" type="curve" smooth="yes"/>
      <point x="86" y="287" type="line" smooth="yes"/>
      <point x="75" y="287"/>
      <point x="66" y="278"/>
      <point x="66" y="267" type="curve" smooth="yes"/>
      <point x="66" y="256"/>
      <point x="75" y="247"/>
      <point x="86" y="247" type="curve" smooth="yes"/>
    </contour>
    <contour>
      <point x="289" y="62"/>
      <point x="303" y="77"/>
      <point x="303" y="107" type="curve" smooth="yes"/>
      <point x="303" y="134"/>
      <point x="288" y="153"/>
      <point x="265" y="153" type="curve" smooth="yes"/>
      <point x="242" y="153"/>
      <point x="228" y="135"/>
      <point x="228" y="107" type="curve" smooth="yes"/>
      <point x="228" y="77"/>
      <point x="246" y="62"/>
      <point x="266" y="62" type="curve" smooth="yes"/>
    </contour>
    <contour>
      <point x="289" y="378"/>
      <point x="303" y="391"/>
      <point x="303" y="424" type="curve" smooth="yes"/>
      <point x="303" y="449"/>
      <point x="288" y="469"/>
      <point x="265" y="469" type="curve" smooth="yes"/>
      <point x="242" y="469"/>
      <point x="228" y="450"/>
      <point x="228" y="424" type="curve" smooth="yes"/>
      <point x="228" y="392"/>
      <point x="247" y="378"/>
      <point x="266" y="378" type="curve" smooth="yes"/>
    </contour>
  </outline>
</glyph>
<glyph name="oslash" format="1">
  <advance width="515"/>
  <unicode hex="00F8"/>
  <outline>
    <contour>
      <point x="379" y="-10"/>
      <point x="457" y="77"/>
      <point x="457" y="189" type="curve" smooth="yes"/>
      <point x="457" y="304"/>
      <point x="379" y="398"/>
      <point x="254" y="398" type="curve" smooth="yes"/>
      <point x="129" y="398"/>
      <point x="52" y="304"/>
      <point x="52" y="191" type="curve" smooth="yes"/>
      <point x="52" y="78"/>
      <point x="131" y="-10"/>
      <point x="254" y="-10" type="curve" smooth="yes"/>
    </contour>
    <contour>
      <point x="71" y="-8"/>
      <point x="84" y="-8"/>
      <point x="91" y="0" type="curve" smooth="yes"/>
      <point x="449" y="360" type="line" smooth="yes"/>
      <point x="457" y="368"/>
      <point x="457" y="381"/>
      <point x="449" y="388" type="curve" smooth="yes"/>
      <point x="441" y="396"/>
      <point x="428" y="396"/>
      <point x="421" y="388" type="curve" smooth="yes"/>
      <point x="63" y="28" type="line" smooth="yes"/>
      <point x="55" y="20"/>
      <point x="55" y="7"/>
      <point x="63" y="0" type="curve" smooth="yes"/>
    </contour>
    <contour>
      <point x="155" y="30"/>
      <point x="92" y="100"/>
      <point x="92" y="191" type="curve" smooth="yes"/>
      <point x="92" y="282"/>
      <point x="153" y="358"/>
      <point x="254" y="358" type="curve" smooth="yes"/>
      <point x="355" y="358"/>
      <point x="417" y="282"/>
      <point x="417" y="189" type="curve" smooth="yes"/>
      <point x="417" y="99"/>
      <point x="353" y="30"/>
      <point x="254" y="30" type="curve" smooth="yes"/>
    </contour>
  </outline>
</glyph>
<glyph name="Iogonek" format="1">
  <advance width="239"/>
  <unicode hex="012E"/>
  <outline>
    <contour>
      <point x="166" y="-219"/>
      <point x="175" y="-210"/>
      <point x="175" y="-199" type="curve" smooth="yes"/>
      <point x="175" y="-188"/>
      <point x="166" y="-180"/>
      <point x="155" y="-180" type="curve" smooth="yes"/>
      <point x="96" y="-180"/>
      <point x="51" y="-166"/>
      <point x="51" y="-136" type="curve" smooth="yes"/>
      <point x="51" y="-110"/>
      <point x="68" y="-85"/>
      <point x="132" y="-19" type="curve" smooth="yes"/>
      <point x="136" y="-15"/>
      <point x="139" y="-9"/>
      <point x="139" y="-4" type="curve" smooth="yes"/>
      <point x="139" y="32" type="line" smooth="yes"/>
      <point x="139" y="43"/>
      <point x="130" y="52"/>
      <point x="119" y="52" type="curve" smooth="yes"/>
      <point x="108" y="52"/>
      <point x="99" y="43"/>
      <point x="99" y="32" type="curve" smooth="yes"/>
      <point x="99" y="-4" type="line"/>
      <point x="106" y="9" type="line"/>
      <point x="26" y="-73"/>
      <point x="11" y="-104"/>
      <point x="11" y="-136" type="curve" smooth="yes"/>
      <point x="11" y="-178"/>
      <point x="47" y="-219"/>
      <point x="155" y="-219" type="curve" smooth="yes"/>
    </contour>
    <contour>
      <point x="130" y="-9"/>
      <point x="139" y="0"/>
      <point x="139" y="11" type="curve" smooth="yes"/>
      <point x="139" y="520" type="line" smooth="yes"/>
      <point x="139" y="531"/>
      <point x="130" y="540"/>
      <point x="119" y="540" type="curve" smooth="yes"/>
      <point x="108" y="540"/>
      <point x="99" y="531"/>
      <point x="99" y="520" type="curve" smooth="yes"/>
      <point x="99" y="11" type="line" smooth="yes"/>
      <point x="99" y="0"/>
      <point x="108" y="-9"/>
      <point x="119" y="-9" type="curve" smooth="yes"/>
    </contour>
    <contour>
      <point x="120" y="27" type="move" name="_ogonek"/>
    </contour>
  </outline>
</glyph>
<glyph name="iogonek" format="1">
  <advance width="187"/>
  <unicode hex="012F"/>
  <outline>
    <contour>
      <point x="140" y="-219"/>
      <point x="149" y="-210"/>
      <point x="149" y="-199" type="curve" smooth="yes"/>
      <point x="149" y="-188"/>
      <point x="140" y="-180"/>
      <point x="129" y="-180" type="curve" smooth="yes"/>
      <point x="70" y="-180"/>
      <point x="25" y="-166"/>
      <point x="25" y="-136" type="curve" smooth="yes"/>
      <point x="25" y="-110"/>
      <point x="41" y="-85"/>
      <point x="106" y="-19" type="curve" smooth="yes"/>
      <point x="110" y="-15"/>
      <point x="113" y="-9"/>
      <point x="113" y="-4" type="curve" smooth="yes"/>
      <point x="113" y="32" type="line" smooth="yes"/>
      <point x="113" y="43"/>
      <point x="104" y="52"/>
      <point x="93" y="52" type="curve" smooth="yes"/>
      <point x="82" y="52"/>
      <point x="73" y="43"/>
      <point x="73" y="32" type="curve" smooth="yes"/>
      <point x="73" y="-4" type="line"/>
      <point x="80" y="11" type="line"/>
      <point x="0" y="-71"/>
      <point x="-15" y="-104"/>
      <point x="-15" y="-136" type="curve" smooth="yes"/>
      <point x="-15" y="-178"/>
      <point x="21" y="-219"/>
      <point x="129" y="-219" type="curve" smooth="yes"/>
    </contour>
    <contour>
      <point x="104" y="-6"/>
      <point x="113" y="3"/>
      <point x="113" y="14" type="curve" smooth="yes"/>
      <point x="113" y="374" type="line" smooth="yes"/>
      <point x="113" y="385"/>
      <point x="104" y="394"/>
      <point x="93" y="394" type="curve" smooth="yes"/>
      <point x="82" y="394"/>
      <point x="73" y="385"/>
      <point x="73" y="374" type="curve" smooth="yes"/>
      <point x="73" y="14" type="line" smooth="yes"/>
      <point x="73" y="3"/>
      <point x="82" y="-6"/>
      <point x="93" y="-6" type="curve" smooth="yes"/>
    </contour>
    <contour>
      <point x="114" y="501"/>
      <point x="132" y="516"/>
      <point x="132" y="546" type="curve" smooth="yes"/>
      <point x="132" y="576"/>
      <point x="113" y="593"/>
      <point x="94" y="593" type="curve" smooth="yes"/>
      <point x="71" y="593"/>
      <point x="54" y="574"/>
      <point x="54" y="546" type="curve" smooth="yes"/>
      <point x="54" y="518"/>
      <point x="71" y="501"/>
      <point x="94" y="501" type="curve" smooth="yes"/>
    </contour>
    <contour>
      <point x="94" y="27" type="move" name="_ogonek"/>
    </contour>
  </outline>
</glyph>
<glyph name="dotlessi" format="1">
  <advance width="187"/>
  <unicode hex="0131"/>
  <outline>
    <contour>
      <point x="104" y="-6"/>
      <point x="113" y="3"/>
      <point x="113" y="14" type="curve" smooth="yes"/>
      <point x="113" y="374" type="line" smooth="yes"/>
      <point x="113" y="385"/>
      <point x="104" y="394"/>
      <point x="93" y="394" type="curve" smooth="yes"/>
      <point x="82" y="394"/>
      <point x="73" y="385"/>
      <point x="73" y="374" type="curve" smooth="yes"/>
      <point x="73" y="14" type="line" smooth="yes"/>
      <point x="73" y="3"/>
      <point x="82" y="-6"/>
      <point x="93" y="-6" type="curve" smooth="yes"/>
    </contour>
    <contour>
      <point x="94" y="27" type="move" name="ogonek"/>
    </contour>
    <contour>
      <point x="93" y="-6" type="move" name="bottom"/>
    </contour>
    <contour>
      <point x="93" y="394" type="move" name="top"/>
    </contour>
  </outline>
</glyph>
<glyph name="Lcaron" format="1">
  <advance width="452"/>
  <unicode hex="013D"/>
  <outline>
    <contour>
      <point x="125" y="-9"/>
      <point x="134" y="0"/>
      <point x="134" y="11" type="curve" smooth="yes"/>
      <point x="134" y="520" type="line" smooth="yes"/>
      <point x="134" y="531"/>
      <point x="125" y="540"/>
      <point x="114" y="540" type="curve" smooth="yes"/>
      <point x="103" y="540"/>
      <point x="94" y="531"/>
      <point x="94" y="520" type="curve" smooth="yes"/>
      <point x="94" y="11" type="line" smooth="yes"/>
      <point x="94" y="0"/>
      <point x="103" y="-9"/>
      <point x="114" y="-9" type="curve" smooth="yes"/>
    </contour>
    <contour>
      <point x="399" y="-9" type="line" smooth="yes"/>
      <point x="410" y="-9"/>
      <point x="419" y="0"/>
      <point x="419" y="11" type="curve" smooth="yes"/>
      <point x="419" y="22"/>
      <point x="410" y="31"/>
      <point x="399" y="31" type="curve" smooth="yes"/>
      <point x="123" y="31" type="line" smooth="yes"/>
      <point x="112" y="31"/>
      <point x="103" y="22"/>
      <point x="103" y="11" type="curve" smooth="yes"/>
      <point x="103" y="0"/>
      <point x="112" y="-9"/>
      <point x="123" y="-9" type="curve" smooth="yes"/>
    </contour>
    <contour>
      <point x="309" y="367"/>
      <point x="319" y="374"/>
      <point x="321" y="385" type="curve" smooth="yes"/>
      <point x="342" y="530" type="line" smooth="yes"/>
      <point x="343" y="541"/>
      <point x="336" y="551"/>
      <point x="325" y="553" type="curve" smooth="yes"/>
      <point x="314" y="554"/>
      <point x="304" y="547"/>
      <point x="302" y="536" type="curve" smooth="yes"/>
      <point x="281" y="391" type="line" smooth="yes"/>
      <point x="280" y="380"/>
      <point x="287" y="370"/>
      <point x="298" y="368" type="curve" smooth="yes"/>
    </contour>
  </outline>
</glyph>
<glyph name="tbar" format="1">
  <advance width="343"/>
  <unicode hex="0167"/>
  <outline>
    <contour>
      <point x="288" y="-9"/>
      <point x="298" y="0"/>
      <point x="298" y="11" type="curve" smooth="yes"/>
      <point x="298" y="21"/>
      <point x="289" y="31"/>
      <point x="278" y="31" type="curve" smooth="yes"/>
      <point x="190" y="33"/>
      <point x="146" y="66"/>
      <point x="146" y="134" type="curve" smooth="yes"/>
      <point x="146" y="503" type="line" smooth="yes"/>
      <point x="146" y="514"/>
      <point x="137" y="523"/>
      <point x="126" y="523" type="curve" smooth="yes"/>
      <point x="115" y="523"/>
      <point x="106" y="514"/>
      <point x="106" y="503" type="curve" smooth="yes"/>
      <point x="106" y="134" type="line" smooth="yes"/>
      <point x="106" y="46"/>
      <point x="154" y="-7"/>
      <point x="278" y="-9" type="curve" smooth="yes"/>
    </contour>
    <contour>
      <point x="293" y="235" type="line" smooth="yes"/>
      <point x="304" y="235"/>
      <point x="313" y="244"/>
      <point x="313" y="255" type="curve" smooth="yes"/>
      <point x="313" y="266"/>
      <point x="304" y="275"/>
      <point x="293" y="275" type="curve" smooth="yes"/>
      <point x="39" y="275" type="line" smooth="yes"/>
      <point x="28" y="275"/>
      <point x="19" y="266"/>
      <point x="19" y="255" type="curve" smooth="yes"/>
      <point x="19" y="244"/>
      <point x="28" y="235"/>
      <point x="39" y="235" type="curve" smooth="yes"/>
    </contour>
    <contour>
      <point x="292" y="350" type="line" smooth="yes"/>
      <point x="303" y="350"/>
      <point x="312" y="359"/>
      <point x="312" y="370" type="curve" smooth="yes"/>
      <point x="312" y="381"/>
      <point x="303" y="390"/>
      <point x="292" y="390" type="curve" smooth="yes"/>
      <point x="33" y="390" type="line" smooth="yes"/>
      <point x="22" y="390"/>
      <point x="13" y="381"/>
      <point x="13" y="370" type="curve" smooth="yes"/>
      <point x="13" y="359"/>
      <point x="22" y="350"/>
      <point x="33" y="350" type="curve" smooth="yes"/>
    </contour>
  </outline>
</glyph>
<glyph name="gravecomb" format="1">
  <advance width="0"/>
  <unicode hex="0300"/>
  <outline>
    <contour>
      <point x="11" y="488"/>
      <point x="14" y="501"/>
      <point x="8" y="510" type="curve" smooth="yes"/>
      <point x="-19" y="551"/>
      <point x="-37" y="574"/>
      <point x="-65" y="610" type="curve" smooth="yes"/>
      <point x="-72" y="619"/>
      <point x="-85" y="620"/>
      <point x="-93" y="614" type="curve" smooth="yes"/>
      <point x="-102" y="607"/>
      <point x="-103" y="594"/>
      <point x="-97" y="586" type="curve" smooth="yes"/>
      <point x="-69" y="550"/>
      <point x="-51" y="529"/>
      <point x="-26" y="488" type="curve" smooth="yes"/>
      <point x="-20" y="479"/>
      <point x="-7" y="476"/>
      <point x="2" y="482" type="curve" smooth="yes"/>
    </contour>
    <contour>
      <point x="0" y="394" type="move" name="_top"/>
    </contour>
  </outline>
</glyph>
<glyph name="acutecomb" format="1">
  <advance width="0"/>
  <unicode hex="0301"/>
  <outline>
    <contour>
      <point x="-14" y="479"/>
      <point x="-1" y="480"/>
      <point x="6" y="488" type="curve" smooth="yes"/>
      <point x="34" y="520"/>
      <point x="62" y="554"/>
      <point x="91" y="586" type="curve" smooth="yes"/>
      <point x="98" y="594"/>
      <point x="97" y="607"/>
      <point x="89" y="614" type="curve" smooth="yes"/>
      <point x="81" y="621"/>
      <point x="68" y="620"/>
      <point x="61" y="612" type="curve" smooth="yes"/>
      <point x="32" y="580"/>
      <point x="4" y="546"/>
      <point x="-24" y="514" type="curve" smooth="yes"/>
      <point x="-31" y="506"/>
      <point x="-30" y="493"/>
      <point x="-22" y="486" type="curve" smooth="yes"/>
    </contour>
    <contour>
      <point x="0" y="394" type="move" name="_top"/>
    </contour>
  </outline>
</glyph>
<glyph name="tildecomb" format="1">
  <advance width="0"/>
  <unicode hex="0303"/>
  <outline>
    <contour>
      <point x="81" y="495"/>
      <point x="104" y="514"/>
      <point x="131" y="554" type="curve" smooth="yes"/>
      <point x="137" y="563"/>
      <point x="134" y="576"/>
      <point x="125" y="582" type="curve" smooth="yes"/>
      <point x="116" y="588"/>
      <point x="103" y="585"/>
      <point x="97" y="576" type="curve" smooth="yes"/>
      <point x="82" y="554"/>
      <point x="71" y="535"/>
      <point x="54" y="535" type="curve" smooth="yes"/>
      <point x="41" y="535"/>
      <point x="27" y="545"/>
      <point x="11" y="557" type="curve" smooth="yes"/>
      <point x="-18" y="579"/>
      <point x="-32" y="589"/>
      <point x="-55" y="589" type="curve" smooth="yes"/>
      <point x="-80" y="589"/>
      <point x="-109" y="567"/>
      <point x="-134" y="530" type="curve" smooth="yes"/>
      <point x="-141" y="521"/>
      <point x="-138" y="509"/>
      <point x="-129" y="503" type="curve" smooth="yes"/>
      <point x="-120" y="496"/>
      <point x="-108" y="499"/>
      <point x="-102" y="508" type="curve" smooth="yes"/>
      <point x="-87" y="529"/>
      <point x="-72" y="549"/>
      <point x="-55" y="549" type="curve" smooth="yes"/>
      <point x="-42" y="549"/>
      <point x="-31" y="539"/>
      <point x="-12" y="525" type="curve" smooth="yes"/>
      <point x="13" y="506"/>
      <point x="32" y="495"/>
      <point x="54" y="495" type="curve" smooth="yes"/>
    </contour>
    <contour>
      <point x="0" y="394" type="move" name="_top"/>
    </contour>
  </outline>
</glyph>
<glyph name="uni0308" format="1">
  <advance width="0"/>
  <unicode hex="0308"/>
  <outline>
    <contour>
      <point x="112" y="496"/>
      <point x="129" y="511"/>
      <point x="129" y="541" type="curve" smooth="yes"/>
      <point x="129" y="571"/>
      <point x="111" y="588"/>
      <point x="92" y="588" type="curve" smooth="yes"/>
      <point x="73" y="588"/>
      <point x="55" y="571"/>
      <point x="55" y="541" type="curve" smooth="yes"/>
      <point x="55" y="511"/>
      <point x="72" y="496"/>
      <point x="92" y="496" type="curve" smooth="yes"/>
    </contour>
    <contour>
      <point x="-76" y="496"/>
      <point x="-58" y="510"/>
      <point x="-58" y="541" type="curve" smooth="yes"/>
      <point x="-58" y="573"/>
      <point x="-77" y="588"/>
      <point x="-94" y="588" type="curve" smooth="yes"/>
      <point x="-115" y="588"/>
      <point x="-132" y="571"/>
      <point x="-132" y="541" type="curve" smooth="yes"/>
      <point x="-132" y="511"/>
      <point x="-116" y="496"/>
      <point x="-94" y="496" type="curve" smooth="yes"/>
    </contour>
    <contour>
      <point x="0" y="394" type="move" name="_top"/>
    </contour>
  </outline>
</glyph>
<glyph name="uni030A" format="1">
  <advance width="0"/>
  <unicode hex="030A"/>
  <outline>
    <contour>
      <point x="66" y="454"/>
      <point x="104" y="501"/>
      <point x="104" y="551" type="curve" smooth="yes"/>
      <point x="104" y="601"/>
      <point x="66" y="648"/>
      <point x="0" y="648" type="curve" smooth="yes"/>
      <point x="-64" y="648"/>
      <point x="-102" y="598"/>
      <point x="-102" y="551" type="curve" smooth="yes"/>
      <point x="-102" y="501"/>
      <point x="-64" y="454"/>
      <point x="0" y="454" type="curve" smooth="yes"/>
    </contour>
    <contour>
      <point x="-38" y="494"/>
      <point x="-62" y="520"/>
      <point x="-62" y="551" type="curve" smooth="yes"/>
      <point x="-62" y="580"/>
      <point x="-38" y="608"/>
      <point x="0" y="608" type="curve" smooth="yes"/>
      <point x="38" y="608"/>
      <point x="64" y="581"/>
      <point x="64" y="551" type="curve" smooth="yes"/>
      <point x="64" y="518"/>
      <point x="38" y="494"/>
      <point x="0" y="494" type="curve" smooth="yes"/>
    </contour>
    <contour>
      <point x="0" y="394" type="move" name="_top"/>
    </contour>
  </outline>
</glyph>
<glyph name="uni030C" format="1">
  <advance width="0"/>
  <unicode hex="030C"/>
  <outline>
    <contour>
      <point x="-8" y="477"/>
      <point x="6" y="477"/>
      <point x="13" y="485" type="curve" smooth="yes"/>
      <point x="37" y="509"/>
      <point x="76" y="549"/>
      <point x="104" y="576" type="curve" smooth="yes"/>
      <point x="112" y="583"/>
      <point x="112" y="596"/>
      <point x="104" y="604" type="curve" smooth="yes"/>
      <point x="97" y="612"/>
      <point x="84" y="612"/>
      <point x="76" y="604" type="curve" smooth="yes"/>
      <point x="48" y="577"/>
      <point x="9" y="537"/>
      <point x="-15" y="513" type="curve" smooth="yes"/>
      <point x="-23" y="506"/>
      <point x="-23" y="492"/>
      <point x="-15" y="485" type="curve" smooth="yes"/>
    </contour>
    <contour>
      <point x="-14" y="477"/>
      <point x="0" y="477"/>
      <point x="7" y="485" type="curve" smooth="yes"/>
      <point x="15" y="492"/>
      <point x="15" y="506"/>
      <point x="7" y="513" type="curve" smooth="yes"/>
      <point x="-18" y="538"/>
      <point x="-56" y="577"/>
      <point x="-83" y="604" type="curve" smooth="yes"/>
      <point x="-90" y="612"/>
      <point x="-104" y="612"/>
      <point x="-111" y="604" type="curve" smooth="yes"/>
      <point x="-119" y="597"/>
      <point x="-119" y="583"/>
      <point x="-111" y="576" type="curve" smooth="yes"/>
      <point x="-84" y="549"/>
      <point x="-46" y="510"/>
      <point x="-21" y="485" type="curve" smooth="yes"/>
    </contour>
    <contour>
      <point x="0" y="394" type="move" name="_top"/>
    </contour>
  </outline>
</glyph>
<glyph name="uni0326" format="1">
  <advance width="0"/>
  <unicode hex="0326"/>
  <outline>
    <contour>
      <point x="-6" y="-229"/>
      <point x="27" y="-185"/>
      <point x="27" y="-140" type="curve" smooth="yes"/>
      <point x="27" y="-123"/>
      <point x="25" y="-104"/>
      <point x="16" y="-91" type="curve" smooth="yes"/>
      <point x="10" y="-82"/>
      <point x="-3" y="-77"/>
      <point x="-12" y="-83" type="curve" smooth="yes"/>
      <point x="-21" y="-89"/>
      <point x="-26" y="-102"/>
      <point x="-20" y="-111" type="curve" smooth="yes"/>
      <point x="-15" y="-119"/>
      <point x="-13" y="-129"/>
      <point x="-13" y="-140" type="curve" smooth="yes"/>
      <point x="-13" y="-173"/>
      <point x="-41" y="-204"/>
      <point x="-82" y="-220" type="curve" smooth="yes"/>
      <point x="-92" y="-224"/>
      <point x="-96" y="-236"/>
      <point x="-92" y="-246" type="curve" smooth="yes"/>
      <point x="-88" y="-256"/>
      <point x="-75" y="-260"/>
      <point x="-66" y="-256" type="curve" smooth="yes"/>
    </contour>
    <contour>
      <point x="-1" y="0" type="move" name="_bottom"/>
    </contour>
  </outline>
</glyph>
<glyph name="uni0327" format="1">
  <advance width="0"/>
  <unicode hex="0327"/>
  <outline>
    <contour>
      <point x="-117" y="-247"/>
      <point x="-104" y="-247"/>
      <point x="-97" y="-239" type="curve" smooth="yes"/>
      <point x="-73" y="-214"/>
      <point x="-20" y="-161"/>
      <point x="9" y="-135" type="curve" smooth="yes"/>
      <point x="17" y="-127"/>
      <point x="17" y="-114"/>
      <point x="10" y="-106" type="curve" smooth="yes"/>
      <point x="2" y="-98"/>
      <point x="-11" y="-98"/>
      <point x="-19" y="-105" type="curve" smooth="yes"/>
      <point x="-48" y="-133"/>
      <point x="-101" y="-186"/>
      <point x="-125" y="-211" type="curve" smooth="yes"/>
      <point x="-133" y="-219"/>
      <point x="-133" y="-232"/>
      <point x="-125" y="-239" type="curve" smooth="yes"/>
    </contour>
    <contour>
      <point x="0" y="0" type="move" name="_bottom"/>
    </contour>
  </outline>
</glyph>
<glyph name="uni0328" format="1">
  <advance width="0"/>
  <unicode hex="0328"/>
  <outline>
    <contour>
      <point x="26" y="-246"/>
      <point x="35" y="-237"/>
      <point x="35" y="-226" type="curve" smooth="yes"/>
      <point x="35" y="-215"/>
      <point x="26" y="-207"/>
      <point x="15" y="-207" type="curve" smooth="yes"/>
      <point x="-44" y="-207"/>
      <point x="-89" y="-193"/>
      <point x="-89" y="-163" type="curve" smooth="yes"/>
      <point x="-89" y="-137"/>
      <point x="-68" y="-112"/>
      <point x="12" y="-46" type="curve" smooth="yes"/>
      <point x="16" y="-43"/>
      <point x="19" y="-36"/>
      <point x="19" y="-31" type="curve" smooth="yes"/>
      <point x="19" y="5" type="line" smooth="yes"/>
      <point x="19" y="16"/>
      <point x="10" y="25"/>
      <point x="-1" y="25" type="curve" smooth="yes"/>
      <point x="-12" y="25"/>
      <point x="-21" y="16"/>
      <point x="-21" y="5" type="curve" smooth="yes"/>
      <point x="-21" y="-31" type="line"/>
      <point x="-14" y="-16" type="line"/>
      <point x="-114" y="-98"/>
      <point x="-129" y="-131"/>
      <point x="-129" y="-163" type="curve" smooth="yes"/>
      <point x="-129" y="-205"/>
      <point x="-93" y="-246"/>
      <point x="15" y="-246" type="curve" smooth="yes"/>
    </contour>
    <contour>
      <point x="0" y="0" type="move" name="_ogonek"/>
    </contour>
  </outline>
</glyph>
<glyph name="uni0335" format="1">
  <advance width="0"/>
  <unicode hex="0335"/>
  <outline>
    <contour>
      <point x="295" y="237" type="line" smooth="yes"/>
      <point x="306" y="237"/>
      <point x="315" y="246"/>
      <point x="315" y="257" type="curve" smooth="yes"/>
      <point x="315" y="268"/>
      <point x="306" y="277"/>
      <point x="295" y="277" type="curve" smooth="yes"/>
      <point x="12" y="277" type="line" smooth="yes"/>
      <point x="1" y="277"/>
      <point x="-8" y="268"/>
      <point x="-8" y="257" type="curve" smooth="yes"/>
      <point x="-8" y="246"/>
      <point x="1" y="237"/>
      <point x="12" y="237" type="curve" smooth="yes"/>
    </contour>
  </outline>
</glyph>
<glyph name="uni0338" format="1">
  <advance width="0"/>
  <unicode hex="0338"/>
  <outline>
    <contour>
      <point x="95" y="-31"/>
      <point x="108" y="-30"/>
      <point x="115" y="-22" type="curve" smooth="yes"/>
      <point x="545" y="507" type="line" smooth="yes"/>
      <point x="552" y="515"/>
      <point x="551" y="530"/>
      <point x="542" y="536" type="curve" smooth="yes"/>
      <point x="533" y="542"/>
      <point x="520" y="541"/>
      <point x="513" y="533" type="curve" smooth="yes"/>
      <point x="83" y="4" type="line" smooth="yes"/>
      <point x="76" y="-4"/>
      <point x="77" y="-19"/>
      <point x="86" y="-25" type="curve" smooth="yes"/>
    </contour>
  </outline>
</glyph>
<glyph name="uni0985" format="1">
  <advance width="732"/>
  <unicode hex="0985"/>
  <outline>
    <contour>
      <point x="623" y="-12"/>
      <point x="632" y="-1"/>
      <point x="632" y="13" type="curve" smooth="yes"/>
      <point x="632" y="470" type="line" smooth="yes"/>
      <point x="632" y="544"/>
      <point x="639" y="554"/>
      <point x="673" y="554" type="curve" smooth="yes"/>
      <point x="732" y="554" type="line" smooth="yes"/>
      <point x="743" y="554"/>
      <point x="752" y="561"/>
      <point x="752" y="571" type="curve" smooth="yes"/>
      <point x="752" y="580"/>
      <point x="743" y="587"/>
      <point x="732" y="587" type="curve" smooth="yes"/>
      <point x="661" y="587" type="line" smooth="yes"/>
      <point x="629" y="587"/>
      <point x="594" y="569"/>
      <point x="594" y="498" type="curve"/>
      <point x="614" y="515" type="line"/>
      <point x="614" y="572"/>
      <point x="581" y="587"/>
      <point x="537" y="587" type="curve" smooth="yes"/>
      <point x="0" y="587" type="line" smooth="yes"/>
      <point x="-11" y="587"/>
      <point x="-20" y="580"/>
      <point x="-20" y="571" type="curve" smooth="yes"/>
      <point x="-20" y="561"/>
      <point x="-11" y="554"/>
      <point x="0" y="554" type="curve" smooth="yes"/>
      <point x="537" y="554" type="line" smooth="yes"/>
      <point x="587" y="554"/>
      <point x="592" y="530"/>
      <point x="592" y="477" type="curve" smooth="yes"/>
      <point x="592" y="13" type="line" smooth="yes"/>
      <point x="592" y="-1"/>
      <point x="601" y="-12"/>
      <point x="612" y="-12" type="curve" smooth="yes"/>
    </contour>
    <contour>
      <point x="425" y="107"/>
      <point x="498" y="180"/>
      <point x="498" y="282" type="curve" smooth="yes"/>
      <point x="498" y="385"/>
      <point x="424" y="472"/>
      <point x="318" y="472" type="curve" smooth="yes"/>
      <point x="261" y="472"/>
      <point x="221" y="438"/>
      <point x="221" y="390" type="curve" smooth="yes"/>
      <point x="221" y="350"/>
      <point x="253" y="313"/>
      <point x="297" y="313" type="curve" smooth="yes"/>
      <point x="339" y="313"/>
      <point x="369" y="347"/>
      <point x="369" y="386" type="curve" smooth="yes"/>
      <point x="369" y="420"/>
      <point x="345" y="447"/>
      <point x="308" y="451" type="curve"/>
      <point x="312" y="446" type="line"/>
      <point x="379" y="446"/>
      <point x="462" y="394"/>
      <point x="462" y="295" type="curve" smooth="yes"/>
      <point x="462" y="206"/>
      <point x="398" y="149"/>
      <point x="315" y="149" type="curve" smooth="yes"/>
      <point x="166" y="149"/>
      <point x="106" y="334"/>
      <point x="73" y="440" type="curve" smooth="yes"/>
      <point x="70" y="450"/>
      <point x="64" y="455"/>
      <point x="56" y="455" type="curve" smooth="yes"/>
      <point x="46" y="455"/>
      <point x="42" y="445"/>
      <point x="42" y="439" type="curve" smooth="yes"/>
      <point x="42" y="415"/>
      <point x="113" y="107"/>
      <point x="323" y="107" type="curve" smooth="yes"/>
    </contour>
    <contour>
      <point x="612" y="95" type="line"/>
      <point x="591" y="150"/>
      <point x="534" y="205"/>
      <point x="469" y="266" type="curve"/>
      <point x="453" y="220" type="line"/>
      <point x="528" y="174"/>
      <point x="592" y="108"/>
      <point x="592" y="39" type="curve"/>
    </contour>
    <contour>
      <point x="275" y="351"/>
      <point x="257" y="369"/>
      <point x="257" y="391" type="curve" smooth="yes"/>
      <point x="257" y="413"/>
      <point x="275" y="431"/>
      <point x="297" y="431" type="curve" smooth="yes"/>
      <point x="319" y="431"/>
      <point x="337" y="413"/>
      <point x="337" y="391" type="curve" smooth="yes"/>
      <point x="337" y="369"/>
      <point x="319" y="351"/>
      <point x="297" y="351" type="curve" smooth="yes"/>
    </contour>
  </outline>
</glyph>
<glyph name="uni0988" format="1">
  <advance width="538"/>
  <unicode hex="0988"/>
  <outline>
    <contour>
      <point x="485" y="24"/>
      <point x="487" y="32"/>
      <point x="487" y="37" type="curve" smooth="yes"/>
      <point x="487" y="69"/>
      <point x="415" y="156"/>
      <point x="415" y="266" type="curve" smooth="yes"/>
      <point x="415" y="389"/>
      <point x="505" y="401"/>
      <point x="505" y="434" type="curve" smooth="yes"/>
      <point x="505" y="442"/>
      <point x="499" y="451"/>
      <point x="486" y="451" type="curve" smooth="yes"/>
      <point x="444" y="451"/>
      <point x="378" y="353"/>
      <point x="319" y="276" type="curve"/>
      <point x="335" y="276" type="line"/>
      <point x="341" y="294"/>
      <point x="344" y="313"/>
      <point x="344" y="331" type="curve" smooth="yes"/>
      <point x="344" y="415"/>
      <point x="284" y="491"/>
      <point x="193" y="491" type="curve" smooth="yes"/>
      <point x="120" y="491"/>
      <point x="55" y="443"/>
      <point x="55" y="384" type="curve" smooth="yes"/>
      <point x="55" y="347"/>
      <point x="80" y="306"/>
      <point x="127" y="306" type="curve" smooth="yes"/>
      <point x="172" y="306"/>
      <point x="200" y="343"/>
      <point x="200" y="377" type="curve" smooth="yes"/>
      <point x="200" y="408"/>
      <point x="175" y="442"/>
      <point x="136" y="442" type="curve" smooth="yes"/>
      <point x="117" y="442"/>
      <point x="102" y="434"/>
      <point x="89" y="420" type="curve"/>
      <point x="102" y="420" type="line"/>
      <point x="127" y="447"/>
      <point x="156" y="459"/>
      <point x="185" y="459" type="curve" smooth="yes"/>
      <point x="249" y="459"/>
      <point x="310" y="401"/>
      <point x="310" y="316" type="curve" smooth="yes"/>
      <point x="310" y="242"/>
      <point x="239" y="168"/>
      <point x="171" y="168" type="curve" smooth="yes"/>
      <point x="130" y="168"/>
      <point x="115" y="206"/>
      <point x="97" y="206" type="curve" smooth="yes"/>
      <point x="91" y="206"/>
      <point x="81" y="201"/>
      <point x="81" y="190" type="curve" smooth="yes"/>
      <point x="81" y="167"/>
      <point x="120" y="128"/>
      <point x="176" y="128" type="curve" smooth="yes"/>
      <point x="274" y="128"/>
      <point x="351" y="248"/>
      <point x="387" y="304" type="curve"/>
      <point x="374" y="323" type="line"/>
      <point x="373" y="224"/>
      <point x="391" y="141"/>
      <point x="441" y="55" type="curve" smooth="yes"/>
      <point x="452" y="35"/>
      <point x="462" y="24"/>
      <point x="474" y="24" type="curve" smooth="yes"/>
    </contour>
    <contour>
      <point x="115" y="344"/>
      <point x="93" y="354"/>
      <point x="93" y="380" type="curve" smooth="yes"/>
      <point x="93" y="403"/>
      <point x="109" y="416"/>
      <point x="129" y="416" type="curve" smooth="yes"/>
      <point x="152" y="416"/>
      <point x="165" y="399"/>
      <point x="165" y="380" type="curve" smooth="yes"/>
      <point x="165" y="355"/>
      <point x="144" y="344"/>
      <point x="129" y="344" type="curve" smooth="yes"/>
    </contour>
    <contour>
      <point x="538" y="554" type="line" smooth="yes"/>
      <point x="549" y="554"/>
      <point x="558" y="562"/>
      <point x="558" y="571" type="curve" smooth="yes"/>
      <point x="558" y="580"/>
      <point x="549" y="587"/>
      <point x="538" y="587" type="curve" smooth="yes"/>
      <point x="0" y="587" type="line" smooth="yes"/>
      <point x="-11" y="587"/>
      <point x="-20" y="580"/>
      <point x="-20" y="571" type="curve" smooth="yes"/>
      <point x="-20" y="562"/>
      <point x="-11" y="554"/>
      <point x="0" y="554" type="curve" smooth="yes"/>
    </contour>
    <contour>
      <point x="460" y="575" type="line"/>
      <point x="460" y="700"/>
      <point x="403" y="726"/>
      <point x="321" y="726" type="curve" smooth="yes"/>
      <point x="265" y="726"/>
      <point x="225" y="714"/>
      <point x="171" y="714" type="curve" smooth="yes"/>
      <point x="73" y="714"/>
      <point x="72" y="754"/>
      <point x="71" y="799" type="curve"/>
      <point x="71" y="814"/>
      <point x="65" y="821"/>
      <point x="55" y="821" type="curve" smooth="yes"/>
      <point x="44" y="821"/>
      <point x="37" y="814"/>
      <point x="37" y="786" type="curve" smooth="yes"/>
      <point x="37" y="701"/>
      <point x="103" y="677"/>
      <point x="175" y="677" type="curve" smooth="yes"/>
      <point x="224" y="677"/>
      <point x="285" y="688"/>
      <point x="333" y="688" type="curve" smooth="yes"/>
      <point x="419" y="688"/>
      <point x="422" y="652"/>
      <point x="422" y="575" type="curve"/>
    </contour>
  </outline>
</glyph>
<glyph name="uni098A" format="1">
  <advance width="643"/>
  <unicode hex="098A"/>
  <outline>
    <contour>
      <point x="523" y="30"/>
      <point x="603" y="119"/>
      <point x="603" y="231" type="curve" smooth="yes"/>
      <point x="603" y="320"/>
      <point x="563" y="394"/>
      <point x="525" y="394" type="curve" smooth="yes"/>
      <point x="507" y="394"/>
      <point x="505" y="377"/>
      <point x="505" y="361" type="curve" smooth="yes"/>
      <point x="505" y="312"/>
      <point x="473" y="263"/>
      <point x="421" y="263" type="curve" smooth="yes"/>
      <point x="373" y="263"/>
      <point x="332" y="305"/>
      <point x="332" y="416" type="curve" smooth="yes"/>
      <point x="332" y="497"/>
      <point x="354" y="554"/>
      <point x="418" y="554" type="curve" smooth="yes"/>
      <point x="643" y="554" type="line" smooth="yes"/>
      <point x="654" y="554"/>
      <point x="663" y="562"/>
      <point x="663" y="571" type="curve" smooth="yes"/>
      <point x="663" y="580"/>
      <point x="654" y="587"/>
      <point x="643" y="587" type="curve" smooth="yes"/>
      <point x="398" y="587" type="line" smooth="yes"/>
      <point x="359" y="587"/>
      <point x="319" y="553"/>
      <point x="326" y="534" type="curve"/>
      <point x="338" y="529" type="line"/>
      <point x="335" y="569"/>
      <point x="294" y="587"/>
      <point x="246" y="587" type="curve" smooth="yes"/>
      <point x="0" y="587" type="line" smooth="yes"/>
      <point x="-11" y="587"/>
      <point x="-20" y="580"/>
      <point x="-20" y="571" type="curve" smooth="yes"/>
      <point x="-20" y="562"/>
      <point x="-11" y="554"/>
      <point x="0" y="554" type="curve" smooth="yes"/>
      <point x="240" y="554" type="line" smooth="yes"/>
      <point x="276" y="554"/>
      <point x="309" y="554"/>
      <point x="309" y="515" type="curve" smooth="yes"/>
      <point x="309" y="490"/>
      <point x="296" y="459"/>
      <point x="296" y="402" type="curve" smooth="yes"/>
      <point x="296" y="284"/>
      <point x="351" y="222"/>
      <point x="426" y="222" type="curve" smooth="yes"/>
      <point x="525" y="222"/>
      <point x="544" y="343"/>
      <point x="544" y="364" type="curve"/>
      <point x="530" y="355" type="line"/>
      <point x="560" y="319"/>
      <point x="567" y="279"/>
      <point x="567" y="244" type="curve" smooth="yes"/>
      <point x="567" y="138"/>
      <point x="493" y="79"/>
      <point x="405" y="79" type="curve" smooth="yes"/>
      <point x="256" y="79"/>
      <point x="174" y="251"/>
      <point x="174" y="458" type="curve" smooth="yes"/>
      <point x="174" y="474"/>
      <point x="171" y="485"/>
      <point x="159" y="485" type="curve" smooth="yes"/>
      <point x="142" y="485"/>
      <point x="140" y="463"/>
      <point x="140" y="426" type="curve" smooth="yes"/>
      <point x="140" y="310"/>
      <point x="171" y="193"/>
      <point x="245" y="118" type="curve"/>
      <point x="245" y="126" type="line"/>
      <point x="166" y="175"/>
      <point x="96" y="308"/>
      <point x="88" y="446" type="curve" smooth="yes"/>
      <point x="87" y="458"/>
      <point x="80" y="466"/>
      <point x="70" y="466" type="curve" smooth="yes"/>
      <point x="61" y="466"/>
      <point x="55" y="458"/>
      <point x="55" y="448" type="curve" smooth="yes"/>
      <point x="55" y="258"/>
      <point x="206" y="30"/>
      <point x="414" y="30" type="curve" smooth="yes"/>
    </contour>
    <contour>
      <point x="560" y="575" type="line"/>
      <point x="560" y="701"/>
      <point x="503" y="732"/>
      <point x="410" y="732" type="curve" smooth="yes"/>
      <point x="339" y="732"/>
      <point x="265" y="714"/>
      <point x="188" y="714" type="curve" smooth="yes"/>
      <point x="73" y="714"/>
      <point x="69" y="754"/>
      <point x="66" y="799" type="curve" smooth="yes"/>
      <point x="65" y="813"/>
      <point x="62" y="821"/>
      <point x="50" y="821" type="curve" smooth="yes"/>
      <point x="39" y="821"/>
      <point x="32" y="813"/>
      <point x="32" y="787" type="curve" smooth="yes"/>
      <point x="32" y="698"/>
      <point x="110" y="675"/>
      <point x="184" y="675" type="curve" smooth="yes"/>
      <point x="247" y="675"/>
      <point x="342" y="692"/>
      <point x="412" y="692" type="curve" smooth="yes"/>
      <point x="519" y="692"/>
      <point x="522" y="652"/>
      <point x="522" y="575" type="curve"/>
    </contour>
  </outline>
</glyph>
<glyph name="uni098C" format="1">
  <advance width="562"/>
  <unicode hex="098C"/>
  <outline>
    <contour>
      <point x="422" y="-12"/>
      <point x="523" y="110"/>
      <point x="523" y="234" type="curve" smooth="yes"/>
      <point x="523" y="531"/>
      <point x="115" y="494"/>
      <point x="98" y="662" type="curve" smooth="yes"/>
      <point x="97" y="676"/>
      <point x="93" y="693"/>
      <point x="78" y="693" type="curve" smooth="yes"/>
      <point x="67" y="693"/>
      <point x="59" y="683"/>
      <point x="59" y="661" type="curve" smooth="yes"/>
      <point x="59" y="462"/>
      <point x="489" y="504"/>
      <point x="489" y="246" type="curve" smooth="yes"/>
      <point x="489" y="133"/>
      <point x="419" y="34"/>
      <point x="307" y="17" type="curve"/>
      <point x="308" y="8" type="line"/>
      <point x="356" y="37"/>
      <point x="387" y="94"/>
      <point x="387" y="156" type="curve" smooth="yes"/>
      <point x="387" y="254"/>
      <point x="311" y="318"/>
      <point x="217" y="318" type="curve" smooth="yes"/>
      <point x="119" y="318"/>
      <point x="49" y="247"/>
      <point x="49" y="161" type="curve" smooth="yes"/>
      <point x="49" y="80"/>
      <point x="111" y="9"/>
      <point x="184" y="9" type="curve" smooth="yes"/>
      <point x="233" y="9"/>
      <point x="261" y="42"/>
      <point x="261" y="79" type="curve" smooth="yes"/>
      <point x="261" y="114"/>
      <point x="236" y="146"/>
      <point x="194" y="146" type="curve" smooth="yes"/>
      <point x="151" y="146"/>
      <point x="124" y="116"/>
      <point x="124" y="80" type="curve" smooth="yes"/>
      <point x="124" y="61"/>
      <point x="136" y="39"/>
      <point x="153" y="27" type="curve"/>
      <point x="156" y="38" type="line"/>
      <point x="114" y="54"/>
      <point x="88" y="103"/>
      <point x="88" y="151" type="curve" smooth="yes"/>
      <point x="88" y="212"/>
      <point x="129" y="284"/>
      <point x="217" y="284" type="curve" smooth="yes"/>
      <point x="299" y="284"/>
      <point x="343" y="222"/>
      <point x="343" y="161" type="curve" smooth="yes"/>
      <point x="343" y="66"/>
      <point x="285" y="37"/>
      <point x="285" y="12" type="curve" smooth="yes"/>
      <point x="285" y="0"/>
      <point x="293" y="-12"/>
      <point x="322" y="-12" type="curve" smooth="yes"/>
    </contour>
    <contour>
      <point x="171" y="39"/>
      <point x="156" y="54"/>
      <point x="156" y="74" type="curve" smooth="yes"/>
      <point x="156" y="94"/>
      <point x="171" y="109"/>
      <point x="191" y="109" type="curve" smooth="yes"/>
      <point x="211" y="109"/>
      <point x="226" y="94"/>
      <point x="226" y="74" type="curve" smooth="yes"/>
      <point x="226" y="54"/>
      <point x="211" y="39"/>
      <point x="191" y="39" type="curve" smooth="yes"/>
    </contour>
  </outline>
</glyph>
<glyph name="uni0990" format="1">
  <advance width="700"/>
  <unicode hex="0990"/>
  <outline>
    <contour>
      <point x="497" y="292" type="line"/>
      <point x="558" y="292"/>
      <point x="666" y="369"/>
      <point x="666" y="491" type="curve" smooth="yes"/>
      <point x="666" y="644"/>
      <point x="541" y="685"/>
      <point x="408" y="739" type="curve" smooth="yes"/>
      <point x="334" y="769"/>
      <point x="297" y="806"/>
      <point x="297" y="858" type="curve" smooth="yes"/>
      <point x="297" y="876"/>
      <point x="294" y="893"/>
      <point x="280" y="893" type="curve" smooth="yes"/>
      <point x="264" y="893"/>
      <point x="261" y="876"/>
      <point x="261" y="858" type="curve" smooth="yes"/>
      <point x="261" y="783"/>
      <point x="312" y="741"/>
      <point x="406" y="699" type="curve" smooth="yes"/>
      <point x="509" y="654"/>
      <point x="631" y="622"/>
      <point x="631" y="499" type="curve" smooth="yes"/>
      <point x="631" y="429"/>
      <point x="573" y="339"/>
      <point x="497" y="339" type="curve"/>
    </contour>
    <contour>
      <point x="513" y="-12"/>
      <point x="521" y="-2"/>
      <point x="521" y="12" type="curve"/>
      <point x="522" y="472" type="line"/>
      <point x="522" y="554"/>
      <point x="512" y="595"/>
      <point x="455" y="595" type="curve" smooth="yes"/>
      <point x="352" y="595"/>
      <point x="190" y="448"/>
      <point x="190" y="326" type="curve" smooth="yes"/>
      <point x="190" y="274"/>
      <point x="223" y="238"/>
      <point x="273" y="238" type="curve" smooth="yes"/>
      <point x="308" y="238"/>
      <point x="348" y="260"/>
      <point x="348" y="310" type="curve" smooth="yes"/>
      <point x="348" y="357"/>
      <point x="310" y="382"/>
      <point x="274" y="382" type="curve" smooth="yes"/>
      <point x="241" y="382"/>
      <point x="210" y="361"/>
      <point x="210" y="318" type="curve"/>
      <point x="223" y="321" type="line"/>
      <point x="223" y="437"/>
      <point x="387" y="561"/>
      <point x="451" y="561" type="curve" smooth="yes"/>
      <point x="482" y="561"/>
      <point x="482" y="541"/>
      <point x="482" y="468" type="curve" smooth="yes"/>
      <point x="482" y="57" type="line"/>
      <point x="499" y="78" type="line"/>
      <point x="478" y="110"/>
      <point x="444" y="141"/>
      <point x="376" y="141" type="curve" smooth="yes"/>
      <point x="309" y="141"/>
      <point x="265" y="111"/>
      <point x="208" y="111" type="curve" smooth="yes"/>
      <point x="132" y="111"/>
      <point x="74" y="152"/>
      <point x="74" y="241" type="curve" smooth="yes"/>
      <point x="74" y="305"/>
      <point x="105" y="341"/>
      <point x="105" y="364" type="curve" smooth="yes"/>
      <point x="105" y="375"/>
      <point x="98" y="380"/>
      <point x="90" y="380" type="curve" smooth="yes"/>
      <point x="60" y="380"/>
      <point x="35" y="300"/>
      <point x="35" y="243" type="curve" smooth="yes"/>
      <point x="35" y="139"/>
      <point x="100" y="65"/>
      <point x="215" y="65" type="curve" smooth="yes"/>
      <point x="280" y="65"/>
      <point x="320" y="97"/>
      <point x="382" y="97" type="curve" smooth="yes"/>
      <point x="421" y="97"/>
      <point x="482" y="85"/>
      <point x="482" y="12" type="curve" smooth="yes"/>
      <point x="482" y="-2"/>
      <point x="491" y="-12"/>
      <point x="502" y="-12" type="curve" smooth="yes"/>
    </contour>
    <contour>
      <point x="248" y="271"/>
      <point x="230" y="289"/>
      <point x="230" y="311" type="curve" smooth="yes"/>
      <point x="230" y="333"/>
      <point x="248" y="351"/>
      <point x="270" y="351" type="curve" smooth="yes"/>
      <point x="292" y="351"/>
      <point x="310" y="333"/>
      <point x="310" y="311" type="curve" smooth="yes"/>
      <point x="310" y="289"/>
      <point x="292" y="271"/>
      <point x="270" y="271" type="curve" smooth="yes"/>
    </contour>
  </outline>
</glyph>
<glyph name="uni0994" format="1">
  <advance width="660"/>
  <unicode hex="0994"/>
  <outline>
    <contour>
      <point x="485" y="307" type="line"/>
      <point x="528" y="307"/>
      <point x="636" y="369"/>
      <point x="636" y="491" type="curve" smooth="yes"/>
      <point x="636" y="644"/>
      <point x="511" y="685"/>
      <point x="378" y="739" type="curve" smooth="yes"/>
      <point x="304" y="769"/>
      <point x="265" y="806"/>
      <point x="264" y="858" type="curve"/>
      <point x="264" y="874"/>
      <point x="264" y="893"/>
      <point x="249" y="893" type="curve" smooth="yes"/>
      <point x="234" y="893"/>
      <point x="231" y="876"/>
      <point x="231" y="858" type="curve" smooth="yes"/>
      <point x="231" y="783"/>
      <point x="282" y="741"/>
      <point x="376" y="699" type="curve" smooth="yes"/>
      <point x="479" y="654"/>
      <point x="601" y="622"/>
      <point x="601" y="499" type="curve" smooth="yes"/>
      <point x="601" y="429"/>
      <point x="543" y="350"/>
      <point x="467" y="350" type="curve"/>
    </contour>
    <contour>
      <point x="435" y="52"/>
      <point x="529" y="95"/>
      <point x="529" y="219" type="curve" smooth="yes"/>
      <point x="529" y="309"/>
      <point x="464" y="390"/>
      <point x="382" y="390" type="curve" smooth="yes"/>
      <point x="338" y="390"/>
      <point x="312" y="366"/>
      <point x="312" y="331" type="curve" smooth="yes"/>
      <point x="312" y="297"/>
      <point x="337" y="266"/>
      <point x="384" y="266" type="curve" smooth="yes"/>
      <point x="447" y="266"/>
      <point x="503" y="352"/>
      <point x="503" y="439" type="curve" smooth="yes"/>
      <point x="503" y="532"/>
      <point x="440" y="597"/>
      <point x="344" y="597" type="curve" smooth="yes"/>
      <point x="231" y="597"/>
      <point x="142" y="506"/>
      <point x="142" y="422" type="curve" smooth="yes"/>
      <point x="142" y="374"/>
      <point x="177" y="343"/>
      <point x="219" y="343" type="curve" smooth="yes"/>
      <point x="260" y="343"/>
      <point x="294" y="372"/>
      <point x="294" y="415" type="curve" smooth="yes"/>
      <point x="294" y="459"/>
      <point x="258" y="488"/>
      <point x="220" y="488" type="curve" smooth="yes"/>
      <point x="204" y="488"/>
      <point x="187" y="482"/>
      <point x="173" y="471" type="curve"/>
      <point x="202" y="471" type="line"/>
      <point x="223" y="522"/>
      <point x="288" y="562"/>
      <point x="353" y="562" type="curve" smooth="yes"/>
      <point x="413" y="562"/>
      <point x="466" y="527"/>
      <point x="466" y="444" type="curve" smooth="yes"/>
      <point x="466" y="374"/>
      <point x="429" y="305"/>
      <point x="377" y="305" type="curve" smooth="yes"/>
      <point x="357" y="305"/>
      <point x="346" y="314"/>
      <point x="346" y="327" type="curve" smooth="yes"/>
      <point x="346" y="342"/>
      <point x="359" y="353"/>
      <point x="386" y="353" type="curve" smooth="yes"/>
      <point x="440" y="353"/>
      <point x="493" y="295"/>
      <point x="493" y="230" type="curve" smooth="yes"/>
      <point x="493" y="144"/>
      <point x="427" y="97"/>
      <point x="347" y="97" type="curve" smooth="yes"/>
      <point x="157" y="97"/>
      <point x="65" y="417"/>
      <point x="54" y="460" type="curve" smooth="yes"/>
      <point x="49" y="481"/>
      <point x="43" y="485"/>
      <point x="36" y="485" type="curve" smooth="yes"/>
      <point x="27" y="485"/>
      <point x="20" y="478"/>
      <point x="20" y="466" type="curve" smooth="yes"/>
      <point x="20" y="429"/>
      <point x="127" y="52"/>
      <point x="359" y="52" type="curve" smooth="yes"/>
    </contour>
    <contour>
      <point x="202" y="378"/>
      <point x="180" y="393"/>
      <point x="180" y="418" type="curve" smooth="yes"/>
      <point x="180" y="444"/>
      <point x="202" y="458"/>
      <point x="220" y="458" type="curve" smooth="yes"/>
      <point x="240" y="458"/>
      <point x="259" y="444"/>
      <point x="259" y="418" type="curve" smooth="yes"/>
      <point x="259" y="393"/>
      <point x="240" y="378"/>
      <point x="220" y="378" type="curve" smooth="yes"/>
    </contour>
  </outline>
</glyph>
<glyph name="uni099A" format="1">
  <advance width="465"/>
  <unicode hex="099A"/>
  <outline>
    <contour>
      <point x="287" y="-12"/>
      <point x="432" y="184"/>
      <point x="432" y="290" type="curve" smooth="yes"/>
      <point x="432" y="336"/>
      <point x="404" y="360"/>
      <point x="341" y="373" type="curve" smooth="yes"/>
      <point x="210" y="400"/>
      <point x="139" y="416"/>
      <point x="139" y="505" type="curve" smooth="yes"/>
      <point x="139" y="554"/>
      <point x="162" y="555"/>
      <point x="190" y="555" type="curve"/>
      <point x="465" y="554" type="line"/>
      <point x="476" y="554"/>
      <point x="485" y="562"/>
      <point x="485" y="571" type="curve" smooth="yes"/>
      <point x="485" y="580"/>
      <point x="476" y="587"/>
      <point x="465" y="587" type="curve" smooth="yes"/>
      <point x="176" y="587" type="line" smooth="yes"/>
      <point x="128" y="587"/>
      <point x="101" y="563"/>
      <point x="101" y="514" type="curve"/>
      <point x="113" y="530" type="line"/>
      <point x="104" y="560"/>
      <point x="76" y="587"/>
      <point x="34" y="587" type="curve" smooth="yes"/>
      <point x="0" y="587" type="line" smooth="yes"/>
      <point x="-11" y="587"/>
      <point x="-20" y="580"/>
      <point x="-20" y="571" type="curve" smooth="yes"/>
      <point x="-20" y="562"/>
      <point x="-11" y="554"/>
      <point x="0" y="554" type="curve" smooth="yes"/>
      <point x="32" y="554" type="line" smooth="yes"/>
      <point x="94" y="554"/>
      <point x="100" y="487"/>
      <point x="100" y="439" type="curve"/>
      <point x="98" y="122" type="line" smooth="yes"/>
      <point x="97" y="29"/>
      <point x="125" y="-12"/>
      <point x="176" y="-12" type="curve" smooth="yes"/>
    </contour>
    <contour>
      <point x="136" y="32"/>
      <point x="139" y="96"/>
      <point x="139" y="122" type="curve" smooth="yes"/>
      <point x="139" y="450" type="line"/>
      <point x="125" y="430" type="line"/>
      <point x="149" y="378"/>
      <point x="235" y="352"/>
      <point x="329" y="333" type="curve" smooth="yes"/>
      <point x="363" y="326"/>
      <point x="388" y="319"/>
      <point x="388" y="289" type="curve" smooth="yes"/>
      <point x="388" y="215"/>
      <point x="258" y="32"/>
      <point x="179" y="32" type="curve" smooth="yes"/>
    </contour>
  </outline>
</glyph>
<glyph name="uni09B7" format="1">
  <advance width="511"/>
  <unicode hex="09B7"/>
  <outline>
    <contour>
      <point x="383" y="309" type="line"/>
      <point x="229" y="420" type="line"/>
      <point x="229" y="378" type="line"/>
      <point x="378" y="273" type="line"/>
    </contour>
    <contour>
      <point x="401" y="-12"/>
      <point x="410" y="-1"/>
      <point x="410" y="13" type="curve" smooth="yes"/>
      <point x="410" y="470" type="line" smooth="yes"/>
      <point x="410" y="544"/>
      <point x="417" y="554"/>
      <point x="451" y="554" type="curve" smooth="yes"/>
      <point x="511" y="554" type="line" smooth="yes"/>
      <point x="522" y="554"/>
      <point x="531" y="561"/>
      <point x="531" y="571" type="curve" smooth="yes"/>
      <point x="531" y="580"/>
      <point x="522" y="587"/>
      <point x="511" y="587" type="curve" smooth="yes"/>
      <point x="439" y="587" type="line" smooth="yes"/>
      <point x="407" y="587"/>
      <point x="372" y="569"/>
      <point x="372" y="498" type="curve"/>
      <point x="392" y="515" type="line"/>
      <point x="392" y="572"/>
      <point x="359" y="587"/>
      <point x="315" y="587" type="curve" smooth="yes"/>
      <point x="0" y="587" type="line" smooth="yes"/>
      <point x="-11" y="587"/>
      <point x="-20" y="580"/>
      <point x="-20" y="571" type="curve" smooth="yes"/>
      <point x="-20" y="561"/>
      <point x="-11" y="554"/>
      <point x="0" y="554" type="curve" smooth="yes"/>
      <point x="315" y="554" type="line" smooth="yes"/>
      <point x="365" y="554"/>
      <point x="370" y="530"/>
      <point x="370" y="477" type="curve" smooth="yes"/>
      <point x="370" y="13" type="line" smooth="yes"/>
      <point x="370" y="-1"/>
      <point x="379" y="-12"/>
      <point x="390" y="-12" type="curve" smooth="yes"/>
    </contour>
    <contour>
      <point x="392" y="83" type="line"/>
      <point x="370" y="160"/>
      <point x="210" y="261"/>
      <point x="102" y="281" type="curve"/>
      <point x="99" y="254" type="line"/>
      <point x="246" y="342" type="line" smooth="yes"/>
      <point x="266" y="354"/>
      <point x="272" y="363"/>
      <point x="272" y="375" type="curve" smooth="yes"/>
      <point x="272" y="384"/>
      <point x="266" y="394"/>
      <point x="249" y="406" type="curve" smooth="yes"/>
      <point x="129" y="496" type="line" smooth="yes"/>
      <point x="91" y="524"/>
      <point x="94" y="541"/>
      <point x="94" y="564" type="curve"/>
      <point x="45" y="564" type="line"/>
      <point x="44" y="523"/>
      <point x="67" y="496"/>
      <point x="101" y="471" type="curve" smooth="yes"/>
      <point x="239" y="370" type="line"/>
      <point x="240" y="385" type="line"/>
      <point x="75" y="288" type="line" smooth="yes"/>
      <point x="67" y="283"/>
      <point x="63" y="276"/>
      <point x="63" y="269" type="curve" smooth="yes"/>
      <point x="63" y="258"/>
      <point x="72" y="247"/>
      <point x="92" y="243" type="curve" smooth="yes"/>
      <point x="195" y="221"/>
      <point x="370" y="133"/>
      <point x="370" y="34" type="curve"/>
    </contour>
  </outline>
</glyph>
<glyph name="uni09B8" format="1">
  <advance width="549"/>
  <unicode hex="09B8"/>
  <outline>
    <contour>
      <point x="439" y="-12"/>
      <point x="448" y="-1"/>
      <point x="448" y="13" type="curve" smooth="yes"/>
      <point x="448" y="470" type="line" smooth="yes"/>
      <point x="448" y="544"/>
      <point x="455" y="554"/>
      <point x="489" y="554" type="curve" smooth="yes"/>
      <point x="549" y="554" type="line" smooth="yes"/>
      <point x="560" y="554"/>
      <point x="569" y="561"/>
      <point x="569" y="571" type="curve" smooth="yes"/>
      <point x="569" y="580"/>
      <point x="560" y="587"/>
      <point x="549" y="587" type="curve" smooth="yes"/>
      <point x="477" y="587" type="line" smooth="yes"/>
      <point x="445" y="587"/>
      <point x="410" y="569"/>
      <point x="410" y="498" type="curve"/>
      <point x="430" y="515" type="line"/>
      <point x="430" y="572"/>
      <point x="397" y="587"/>
      <point x="353" y="587" type="curve" smooth="yes"/>
      <point x="0" y="587" type="line" smooth="yes"/>
      <point x="-11" y="587"/>
      <point x="-20" y="580"/>
      <point x="-20" y="571" type="curve" smooth="yes"/>
      <point x="-20" y="561"/>
      <point x="-11" y="554"/>
      <point x="0" y="554" type="curve" smooth="yes"/>
      <point x="353" y="554" type="line" smooth="yes"/>
      <point x="403" y="554"/>
      <point x="408" y="530"/>
      <point x="408" y="477" type="curve" smooth="yes"/>
      <point x="408" y="13" type="line" smooth="yes"/>
      <point x="408" y="-1"/>
      <point x="417" y="-12"/>
      <point x="428" y="-12" type="curve" smooth="yes"/>
    </contour>
    <contour>
      <point x="226" y="141"/>
      <point x="266" y="314"/>
      <point x="343" y="314" type="curve" smooth="yes"/>
      <point x="385" y="314"/>
      <point x="407" y="284"/>
      <point x="408" y="206" type="curve"/>
      <point x="429" y="259" type="line"/>
      <point x="417" y="321"/>
      <point x="383" y="356"/>
      <point x="342" y="356" type="curve" smooth="yes"/>
      <point x="314" y="356"/>
      <point x="283" y="340"/>
      <point x="255" y="305" type="curve"/>
      <point x="263" y="284" type="line"/>
      <point x="275" y="307"/>
      <point x="286" y="334"/>
      <point x="286" y="356" type="curve" smooth="yes"/>
      <point x="286" y="454"/>
      <point x="116" y="398"/>
      <point x="116" y="572" type="curve"/>
      <point x="71" y="572" type="line"/>
      <point x="71" y="383"/>
      <point x="255" y="423"/>
      <point x="255" y="347" type="curve" smooth="yes"/>
      <point x="255" y="291"/>
      <point x="177" y="178"/>
      <point x="113" y="178" type="curve" smooth="yes"/>
      <point x="82" y="178"/>
      <point x="70" y="204"/>
      <point x="53" y="204" type="curve" smooth="yes"/>
      <point x="43" y="204"/>
      <point x="38" y="196"/>
      <point x="38" y="189" type="curve" smooth="yes"/>
      <point x="38" y="171"/>
      <point x="78" y="141"/>
      <point x="119" y="141" type="curve" smooth="yes"/>
    </contour>
  </outline>
</glyph>
<glyph name="uni09B9" format="1">
  <advance width="488"/>
  <unicode hex="09B9"/>
  <outline>
    <contour>
      <point x="446" y="-12"/>
      <point x="452" y="-3"/>
      <point x="452" y="6" type="curve" smooth="yes"/>
      <point x="452" y="24"/>
      <point x="430" y="17"/>
      <point x="394" y="29" type="curve" smooth="yes"/>
      <point x="333" y="50"/>
      <point x="301" y="98"/>
      <point x="248" y="166" type="curve" smooth="yes"/>
      <point x="210" y="215"/>
      <point x="177" y="237"/>
      <point x="143" y="237" type="curve" smooth="yes"/>
      <point x="108" y="237"/>
      <point x="87" y="216"/>
      <point x="87" y="191" type="curve" smooth="yes"/>
      <point x="87" y="161"/>
      <point x="119" y="134"/>
      <point x="169" y="134" type="curve" smooth="yes"/>
      <point x="296" y="134"/>
      <point x="408" y="228"/>
      <point x="408" y="333" type="curve" smooth="yes"/>
      <point x="408" y="440"/>
      <point x="329" y="499"/>
      <point x="235" y="499" type="curve" smooth="yes"/>
      <point x="170" y="499"/>
      <point x="88" y="470"/>
      <point x="88" y="401" type="curve" smooth="yes"/>
      <point x="88" y="363"/>
      <point x="115" y="329"/>
      <point x="160" y="329" type="curve" smooth="yes"/>
      <point x="203" y="329"/>
      <point x="233" y="360"/>
      <point x="233" y="398" type="curve" smooth="yes"/>
      <point x="233" y="435"/>
      <point x="202" y="459"/>
      <point x="173" y="459" type="curve" smooth="yes"/>
      <point x="155" y="459"/>
      <point x="141" y="455"/>
      <point x="129" y="446" type="curve"/>
      <point x="138" y="441" type="line"/>
      <point x="159" y="455"/>
      <point x="194" y="467"/>
      <point x="228" y="467" type="curve" smooth="yes"/>
      <point x="291" y="467"/>
      <point x="366" y="421"/>
      <point x="366" y="342" type="curve" smooth="yes"/>
      <point x="366" y="246"/>
      <point x="268" y="177"/>
      <point x="161" y="177" type="curve" smooth="yes"/>
      <point x="137" y="177"/>
      <point x="124" y="186"/>
      <point x="124" y="192" type="curve" smooth="yes"/>
      <point x="124" y="196"/>
      <point x="129" y="199"/>
      <point x="138" y="199" type="curve" smooth="yes"/>
      <point x="163" y="199"/>
      <point x="187" y="170"/>
      <point x="210" y="145" type="curve" smooth="yes"/>
      <point x="254" y="98"/>
      <point x="329" y="-12"/>
      <point x="418" y="-12" type="curve" smooth="yes"/>
    </contour>
    <contour>
      <point x="140" y="365"/>
      <point x="124" y="381"/>
      <point x="124" y="401" type="curve" smooth="yes"/>
      <point x="124" y="421"/>
      <point x="140" y="437"/>
      <point x="160" y="437" type="curve" smooth="yes"/>
      <point x="180" y="437"/>
      <point x="196" y="421"/>
      <point x="196" y="401" type="curve" smooth="yes"/>
      <point x="196" y="381"/>
      <point x="180" y="365"/>
      <point x="160" y="365" type="curve" smooth="yes"/>
    </contour>
    <contour>
      <point x="488" y="554" type="line" smooth="yes"/>
      <point x="499" y="554"/>
      <point x="508" y="562"/>
      <point x="508" y="571" type="curve" smooth="yes"/>
      <point x="508" y="580"/>
      <point x="499" y="587"/>
      <point x="488" y="587" type="curve" smooth="yes"/>
      <point x="0" y="587" type="line" smooth="yes"/>
      <point x="-11" y="587"/>
      <point x="-20" y="580"/>
      <point x="-20" y="571" type="curve" smooth="yes"/>
      <point x="-20" y="562"/>
      <point x="-11" y="554"/>
      <point x="0" y="554" type="curve" smooth="yes"/>
    </contour>
  </outline>
</glyph>
<glyph name="uni09BC" format="1">
  <advance width="0"/>
  <unicode hex="09BC"/>
  <outline>
    <contour>
      <point x="25" y="-111"/>
      <point x="55" y="-95"/>
      <point x="55" y="-62" type="curve" smooth="yes"/>
      <point x="55" y="-25"/>
      <point x="32" y="0"/>
      <point x="-5" y="0" type="curve" smooth="yes"/>
      <point x="-31" y="0"/>
      <point x="-57" y="-22"/>
      <point x="-57" y="-49" type="curve" smooth="yes"/>
      <point x="-57" y="-81"/>
      <point x="-36" y="-111"/>
      <point x="3" y="-111" type="curve" smooth="yes"/>
    </contour>
    <contour>
      <point x="-15" y="-80"/>
      <point x="-26" y="-69"/>
      <point x="-26" y="-54" type="curve" smooth="yes"/>
      <point x="-26" y="-41"/>
      <point x="-15" y="-29"/>
      <point x="-1" y="-29" type="curve" smooth="yes"/>
      <point x="14" y="-29"/>
      <point x="24" y="-41"/>
      <point x="24" y="-54" type="curve" smooth="yes"/>
      <point x="24" y="-69"/>
      <point x="14" y="-80"/>
      <point x="-1" y="-80" type="curve" smooth="yes"/>
    </contour>
  </outline>
</glyph>
<glyph name="uni09BE" format="1">
  <advance width="220"/>
  <unicode hex="09BE"/>
  <outline>
    <contour>
      <point x="111" y="-12"/>
      <point x="120" y="-1"/>
      <point x="120" y="13" type="curve" smooth="yes"/>
      <point x="120" y="470" type="line" smooth="yes"/>
      <point x="120" y="544"/>
      <point x="127" y="554"/>
      <point x="161" y="554" type="curve" smooth="yes"/>
      <point x="220" y="554" type="line" smooth="yes"/>
      <point x="231" y="554"/>
      <point x="240" y="561"/>
      <point x="240" y="571" type="curve" smooth="yes"/>
      <point x="240" y="580"/>
      <point x="231" y="587"/>
      <point x="220" y="587" type="curve" smooth="yes"/>
      <point x="149" y="587" type="line" smooth="yes"/>
      <point x="117" y="587"/>
      <point x="82" y="569"/>
      <point x="82" y="498" type="curve"/>
      <point x="102" y="515" type="line"/>
      <point x="102" y="572"/>
      <point x="69" y="587"/>
      <point x="25" y="587" type="curve" smooth="yes"/>
      <point x="0" y="587" type="line" smooth="yes"/>
      <point x="-11" y="587"/>
      <point x="-20" y="580"/>
      <point x="-20" y="571" type="curve" smooth="yes"/>
      <point x="-20" y="561"/>
      <point x="-11" y="554"/>
      <point x="0" y="554" type="curve" smooth="yes"/>
      <point x="25" y="554" type="line" smooth="yes"/>
      <point x="75" y="554"/>
      <point x="80" y="530"/>
      <point x="80" y="477" type="curve" smooth="yes"/>
      <point x="80" y="13" type="line" smooth="yes"/>
      <point x="80" y="-1"/>
      <point x="89" y="-12"/>
      <point x="100" y="-12" type="curve" smooth="yes"/>
    </contour>
  </outline>
</glyph>
<glyph name="uni09C7" format="1">
  <advance width="292"/>
  <unicode hex="09C7"/>
  <outline>
    <contour>
      <point x="285" y="-12"/>
      <point x="320" y="8"/>
      <point x="320" y="49" type="curve" smooth="yes"/>
      <point x="320" y="83"/>
      <point x="294" y="106"/>
      <point x="261" y="106" type="curve" smooth="yes"/>
      <point x="225" y="106"/>
      <point x="205" y="76"/>
      <point x="205" y="52" type="curve" smooth="yes"/>
      <point x="205" y="33"/>
      <point x="220" y="5"/>
      <point x="249" y="5" type="curve"/>
      <point x="242" y="13" type="line"/>
      <point x="164" y="13"/>
      <point x="94" y="115"/>
      <point x="94" y="210" type="curve" smooth="yes"/>
      <point x="94" y="351"/>
      <point x="220" y="471"/>
      <point x="220" y="540" type="curve" smooth="yes"/>
      <point x="220" y="579"/>
      <point x="184" y="587"/>
      <point x="146" y="587" type="curve" smooth="yes"/>
      <point x="0" y="587" type="line" smooth="yes"/>
      <point x="-11" y="587"/>
      <point x="-20" y="580"/>
      <point x="-20" y="571" type="curve" smooth="yes"/>
      <point x="-20" y="562"/>
      <point x="-11" y="554"/>
      <point x="0" y="554" type="curve" smooth="yes"/>
      <point x="139" y="554" type="line" smooth="yes"/>
      <point x="154" y="554"/>
      <point x="191" y="557"/>
      <point x="191" y="538" type="curve" smooth="yes"/>
      <point x="191" y="500"/>
      <point x="54" y="362"/>
      <point x="54" y="208" type="curve" smooth="yes"/>
      <point x="54" y="94"/>
      <point x="130" y="-12"/>
      <point x="248" y="-12" type="curve" smooth="yes"/>
    </contour>
    <contour>
      <point x="247" y="22"/>
      <point x="237" y="32"/>
      <point x="237" y="47" type="curve" smooth="yes"/>
      <point x="237" y="62"/>
      <point x="247" y="72"/>
      <point x="262" y="72" type="curve" smooth="yes"/>
      <point x="277" y="72"/>
      <point x="287" y="62"/>
      <point x="287" y="47" type="curve" smooth="yes"/>
      <point x="287" y="32"/>
      <point x="277" y="22"/>
      <point x="262" y="22" type="curve" smooth="yes"/>
    </contour>
  </outline>
</glyph>
<glyph name="uni09CD" format="1">
  <advance width="0"/>
  <unicode hex="09CD"/>
  <outline>
    <contour>
      <point x="62" y="-196"/>
      <point x="66" y="-192"/>
      <point x="66" y="-185" type="curve" smooth="yes"/>
      <point x="66" y="-162"/>
      <point x="-49" y="-46"/>
      <point x="-108" y="-46" type="curve" smooth="yes"/>
      <point x="-133" y="-46"/>
      <point x="-181" y="-62"/>
      <point x="-181" y="-82" type="curve" smooth="yes"/>
      <point x="-181" y="-90"/>
      <point x="-175" y="-96"/>
      <point x="-163" y="-96" type="curve" smooth="yes"/>
      <point x="-144" y="-96"/>
      <point x="-130" y="-80"/>
      <point x="-112" y="-80" type="curve" smooth="yes"/>
      <point x="-83" y="-80"/>
      <point x="-44" y="-106"/>
      <point x="-2" y="-148" type="curve" smooth="yes"/>
      <point x="35" y="-184"/>
      <point x="45" y="-196"/>
      <point x="55" y="-196" type="curve" smooth="yes"/>
    </contour>
  </outline>
</glyph>
<glyph name="uni09E3" format="1">
  <advance width="0"/>
  <unicode hex="09E3"/>
  <outline>
    <contour>
      <point x="18" y="-393"/>
      <point x="85" y="-311"/>
      <point x="85" y="-250" type="curve" smooth="yes"/>
      <point x="85" y="-180"/>
      <point x="45" y="-143"/>
      <point x="-52" y="-114" type="curve"/>
      <point x="-62" y="-142" type="line"/>
      <point x="-23" y="-148"/>
      <point x="62" y="-172"/>
      <point x="62" y="-245" type="curve" smooth="yes"/>
      <point x="62" y="-303"/>
      <point x="9" y="-354"/>
      <point x="2" y="-354" type="curve"/>
      <point x="-3" y="-376" type="line"/>
      <point x="11" y="-355"/>
      <point x="18" y="-333"/>
      <point x="18" y="-311" type="curve" smooth="yes"/>
      <point x="18" y="-257"/>
      <point x="-23" y="-208"/>
      <point x="-97" y="-208" type="curve"/>
      <point x="-85" y="-220" type="line"/>
      <point x="-68" y="-199"/>
      <point x="-42" y="-164"/>
      <point x="-42" y="-133" type="curve" smooth="yes"/>
      <point x="-42" y="-62"/>
      <point x="-74" y="-28"/>
      <point x="-119" y="-6" type="curve" smooth="yes"/>
      <point x="-190" y="28"/>
      <point x="-284" y="29"/>
      <point x="-284" y="79" type="curve" smooth="yes"/>
      <point x="-284" y="93"/>
      <point x="-290" y="99"/>
      <point x="-297" y="99" type="curve" smooth="yes"/>
      <point x="-304" y="99"/>
      <point x="-312" y="92"/>
      <point x="-312" y="80" type="curve" smooth="yes"/>
      <point x="-312" y="5"/>
      <point x="-200" y="5"/>
      <point x="-128" y="-29" type="curve" smooth="yes"/>
      <point x="-87" y="-48"/>
      <point x="-69" y="-82"/>
      <point x="-69" y="-117" type="curve" smooth="yes"/>
      <point x="-69" y="-160"/>
      <point x="-95" y="-204"/>
      <point x="-136" y="-228" type="curve"/>
      <point x="-134" y="-244" type="line"/>
      <point x="-119" y="-226"/>
      <point x="-112" y="-204"/>
      <point x="-112" y="-183" type="curve" smooth="yes"/>
      <point x="-112" y="-131"/>
      <point x="-152" y="-80"/>
      <point x="-214" y="-80" type="curve" smooth="yes"/>
      <point x="-274" y="-80"/>
      <point x="-309" y="-126"/>
      <point x="-309" y="-172" type="curve" smooth="yes"/>
      <point x="-309" y="-219"/>
      <point x="-273" y="-257"/>
      <point x="-232" y="-257" type="curve" smooth="yes"/>
      <point x="-207" y="-257"/>
      <point x="-192" y="-241"/>
      <point x="-192" y="-219" type="curve" smooth="yes"/>
      <point x="-192" y="-201"/>
      <point x="-207" y="-186"/>
      <point x="-227" y="-186" type="curve" smooth="yes"/>
      <point x="-247" y="-186"/>
      <point x="-261" y="-202"/>
      <point x="-261" y="-218" type="curve" smooth="yes"/>
      <point x="-261" y="-230"/>
      <point x="-253" y="-242"/>
      <point x="-233" y="-247" type="curve"/>
      <point x="-235" y="-240" type="line"/>
      <point x="-262" y="-233"/>
      <point x="-281" y="-207"/>
      <point x="-281" y="-176" type="curve" smooth="yes"/>
      <point x="-281" y="-141"/>
      <point x="-256" y="-104"/>
      <point x="-211" y="-104" type="curve" smooth="yes"/>
      <point x="-163" y="-104"/>
      <point x="-140" y="-147"/>
      <point x="-140" y="-188" type="curve" smooth="yes"/>
      <point x="-140" y="-244"/>
      <point x="-182" y="-251"/>
      <point x="-182" y="-305" type="curve" smooth="yes"/>
      <point x="-182" y="-349"/>
      <point x="-146" y="-387"/>
      <point x="-105" y="-387" type="curve" smooth="yes"/>
      <point x="-80" y="-387"/>
      <point x="-65" y="-371"/>
      <point x="-65" y="-349" type="curve" smooth="yes"/>
      <point x="-65" y="-331"/>
      <point x="-80" y="-316"/>
      <point x="-100" y="-316" type="curve" smooth="yes"/>
      <point x="-120" y="-316"/>
      <point x="-134" y="-332"/>
      <point x="-134" y="-348" type="curve" smooth="yes"/>
      <point x="-134" y="-360"/>
      <point x="-126" y="-372"/>
      <point x="-106" y="-377" type="curve"/>
      <point x="-108" y="-370" type="line"/>
      <point x="-135" y="-363"/>
      <point x="-154" y="-337"/>
      <point x="-154" y="-306" type="curve" smooth="yes"/>
      <point x="-154" y="-271"/>
      <point x="-124" y="-238"/>
      <point x="-80" y="-238" type="curve" smooth="yes"/>
      <point x="-27" y="-238"/>
      <point x="-8" y="-286"/>
      <point x="-8" y="-311" type="curve" smooth="yes"/>
      <point x="-8" y="-367"/>
      <point x="-37" y="-371"/>
      <point x="-37" y="-384" type="curve" smooth="yes"/>
      <point x="-37" y="-389"/>
      <point x="-34" y="-393"/>
      <point x="-23" y="-393" type="curve" smooth="yes"/>
    </contour>
    <contour>
      <point x="-108" y="-368"/>
      <point x="-116" y="-362"/>
      <point x="-116" y="-352" type="curve" smooth="yes"/>
      <point x="-116" y="-344"/>
      <point x="-109" y="-336"/>
      <point x="-100" y="-336" type="curve" smooth="yes"/>
      <point x="-89" y="-336"/>
      <point x="-83" y="-344"/>
      <point x="-83" y="-352" type="curve" smooth="yes"/>
      <point x="-83" y="-360"/>
      <point x="-90" y="-368"/>
      <point x="-100" y="-368" type="curve" smooth="yes"/>
    </contour>
    <contour>
      <point x="-235" y="-238"/>
      <point x="-243" y="-232"/>
      <point x="-243" y="-222" type="curve" smooth="yes"/>
      <point x="-243" y="-214"/>
      <point x="-236" y="-206"/>
      <point x="-227" y="-206" type="curve" smooth="yes"/>
      <point x="-216" y="-206"/>
      <point x="-210" y="-214"/>
      <point x="-210" y="-222" type="curve" smooth="yes"/>
      <point x="-210" y="-230"/>
      <point x="-217" y="-238"/>
      <point x="-227" y="-238" type="curve" smooth="yes"/>
    </contour>
  </outline>
</glyph>
<glyph name="uni09E8" format="1">
  <advance width="518"/>
  <unicode hex="09E8"/>
  <outline>
    <contour>
      <point x="432" y="-12"/>
      <point x="442" y="-8"/>
      <point x="442" y="3" type="curve" smooth="yes"/>
      <point x="442" y="35"/>
      <point x="361" y="0"/>
      <point x="254" y="122" type="curve" smooth="yes"/>
      <point x="193" y="192"/>
      <point x="156" y="315"/>
      <point x="81" y="315" type="curve" smooth="yes"/>
      <point x="55" y="315"/>
      <point x="43" y="299"/>
      <point x="43" y="282" type="curve" smooth="yes"/>
      <point x="43" y="241"/>
      <point x="106" y="200"/>
      <point x="206" y="200" type="curve" smooth="yes"/>
      <point x="327" y="200"/>
      <point x="438" y="248"/>
      <point x="438" y="353" type="curve" smooth="yes"/>
      <point x="438" y="453"/>
      <point x="346" y="487"/>
      <point x="272" y="511" type="curve" smooth="yes"/>
      <point x="233" y="524"/>
      <point x="172" y="539"/>
      <point x="159" y="575" type="curve" smooth="yes"/>
      <point x="156" y="584"/>
      <point x="150" y="590"/>
      <point x="141" y="590" type="curve" smooth="yes"/>
      <point x="130" y="590"/>
      <point x="123" y="583"/>
      <point x="123" y="573" type="curve"/>
      <point x="124" y="521"/>
      <point x="206" y="492"/>
      <point x="254" y="477" type="curve" smooth="yes"/>
      <point x="328" y="453"/>
      <point x="399" y="425"/>
      <point x="399" y="356" type="curve" smooth="yes"/>
      <point x="399" y="260"/>
      <point x="287" y="239"/>
      <point x="190" y="239" type="curve" smooth="yes"/>
      <point x="118" y="239"/>
      <point x="79" y="258"/>
      <point x="79" y="273" type="curve" smooth="yes"/>
      <point x="79" y="278"/>
      <point x="82" y="280"/>
      <point x="86" y="280" type="curve" smooth="yes"/>
      <point x="121" y="280"/>
      <point x="194" y="135"/>
      <point x="232" y="95" type="curve" smooth="yes"/>
      <point x="272" y="51"/>
      <point x="338" y="-12"/>
      <point x="419" y="-12" type="curve" smooth="yes"/>
    </contour>
  </outline>
</glyph>
<glyph name="uni09E9" format="1">
  <advance width="604"/>
  <unicode hex="09E9"/>
  <outline>
    <contour>
      <point x="479" y="32"/>
      <point x="552" y="134"/>
      <point x="552" y="255" type="curve" smooth="yes"/>
      <point x="552" y="391"/>
      <point x="459" y="507"/>
      <point x="333" y="507" type="curve" smooth="yes"/>
      <point x="263" y="507"/>
      <point x="219" y="471"/>
      <point x="219" y="421" type="curve" smooth="yes"/>
      <point x="219" y="375"/>
      <point x="256" y="341"/>
      <point x="300" y="341" type="curve" smooth="yes"/>
      <point x="348" y="341"/>
      <point x="377" y="380"/>
      <point x="377" y="417" type="curve" smooth="yes"/>
      <point x="377" y="449"/>
      <point x="356" y="480"/>
      <point x="307" y="486" type="curve"/>
      <point x="315" y="477" type="line"/>
      <point x="442" y="477"/>
      <point x="515" y="380"/>
      <point x="515" y="257" type="curve" smooth="yes"/>
      <point x="515" y="142"/>
      <point x="437" y="74"/>
      <point x="357" y="74" type="curve" smooth="yes"/>
      <point x="173" y="74"/>
      <point x="103" y="337"/>
      <point x="68" y="470" type="curve" smooth="yes"/>
      <point x="66" y="478"/>
      <point x="63" y="487"/>
      <point x="52" y="487" type="curve" smooth="yes"/>
      <point x="43" y="487"/>
      <point x="37" y="482"/>
      <point x="37" y="462" type="curve" smooth="yes"/>
      <point x="37" y="415"/>
      <point x="125" y="32"/>
      <point x="359" y="32" type="curve" smooth="yes"/>
    </contour>
    <contour>
      <point x="274" y="374"/>
      <point x="254" y="391"/>
      <point x="254" y="416" type="curve" smooth="yes"/>
      <point x="254" y="442"/>
      <point x="273" y="461"/>
      <point x="298" y="461" type="curve" smooth="yes"/>
      <point x="323" y="461"/>
      <point x="343" y="442"/>
      <point x="343" y="418" type="curve" smooth="yes"/>
      <point x="343" y="391"/>
      <point x="321" y="374"/>
      <point x="298" y="374" type="curve" smooth="yes"/>
    </contour>
  </outline>
</glyph>
<glyph name="uni09EC" format="1">
  <advance width="550"/>
  <unicode hex="09EC"/>
  <outline>
    <contour>
      <point x="447" y="-12"/>
      <point x="502" y="95"/>
      <point x="502" y="183" type="curve" smooth="yes"/>
      <point x="502" y="264"/>
      <point x="456" y="347"/>
      <point x="431" y="347" type="curve" smooth="yes"/>
      <point x="414" y="347"/>
      <point x="417" y="327"/>
      <point x="406" y="304" type="curve"/>
      <point x="392" y="271"/>
      <point x="367" y="232"/>
      <point x="327" y="232" type="curve" smooth="yes"/>
      <point x="298" y="232"/>
      <point x="284" y="252"/>
      <point x="284" y="306" type="curve" smooth="yes"/>
      <point x="284" y="492" type="line" smooth="yes"/>
      <point x="284" y="570"/>
      <point x="219" y="587"/>
      <point x="198" y="587" type="curve" smooth="yes"/>
      <point x="185" y="587"/>
      <point x="178" y="581"/>
      <point x="178" y="572" type="curve" smooth="yes"/>
      <point x="178" y="562"/>
      <point x="187" y="559"/>
      <point x="204" y="554" type="curve" smooth="yes"/>
      <point x="237" y="544"/>
      <point x="245" y="517"/>
      <point x="245" y="496" type="curve"/>
      <point x="244" y="306" type="line"/>
      <point x="244" y="236"/>
      <point x="275" y="196"/>
      <point x="330" y="196" type="curve" smooth="yes"/>
      <point x="400" y="196"/>
      <point x="441" y="286"/>
      <point x="443" y="316" type="curve"/>
      <point x="421" y="316" type="line"/>
      <point x="457" y="276"/>
      <point x="466" y="226"/>
      <point x="466" y="188" type="curve" smooth="yes"/>
      <point x="466" y="98"/>
      <point x="414" y="28"/>
      <point x="320" y="28" type="curve" smooth="yes"/>
      <point x="152" y="28"/>
      <point x="112" y="251"/>
      <point x="99" y="377" type="curve" smooth="yes"/>
      <point x="98" y="390"/>
      <point x="96" y="403"/>
      <point x="80" y="403" type="curve" smooth="yes"/>
      <point x="64" y="403"/>
      <point x="61" y="389"/>
      <point x="61" y="367" type="curve" smooth="yes"/>
      <point x="61" y="266"/>
      <point x="123" y="-12"/>
      <point x="323" y="-12" type="curve" smooth="yes"/>
    </contour>
  </outline>
</glyph>
<glyph name="uni09F0" format="1">
  <advance width="485"/>
  <unicode hex="09F0"/>
  <outline>
    <contour>
      <point x="364" y="252" type="line"/>
      <point x="327" y="289"/>
      <point x="235" y="345"/>
      <point x="187" y="367" type="curve"/>
      <point x="150" y="349" type="line"/>
      <point x="227" y="312"/>
      <point x="284" y="283"/>
      <point x="348" y="230" type="curve"/>
    </contour>
    <contour>
      <point x="377" y="53" type="line"/>
      <point x="377" y="164"/>
      <point x="197" y="282"/>
      <point x="35" y="312" type="curve"/>
      <point x="37" y="298" type="line"/>
      <point x="290" y="403"/>
      <point x="372" y="446"/>
      <point x="372" y="518" type="curve" smooth="yes"/>
      <point x="372" y="563"/>
      <point x="329" y="587"/>
      <point x="270" y="587" type="curve" smooth="yes"/>
      <point x="0" y="587" type="line" smooth="yes"/>
      <point x="-7" y="587"/>
      <point x="-16" y="582"/>
      <point x="-16" y="571" type="curve" smooth="yes"/>
      <point x="-16" y="562"/>
      <point x="-9" y="554"/>
      <point x="0" y="554" type="curve" smooth="yes"/>
      <point x="270" y="554" type="line" smooth="yes"/>
      <point x="324" y="554"/>
      <point x="345" y="539"/>
      <point x="345" y="520" type="curve" smooth="yes"/>
      <point x="345" y="490"/>
      <point x="298" y="457"/>
      <point x="38" y="343" type="curve" smooth="yes"/>
      <point x="19" y="334"/>
      <point x="10" y="323"/>
      <point x="10" y="310" type="curve" smooth="yes"/>
      <point x="10" y="295"/>
      <point x="21" y="280"/>
      <point x="45" y="273" type="curve" smooth="yes"/>
      <point x="125" y="248"/>
      <point x="344" y="165"/>
      <point x="344" y="48" type="curve"/>
    </contour>
    <contour>
      <point x="375" y="-12"/>
      <point x="384" y="-1"/>
      <point x="384" y="13" type="curve" smooth="yes"/>
      <point x="384" y="470" type="line" smooth="yes"/>
      <point x="384" y="544"/>
      <point x="391" y="554"/>
      <point x="425" y="554" type="curve" smooth="yes"/>
      <point x="485" y="554" type="line" smooth="yes"/>
      <point x="496" y="554"/>
      <point x="505" y="561"/>
      <point x="505" y="571" type="curve" smooth="yes"/>
      <point x="505" y="580"/>
      <point x="496" y="587"/>
      <point x="485" y="587" type="curve" smooth="yes"/>
      <point x="413" y="587" type="line" smooth="yes"/>
      <point x="364" y="587"/>
      <point x="344" y="558"/>
      <point x="344" y="482" type="curve" smooth="yes"/>
      <point x="344" y="13" type="line" smooth="yes"/>
      <point x="344" y="-1"/>
      <point x="353" y="-12"/>
      <point x="364" y="-12" type="curve" smooth="yes"/>
    </contour>
  </outline>
</glyph>
<glyph name="uni200D" format="1">
  <advance width="0"/>
  <unicode hex="200D"/>
  <outline>
    <contour>
      <point x="30" y="-243"/>
      <point x="40" y="-235"/>
      <point x="40" y="-223" type="curve" smooth="yes"/>
      <point x="40" y="778" type="line" smooth="yes"/>
      <point x="40" y="800"/>
      <point x="49" y="808"/>
      <point x="66" y="808" type="curve" smooth="yes"/>
      <point x="192" y="808" type="line" smooth="yes"/>
      <point x="203" y="808"/>
      <point x="212" y="815"/>
      <point x="212" y="824" type="curve" smooth="yes"/>
      <point x="212" y="833"/>
      <point x="203" y="841"/>
      <point x="192" y="841" type="curve" smooth="yes"/>
      <point x="66" y="841" type="line" smooth="yes"/>
      <point x="12" y="841"/>
      <point x="0" y="809"/>
      <point x="0" y="778" type="curve" smooth="yes"/>
      <point x="0" y="-223" type="line" smooth="yes"/>
      <point x="0" y="-234"/>
      <point x="8" y="-243"/>
      <point x="19" y="-243" type="curve" smooth="yes"/>
    </contour>
  </outline>
</glyph>
<glyph name="emdash" format="1">
  <advance width="771"/>
  <unicode hex="2014"/>
  <outline>
    <contour>
      <point x="672" y="198" type="line" smooth="yes"/>
      <point x="683" y="198"/>
      <point x="692" y="207"/>
      <point x="692" y="218" type="curve" smooth="yes"/>
      <point x="692" y="229"/>
      <point x="683" y="238"/>
      <point x="672" y="238" type="curve" smooth="yes"/>
      <point x="99" y="238" type="line" smooth="yes"/>
      <point x="88" y="238"/>
      <point x="79" y="229"/>
      <point x="79" y="218" type="curve" smooth="yes"/>
      <point x="79" y="207"/>
      <point x="88" y="198"/>
      <point x="99" y="198" type="curve" smooth="yes"/>
    </contour>
  </outline>
</glyph>
<glyph name="quoteright" format="1">
  <advance width="227"/>
  <unicode hex="2019"/>
  <outline>
    <contour>
      <point x="74" y="366"/>
      <point x="87" y="367"/>
      <point x="94" y="376" type="curve" smooth="yes"/>
      <point x="124" y="415"/>
      <point x="142" y="469"/>
      <point x="142" y="521" type="curve" smooth="yes"/>
      <point x="142" y="544"/>
      <point x="138" y="565"/>
      <point x="134" y="578" type="curve" smooth="yes"/>
      <point x="131" y="589"/>
      <point x="119" y="594"/>
      <point x="109" y="591" type="curve" smooth="yes"/>
      <point x="98" y="588"/>
      <point x="93" y="576"/>
      <point x="96" y="566" type="curve" smooth="yes"/>
      <point x="100" y="555"/>
      <point x="102" y="539"/>
      <point x="102" y="521" type="curve" smooth="yes"/>
      <point x="102" y="477"/>
      <point x="88" y="433"/>
      <point x="62" y="400" type="curve" smooth="yes"/>
      <point x="56" y="392"/>
      <point x="57" y="379"/>
      <point x="66" y="372" type="curve" smooth="yes"/>
    </contour>
  </outline>
</glyph>
<glyph name="quotesinglbase" format="1">
  <advance width="227"/>
  <unicode hex="201A"/>
  <outline>
    <contour>
      <point x="74" y="-127"/>
      <point x="87" y="-126"/>
      <point x="94" y="-117" type="curve" smooth="yes"/>
      <point x="124" y="-78"/>
      <point x="142" y="-24"/>
      <point x="142" y="28" type="curve" smooth="yes"/>
      <point x="142" y="50"/>
      <point x="138" y="72"/>
      <point x="134" y="85" type="curve" smooth="yes"/>
      <point x="131" y="96"/>
      <point x="119" y="101"/>
      <point x="109" y="98" type="curve" smooth="yes"/>
      <point x="98" y="95"/>
      <point x="93" y="83"/>
      <point x="96" y="73" type="curve" smooth="yes"/>
      <point x="100" y="62"/>
      <point x="102" y="46"/>
      <point x="102" y="28" type="curve" smooth="yes"/>
      <point x="102" y="-16"/>
      <point x="88" y="-60"/>
      <point x="62" y="-93" type="curve" smooth="yes"/>
      <point x="56" y="-101"/>
      <point x="57" y="-114"/>
      <point x="66" y="-121" type="curve" smooth="yes"/>
    </contour>
  </outline>
</glyph>
<glyph name="quotedblbase" format="1">
  <advance width="396"/>
  <unicode hex="201E"/>
  <outline>
    <contour>
      <point x="74" y="-124"/>
      <point x="87" y="-123"/>
      <point x="94" y="-114" type="curve" smooth="yes"/>
      <point x="124" y="-76"/>
      <point x="143" y="-23"/>
      <point x="143" y="22" type="curve" smooth="yes"/>
      <point x="143" y="49"/>
      <point x="140" y="69"/>
      <point x="135" y="86" type="curve" smooth="yes"/>
      <point x="133" y="96"/>
      <point x="122" y="103"/>
      <point x="111" y="100" type="curve" smooth="yes"/>
      <point x="101" y="98"/>
      <point x="94" y="87"/>
      <point x="97" y="76" type="curve" smooth="yes"/>
      <point x="100" y="61"/>
      <point x="103" y="45"/>
      <point x="103" y="22" type="curve" smooth="yes"/>
      <point x="103" y="-15"/>
      <point x="88" y="-58"/>
      <point x="62" y="-90" type="curve" smooth="yes"/>
      <point x="56" y="-98"/>
      <point x="57" y="-111"/>
      <point x="66" y="-118" type="curve" smooth="yes"/>
    </contour>
    <contour>
      <point x="242" y="-124"/>
      <point x="255" y="-123"/>
      <point x="262" y="-114" type="curve" smooth="yes"/>
      <point x="292" y="-76"/>
      <point x="311" y="-23"/>
      <point x="311" y="22" type="curve" smooth="yes"/>
      <point x="311" y="49"/>
      <point x="308" y="69"/>
      <point x="303" y="86" type="curve" smooth="yes"/>
      <point x="301" y="96"/>
      <point x="290" y="103"/>
      <point x="279" y="100" type="curve" smooth="yes"/>
      <point x="269" y="98"/>
      <point x="262" y="87"/>
      <point x="265" y="76" type="curve" smooth="yes"/>
      <point x="268" y="61"/>
      <point x="271" y="45"/>
      <point x="271" y="22" type="curve" smooth="yes"/>
      <point x="271" y="-15"/>
      <point x="256" y="-58"/>
      <point x="230" y="-90" type="curve" smooth="yes"/>
      <point x="224" y="-98"/>
      <point x="225" y="-111"/>
      <point x="234" y="-118" type="curve" smooth="yes"/>
    </contour>
  </outline>
</glyph>
<glyph name="dagger" format="1">
  <advance width="487"/>
  <unicode hex="2020"/>
  <outline>
    <contour>
      <point x="254" y="-9"/>
      <point x="263" y="0"/>
      <point x="263" y="11" type="curve" smooth="yes"/>
      <point x="263" y="520" type="line" smooth="yes"/>
      <point x="263" y="531"/>
      <point x="254" y="540"/>
      <point x="243" y="540" type="curve" smooth="yes"/>
      <point x="232" y="540"/>
      <point x="223" y="531"/>
      <point x="223" y="520" type="curve" smooth="yes"/>
      <point x="223" y="11" type="line" smooth="yes"/>
      <point x="223" y="0"/>
      <point x="232" y="-9"/>
      <point x="243" y="-9" type="curve" smooth="yes"/>
    </contour>
    <contour>
      <point x="402" y="366" type="line" smooth="yes"/>
      <point x="413" y="366"/>
      <point x="422" y="375"/>
      <point x="422" y="386" type="curve" smooth="yes"/>
      <point x="422" y="397"/>
      <point x="413" y="406"/>
      <point x="402" y="406" type="curve" smooth="yes"/>
      <point x="85" y="406" type="line" smooth="yes"/>
      <point x="74" y="406"/>
      <point x="65" y="397"/>
      <point x="65" y="386" type="curve" smooth="yes"/>
      <point x="65" y="375"/>
      <point x="74" y="366"/>
      <point x="85" y="366" type="curve" smooth="yes"/>
    </contour>
  </outline>
</glyph>
<glyph name="bullet" format="1">
  <advance width="517"/>
  <unicode hex="2022"/>
  <outline>
    <contour>
      <point x="335" y="109"/>
      <point x="388" y="166"/>
      <point x="388" y="236" type="curve" smooth="yes"/>
      <point x="388" y="301"/>
      <point x="340" y="365"/>
      <point x="258" y="365" type="curve" smooth="yes"/>
      <point x="181" y="365"/>
      <point x="128" y="301"/>
      <point x="128" y="237" type="curve" smooth="yes"/>
      <point x="128" y="165"/>
      <point x="185" y="109"/>
      <point x="258" y="109" type="curve" smooth="yes"/>
    </contour>
  </outline>
</glyph>
<glyph name="guilsinglleft" format="1">
  <advance width="251"/>
  <unicode hex="2039"/>
  <outline>
    <contour>
      <point x="197" y="21"/>
      <point x="199" y="34"/>
      <point x="192" y="43" type="curve" smooth="yes"/>
      <point x="76" y="201" type="line" smooth="yes"/>
      <point x="70" y="210"/>
      <point x="57" y="212"/>
      <point x="48" y="205" type="curve" smooth="yes"/>
      <point x="39" y="199"/>
      <point x="37" y="186"/>
      <point x="44" y="177" type="curve" smooth="yes"/>
      <point x="160" y="19" type="line" smooth="yes"/>
      <point x="166" y="10"/>
      <point x="179" y="8"/>
      <point x="188" y="15" type="curve" smooth="yes"/>
    </contour>
    <contour>
      <point x="57" y="171"/>
      <point x="70" y="173"/>
      <point x="76" y="182" type="curve" smooth="yes"/>
      <point x="192" y="340" type="line" smooth="yes"/>
      <point x="199" y="349"/>
      <point x="197" y="362"/>
      <point x="188" y="368" type="curve" smooth="yes"/>
      <point x="179" y="375"/>
      <point x="166" y="373"/>
      <point x="160" y="364" type="curve" smooth="yes"/>
      <point x="44" y="206" type="line" smooth="yes"/>
      <point x="37" y="197"/>
      <point x="39" y="184"/>
      <point x="48" y="178" type="curve" smooth="yes"/>
    </contour>
  </outline>
</glyph>
<glyph name="uni20B9" format="1">
  <advance width="448"/>
  <unicode hex="20B9"/>
  <outline>
    <contour>
      <point x="406" y="-12"/>
      <point x="412" y="-5"/>
      <point x="412" y="3" type="curve" smooth="yes"/>
      <point x="412" y="25"/>
      <point x="387" y="20"/>
      <point x="354" y="34" type="curve" smooth="yes"/>
      <point x="292" y="60"/>
      <point x="248" y="153"/>
      <point x="198" y="216" type="curve" smooth="yes"/>
      <point x="157" y="268"/>
      <point x="126" y="287"/>
      <point x="93" y="287" type="curve" smooth="yes"/>
      <point x="58" y="287"/>
      <point x="37" y="266"/>
      <point x="37" y="241" type="curve" smooth="yes"/>
      <point x="37" y="215"/>
      <point x="60" y="184"/>
      <point x="126" y="184" type="curve" smooth="yes"/>
      <point x="212" y="184"/>
      <point x="343" y="249"/>
      <point x="343" y="384" type="curve" smooth="yes"/>
      <point x="343" y="500"/>
      <point x="247" y="578"/>
      <point x="157" y="580" type="curve"/>
      <point x="138" y="554" type="line"/>
      <point x="216" y="554"/>
      <point x="306" y="483"/>
      <point x="306" y="392" type="curve" smooth="yes"/>
      <point x="306" y="272"/>
      <point x="188" y="227"/>
      <point x="118" y="227" type="curve" smooth="yes"/>
      <point x="83" y="227"/>
      <point x="74" y="236"/>
      <point x="74" y="242" type="curve" smooth="yes"/>
      <point x="74" y="246"/>
      <point x="79" y="249"/>
      <point x="88" y="249" type="curve" smooth="yes"/>
      <point x="113" y="249"/>
      <point x="137" y="220"/>
      <point x="160" y="195" type="curve" smooth="yes"/>
      <point x="213" y="136"/>
      <point x="284" y="-12"/>
      <point x="389" y="-12" type="curve" smooth="yes"/>
    </contour>
    <contour>
      <point x="408" y="382" type="line" smooth="yes"/>
      <point x="419" y="382"/>
      <point x="428" y="390"/>
      <point x="428" y="400" type="curve" smooth="yes"/>
      <point x="428" y="410"/>
      <point x="419" y="417"/>
      <point x="408" y="417" type="curve" smooth="yes"/>
      <point x="40" y="417" type="line" smooth="yes"/>
      <point x="29" y="417"/>
      <point x="20" y="410"/>
      <point x="20" y="400" type="curve" smooth="yes"/>
      <point x="20" y="390"/>
      <point x="29" y="382"/>
      <point x="40" y="382" type="curve" smooth="yes"/>
    </contour>
    <contour>
      <point x="448" y="554" type="line" smooth="yes"/>
      <point x="459" y="554"/>
      <point x="468" y="562"/>
      <point x="468" y="571" type="curve" smooth="yes"/>
      <point x="468" y="580"/>
      <point x="459" y="587"/>
      <point x="448" y="587" type="curve" smooth="yes"/>
      <point x="0" y="587" type="line" smooth="yes"/>
      <point x="-11" y="587"/>
      <point x="-20" y="580"/>
      <point x="-20" y="571" type="curve" smooth="yes"/>
      <point x="-20" y="562"/>
      <point x="-11" y="554"/>
      <point x="0" y="554" type="curve" smooth="yes"/>
    </contour>
  </outline>
</glyph>
<glyph name="uni2126" format="1">
  <advance width="632"/>
  <unicode hex="2126"/>
  <outline>
    <contour>
      <point x="231" y="-11"/>
      <point x="244" y="-11"/>
      <point x="251" y="-3" type="curve" smooth="yes"/>
      <point x="259" y="5"/>
      <point x="259" y="18"/>
      <point x="251" y="25" type="curve" smooth="yes"/>
      <point x="177" y="97"/>
      <point x="101" y="186"/>
      <point x="101" y="299" type="curve" smooth="yes"/>
      <point x="101" y="417"/>
      <point x="183" y="509"/>
      <point x="318" y="509" type="curve" smooth="yes"/>
      <point x="441" y="509"/>
      <point x="531" y="417"/>
      <point x="531" y="299" type="curve" smooth="yes"/>
      <point x="531" y="190"/>
      <point x="463" y="97"/>
      <point x="395" y="25" type="curve" smooth="yes"/>
      <point x="388" y="17"/>
      <point x="388" y="4"/>
      <point x="396" y="-4" type="curve" smooth="yes"/>
      <point x="404" y="-11"/>
      <point x="417" y="-11"/>
      <point x="425" y="-3" type="curve" smooth="yes"/>
      <point x="499" y="77"/>
      <point x="571" y="180"/>
      <point x="571" y="299" type="curve" smooth="yes"/>
      <point x="571" y="439"/>
      <point x="465" y="549"/>
      <point x="318" y="549" type="curve" smooth="yes"/>
      <point x="157" y="549"/>
      <point x="61" y="439"/>
      <point x="61" y="299" type="curve" smooth="yes"/>
      <point x="61" y="176"/>
      <point x="141" y="75"/>
      <point x="223" y="-3" type="curve" smooth="yes"/>
    </contour>
    <contour>
      <point x="229" y="-9" type="line" smooth="yes"/>
      <point x="240" y="-9"/>
      <point x="249" y="0"/>
      <point x="249" y="11" type="curve" smooth="yes"/>
      <point x="249" y="22"/>
      <point x="240" y="31"/>
      <point x="229" y="31" type="curve" smooth="yes"/>
      <point x="76" y="31" type="line" smooth="yes"/>
      <point x="65" y="31"/>
      <point x="56" y="22"/>
      <point x="56" y="11" type="curve" smooth="yes"/>
      <point x="56" y="0"/>
      <point x="65" y="-9"/>
      <point x="76" y="-9" type="curve" smooth="yes"/>
    </contour>
    <contour>
      <point x="571" y="-9" type="line" smooth="yes"/>
      <point x="582" y="-9"/>
      <point x="591" y="0"/>
      <point x="591" y="11" type="curve" smooth="yes"/>
      <point x="591" y="22"/>
      <point x="582" y="31"/>
      <point x="571" y="31" type="curve" smooth="yes"/>
      <point x="420" y="31" type="line" smooth="yes"/>
      <point x="409" y="31"/>
      <point x="400" y="22"/>
      <point x="400" y="11" type="curve" smooth="yes"/>
      <point x="400" y="0"/>
      <point x="409" y="-9"/>
      <point x="420" y="-9" type="curve" smooth="yes"/>
    </contour>
  </outline>
</glyph>
<glyph name="product" format="1">
  <advance width="579"/>
  <unicode hex="220F"/>
  <outline>
    <contour>
      <point x="125" y="-9"/>
      <point x="134" y="0"/>
      <point x="134" y="11" type="curve" smooth="yes"/>
      <point x="134" y="520" type="line"/>
      <point x="114" y="500" type="line"/>
      <point x="461" y="500" type="line"/>
      <point x="441" y="520" type="line"/>
      <point x="441" y="11" type="line" smooth="yes"/>
      <point x="441" y="0"/>
      <point x="450" y="-9"/>
      <point x="461" y="-9" type="curve" smooth="yes"/>
      <point x="472" y="-9"/>
      <point x="481" y="0"/>
      <point x="481" y="11" type="curve" smooth="yes"/>
      <point x="481" y="520" type="line" smooth="yes"/>
      <point x="481" y="531"/>
      <point x="472" y="540"/>
      <point x="461" y="540" type="curve" smooth="yes"/>
      <point x="114" y="540" type="line" smooth="yes"/>
      <point x="103" y="540"/>
      <point x="94" y="531"/>
      <point x="94" y="520" type="curve" smooth="yes"/>
      <point x="94" y="11" type="line" smooth="yes"/>
      <point x="94" y="0"/>
      <point x="103" y="-9"/>
      <point x="114" y="-9" type="curve" smooth="yes"/>
    </contour>
  </outline>
</glyph>
<glyph name="minus" format="1">
  <advance width="527"/>
  <unicode hex="2212"/>
  <outline>
    <contour>
      <point x="440" y="229" type="line" smooth="yes"/>
      <point x="451" y="229"/>
      <point x="460" y="238"/>
      <point x="460" y="249" type="curve" smooth="yes"/>
      <point x="460" y="260"/>
      <point x="451" y="269"/>
      <point x="440" y="269" type="curve" smooth="yes"/>
      <point x="86" y="269" type="line" smooth="yes"/>
      <point x="75" y="269"/>
      <point x="66" y="260"/>
      <point x="66" y="249" type="curve" smooth="yes"/>
      <point x="66" y="238"/>
      <point x="75" y="229"/>
      <point x="86" y="229" type="curve" smooth="yes"/>
    </contour>
  </outline>
</glyph>
<glyph name="infinity" format="1">
  <advance width="728"/>
  <unicode hex="221E"/>
  <outline>
    <contour>
      <point x="603" y="119"/>
      <point x="667" y="173"/>
      <point x="667" y="267" type="curve" smooth="yes"/>
      <point x="667" y="366"/>
      <point x="590" y="419"/>
      <point x="524" y="419" type="curve" smooth="yes"/>
      <point x="448" y="419"/>
      <point x="396" y="358"/>
      <point x="346" y="272" type="curve" smooth="yes"/>
      <point x="307" y="205"/>
      <point x="261" y="160"/>
      <point x="202" y="160" type="curve" smooth="yes"/>
      <point x="145" y="160"/>
      <point x="102" y="203"/>
      <point x="102" y="269" type="curve" smooth="yes"/>
      <point x="102" y="338"/>
      <point x="145" y="380"/>
      <point x="197" y="380" type="curve" smooth="yes"/>
      <point x="260" y="380"/>
      <point x="297" y="330"/>
      <point x="358" y="245" type="curve" smooth="yes"/>
      <point x="414" y="164"/>
      <point x="465" y="119"/>
      <point x="529" y="119" type="curve" smooth="yes"/>
    </contour>
    <contour>
      <point x="273" y="120"/>
      <point x="333" y="169"/>
      <point x="380" y="252" type="curve" smooth="yes"/>
      <point x="420" y="322"/>
      <point x="460" y="379"/>
      <point x="524" y="379" type="curve" smooth="yes"/>
      <point x="572" y="379"/>
      <point x="627" y="338"/>
      <point x="627" y="267" type="curve" smooth="yes"/>
      <point x="627" y="201"/>
      <point x="583" y="159"/>
      <point x="529" y="159" type="curve" smooth="yes"/>
      <point x="475" y="159"/>
      <point x="436" y="202"/>
      <point x="390" y="268" type="curve" smooth="yes"/>
      <point x="317" y="370"/>
      <point x="270" y="420"/>
      <point x="197" y="420" type="curve" smooth="yes"/>
      <point x="127" y="420"/>
      <point x="62" y="366"/>
      <point x="62" y="269" type="curve" smooth="yes"/>
      <point x="62" y="177"/>
      <point x="123" y="120"/>
      <point x="202" y="120" type="curve" smooth="yes"/>
    </contour>
  </outline>
</glyph>
<glyph name="notequal" format="1">
  <advance width="527"/>
  <unicode hex="2260"/>
  <outline>
    <contour>
      <point x="180" y="-1"/>
      <point x="192" y="5"/>
      <point x="196" y="15" type="curve" smooth="yes"/>
      <point x="375" y="492" type="line" smooth="yes"/>
      <point x="379" y="502"/>
      <point x="373" y="514"/>
      <point x="363" y="518" type="curve" smooth="yes"/>
      <point x="353" y="522"/>
      <point x="341" y="516"/>
      <point x="337" y="506" type="curve" smooth="yes"/>
      <point x="158" y="29" type="line" smooth="yes"/>
      <point x="154" y="19"/>
      <point x="160" y="7"/>
      <point x="170" y="3" type="curve" smooth="yes"/>
    </contour>
    <contour>
      <point x="440" y="134" type="line" smooth="yes"/>
      <point x="451" y="134"/>
      <point x="460" y="143"/>
      <point x="460" y="154" type="curve" smooth="yes"/>
      <point x="460" y="165"/>
      <point x="451" y="174"/>
      <point x="440" y="174" type="curve" smooth="yes"/>
      <point x="86" y="174" type="line" smooth="yes"/>
      <point x="75" y="174"/>
      <point x="66" y="165"/>
      <point x="66" y="154" type="curve" smooth="yes"/>
      <point x="66" y="143"/>
      <point x="75" y="134"/>
      <point x="86" y="134" type="curve" smooth="yes"/>
    </contour>
    <contour>
      <point x="440" y="342" type="line" smooth="yes"/>
      <point x="451" y="342"/>
      <point x="460" y="351"/>
      <point x="460" y="362" type="curve" smooth="yes"/>
      <point x="460" y="373"/>
      <point x="451" y="382"/>
      <point x="440" y="382" type="curve" smooth="yes"/>
      <point x="86" y="382" type="line" smooth="yes"/>
      <point x="75" y="382"/>
      <point x="66" y="373"/>
      <point x="66" y="362" type="curve" smooth="yes"/>
      <point x="66" y="351"/>
      <point x="75" y="342"/>
      <point x="86" y="342" type="curve" smooth="yes"/>
    </contour>
  </outline>
</glyph>
<glyph name="acutecomb.case" format="1">
  <advance width="0"/>
  <outline>
    <contour>
      <point x="2" y="649"/>
      <point x="52" y="682"/>
      <point x="99" y="710" type="curve" smooth="yes"/>
      <point x="108" y="715"/>
      <point x="112" y="728"/>
      <point x="106" y="737" type="curve" smooth="yes"/>
      <point x="101" y="746"/>
      <point x="88" y="750"/>
      <point x="79" y="744" type="curve" smooth="yes"/>
      <point x="30" y="716"/>
      <point x="-20" y="683"/>
      <point x="-52" y="660" type="curve" smooth="yes"/>
      <point x="-60" y="654"/>
      <point x="-63" y="641"/>
      <point x="-56" y="632" type="curve" smooth="yes"/>
      <point x="-50" y="624"/>
      <point x="-37" y="621"/>
      <point x="-28" y="628" type="curve" smooth="yes"/>
    </contour>
    <contour>
      <point x="-24" y="540" type="move" name="_top"/>
    </contour>
  </outline>
</glyph>
<glyph name="bBDRa" format="1">
  <advance width="730"/>
  <outline>
    <contour>
      <point x="612" y="-63" type="line"/>
      <point x="608" y="6"/>
      <point x="539" y="40"/>
      <point x="484" y="40" type="curve" smooth="yes"/>
      <point x="404" y="40"/>
      <point x="340" y="10"/>
      <point x="284" y="10" type="curve" smooth="yes"/>
      <point x="241" y="10"/>
      <point x="211" y="28"/>
      <point x="211" y="77" type="curve" smooth="yes"/>
      <point x="211" y="103"/>
      <point x="219" y="128"/>
      <point x="219" y="139" type="curve" smooth="yes"/>
      <point x="219" y="146"/>
      <point x="216" y="154"/>
      <point x="206" y="154" type="curve" smooth="yes"/>
      <point x="181" y="154"/>
      <point x="173" y="105"/>
      <point x="173" y="78" type="curve" smooth="yes"/>
      <point x="173" y="17"/>
      <point x="213" y="-30"/>
      <point x="284" y="-30" type="curve" smooth="yes"/>
      <point x="341" y="-30"/>
      <point x="430" y="1"/>
      <point x="489" y="1" type="curve" smooth="yes"/>
      <point x="548" y="1"/>
      <point x="591" y="-31"/>
      <point x="591" y="-94" type="curve"/>
    </contour>
    <contour>
      <point x="622" y="-120"/>
      <point x="631" y="-108"/>
      <point x="631" y="-93" type="curve" smooth="yes"/>
      <point x="631" y="27" type="line" smooth="yes"/>
      <point x="631" y="156"/>
      <point x="617" y="191"/>
      <point x="617" y="236" type="curve" smooth="yes"/>
      <point x="617" y="318"/>
      <point x="646" y="387"/>
      <point x="646" y="415" type="curve" smooth="yes"/>
      <point x="646" y="427"/>
      <point x="641" y="437"/>
      <point x="628" y="437" type="curve" smooth="yes"/>
      <point x="590" y="437"/>
      <point x="404" y="321"/>
      <point x="303" y="207" type="curve"/>
      <point x="328" y="184" type="line"/>
      <point x="328" y="457" type="line" smooth="yes"/>
      <point x="328" y="499"/>
      <point x="329" y="554"/>
      <point x="378" y="554" type="curve" smooth="yes"/>
      <point x="730" y="554" type="line" smooth="yes"/>
      <point x="741" y="554"/>
      <point x="750" y="562"/>
      <point x="750" y="571" type="curve" smooth="yes"/>
      <point x="750" y="580"/>
      <point x="741" y="587"/>
      <point x="730" y="587" type="curve" smooth="yes"/>
      <point x="363" y="587" type="line" smooth="yes"/>
      <point x="319" y="587"/>
      <point x="288" y="554"/>
      <point x="288" y="497" type="curve" smooth="yes"/>
      <point x="288" y="180" type="line" smooth="yes"/>
      <point x="288" y="156"/>
      <point x="299" y="152"/>
      <point x="307" y="152" type="curve" smooth="yes"/>
      <point x="314" y="152"/>
      <point x="318" y="156"/>
      <point x="344" y="184" type="curve" smooth="yes"/>
      <point x="394" y="236"/>
      <point x="541" y="364"/>
      <point x="625" y="392" type="curve"/>
      <point x="617" y="415" type="line"/>
      <point x="586" y="361"/>
      <point x="579" y="303"/>
      <point x="579" y="246" type="curve" smooth="yes"/>
      <point x="579" y="190"/>
      <point x="591" y="156"/>
      <point x="591" y="26" type="curve" smooth="yes"/>
      <point x="591" y="-94" type="line" smooth="yes"/>
      <point x="591" y="-109"/>
      <point x="600" y="-120"/>
      <point x="611" y="-120" type="curve" smooth="yes"/>
    </contour>
    <contour>
      <point x="307" y="228" type="line"/>
      <point x="279" y="307"/>
      <point x="133" y="371"/>
      <point x="58" y="371" type="curve"/>
      <point x="66" y="357" type="line"/>
      <point x="147" y="395"/>
      <point x="317" y="444"/>
      <point x="317" y="523" type="curve" smooth="yes"/>
      <point x="317" y="561"/>
      <point x="286" y="587"/>
      <point x="232" y="587" type="curve" smooth="yes"/>
      <point x="0" y="587" type="line" smooth="yes"/>
      <point x="-11" y="587"/>
      <point x="-20" y="580"/>
      <point x="-20" y="571" type="curve" smooth="yes"/>
      <point x="-20" y="562"/>
      <point x="-11" y="554"/>
      <point x="0" y="554" type="curve" smooth="yes"/>
      <point x="240" y="554" type="line" smooth="yes"/>
      <point x="285" y="554"/>
      <point x="288" y="537"/>
      <point x="288" y="531" type="curve" smooth="yes"/>
      <point x="288" y="482"/>
      <point x="155" y="437"/>
      <point x="79" y="406" type="curve" smooth="yes"/>
      <point x="47" y="393"/>
      <point x="37" y="385"/>
      <point x="37" y="367" type="curve" smooth="yes"/>
      <point x="37" y="357"/>
      <point x="45" y="345"/>
      <point x="60" y="341" type="curve" smooth="yes"/>
      <point x="220" y="294"/>
      <point x="288" y="233"/>
      <point x="288" y="187" type="curve"/>
    </contour>
  </outline>
</glyph>
<glyph name="bBJa" format="1">
  <advance width="725"/>
  <outline>
    <contour>
      <point x="499" y="37"/>
      <point x="567" y="138"/>
      <point x="567" y="215" type="curve" smooth="yes"/>
      <point x="567" y="299"/>
      <point x="518" y="353"/>
      <point x="499" y="353" type="curve" smooth="yes"/>
      <point x="463" y="353"/>
      <point x="492" y="245"/>
      <point x="403" y="245" type="curve" smooth="yes"/>
      <point x="363" y="245"/>
      <point x="332" y="283"/>
      <point x="332" y="363" type="curve" smooth="yes"/>
      <point x="332" y="462"/>
      <point x="356" y="554"/>
      <point x="426" y="554" type="curve" smooth="yes"/>
      <point x="725" y="554" type="line" smooth="yes"/>
      <point x="736" y="554"/>
      <point x="745" y="562"/>
      <point x="745" y="571" type="curve" smooth="yes"/>
      <point x="745" y="580"/>
      <point x="736" y="587"/>
      <point x="725" y="587" type="curve" smooth="yes"/>
      <point x="419" y="587" type="line" smooth="yes"/>
      <point x="337" y="587"/>
      <point x="295" y="480"/>
      <point x="295" y="384" type="curve" smooth="yes"/>
      <point x="295" y="288"/>
      <point x="325" y="208"/>
      <point x="410" y="208" type="curve" smooth="yes"/>
      <point x="496" y="208"/>
      <point x="511" y="300"/>
      <point x="511" y="324" type="curve"/>
      <point x="496" y="319" type="line"/>
      <point x="524" y="284"/>
      <point x="533" y="252"/>
      <point x="533" y="222" type="curve" smooth="yes"/>
      <point x="533" y="154"/>
      <point x="478" y="81"/>
      <point x="367" y="81" type="curve" smooth="yes"/>
      <point x="166" y="81"/>
      <point x="80" y="341"/>
      <point x="63" y="423" type="curve" smooth="yes"/>
      <point x="60" y="439"/>
      <point x="54" y="443"/>
      <point x="46" y="443" type="curve" smooth="yes"/>
      <point x="39" y="443"/>
      <point x="32" y="436"/>
      <point x="32" y="427" type="curve" smooth="yes"/>
      <point x="32" y="353"/>
      <point x="133" y="37"/>
      <point x="373" y="37" type="curve" smooth="yes"/>
    </contour>
    <contour>
      <point x="345" y="264" type="line"/>
      <point x="309" y="332"/>
      <point x="177" y="379"/>
      <point x="135" y="382" type="curve"/>
      <point x="146" y="373" type="line"/>
      <point x="221" y="409"/>
      <point x="339" y="465"/>
      <point x="339" y="520" type="curve" smooth="yes"/>
      <point x="339" y="571"/>
      <point x="290" y="587"/>
      <point x="224" y="587" type="curve" smooth="yes"/>
      <point x="0" y="587" type="line" smooth="yes"/>
      <point x="-11" y="587"/>
      <point x="-20" y="580"/>
      <point x="-20" y="571" type="curve" smooth="yes"/>
      <point x="-20" y="562"/>
      <point x="-11" y="554"/>
      <point x="0" y="554" type="curve" smooth="yes"/>
      <point x="237" y="554" type="line" smooth="yes"/>
      <point x="271" y="554"/>
      <point x="313" y="549"/>
      <point x="313" y="525" type="curve" smooth="yes"/>
      <point x="313" y="487"/>
      <point x="202" y="437"/>
      <point x="144" y="408" type="curve" smooth="yes"/>
      <point x="120" y="396"/>
      <point x="116" y="387"/>
      <point x="116" y="378" type="curve" smooth="yes"/>
      <point x="116" y="366"/>
      <point x="121" y="358"/>
      <point x="152" y="348" type="curve" smooth="yes"/>
      <point x="197" y="333"/>
      <point x="299" y="300"/>
      <point x="326" y="252" type="curve"/>
    </contour>
    <contour>
      <point x="646" y="-12"/>
      <point x="654" y="-1"/>
      <point x="654" y="14" type="curve" smooth="yes"/>
      <point x="654" y="116"/>
      <point x="642" y="221"/>
      <point x="642" y="274" type="curve" smooth="yes"/>
      <point x="642" y="374"/>
      <point x="698" y="419"/>
      <point x="698" y="446" type="curve" smooth="yes"/>
      <point x="698" y="456"/>
      <point x="693" y="467"/>
      <point x="675" y="467" type="curve" smooth="yes"/>
      <point x="649" y="467"/>
      <point x="621" y="418"/>
      <point x="548" y="418" type="curve" smooth="yes"/>
      <point x="457" y="418"/>
      <point x="417" y="494"/>
      <point x="412" y="562" type="curve"/>
      <point x="380" y="547" type="line"/>
      <point x="385" y="470"/>
      <point x="446" y="379"/>
      <point x="546" y="379" type="curve" smooth="yes"/>
      <point x="601" y="379"/>
      <point x="656" y="413"/>
      <point x="674" y="436" type="curve"/>
      <point x="664" y="438" type="line"/>
      <point x="621" y="387"/>
      <point x="603" y="329"/>
      <point x="603" y="261" type="curve" smooth="yes"/>
      <point x="603" y="197"/>
      <point x="615" y="117"/>
      <point x="615" y="14" type="curve" smooth="yes"/>
      <point x="615" y="-1"/>
      <point x="624" y="-12"/>
      <point x="635" y="-12" type="curve" smooth="yes"/>
    </contour>
  </outline>
</glyph>
<glyph name="bBRa" format="1">
  <advance width="485"/>
  <outline>
    <contour>
      <point x="378" y="53" type="line"/>
      <point x="378" y="164"/>
      <point x="197" y="282"/>
      <point x="35" y="312" type="curve"/>
      <point x="37" y="298" type="line"/>
      <point x="290" y="403"/>
      <point x="372" y="446"/>
      <point x="372" y="518" type="curve" smooth="yes"/>
      <point x="372" y="563"/>
      <point x="329" y="587"/>
      <point x="270" y="587" type="curve" smooth="yes"/>
      <point x="0" y="587" type="line" smooth="yes"/>
      <point x="-7" y="587"/>
      <point x="-16" y="582"/>
      <point x="-16" y="571" type="curve" smooth="yes"/>
      <point x="-16" y="562"/>
      <point x="-9" y="554"/>
      <point x="0" y="554" type="curve" smooth="yes"/>
      <point x="270" y="554" type="line" smooth="yes"/>
      <point x="324" y="554"/>
      <point x="345" y="539"/>
      <point x="345" y="520" type="curve" smooth="yes"/>
      <point x="345" y="490"/>
      <point x="298" y="457"/>
      <point x="38" y="343" type="curve" smooth="yes"/>
      <point x="19" y="334"/>
      <point x="10" y="323"/>
      <point x="10" y="310" type="curve" smooth="yes"/>
      <point x="10" y="295"/>
      <point x="21" y="280"/>
      <point x="45" y="273" type="curve" smooth="yes"/>
      <point x="125" y="248"/>
      <point x="345" y="165"/>
      <point x="345" y="48" type="curve"/>
    </contour>
    <contour>
      <point x="373" y="-42" type="line"/>
      <point x="365" y="12"/>
      <point x="318" y="40"/>
      <point x="264" y="40" type="curve" smooth="yes"/>
      <point x="218" y="40"/>
      <point x="155" y="20"/>
      <point x="117" y="20" type="curve" smooth="yes"/>
      <point x="76" y="20"/>
      <point x="46" y="43"/>
      <point x="46" y="86" type="curve" smooth="yes"/>
      <point x="46" y="109"/>
      <point x="55" y="138"/>
      <point x="55" y="149" type="curve" smooth="yes"/>
      <point x="55" y="156"/>
      <point x="52" y="164"/>
      <point x="42" y="164" type="curve" smooth="yes"/>
      <point x="17" y="164"/>
      <point x="9" y="115"/>
      <point x="9" y="89" type="curve" smooth="yes"/>
      <point x="9" y="29"/>
      <point x="49" y="-20"/>
      <point x="115" y="-20" type="curve" smooth="yes"/>
      <point x="159" y="-20"/>
      <point x="232" y="1"/>
      <point x="276" y="1" type="curve" smooth="yes"/>
      <point x="319" y="1"/>
      <point x="345" y="-20"/>
      <point x="345" y="-57" type="curve"/>
    </contour>
    <contour>
      <point x="376" y="-82"/>
      <point x="385" y="-71"/>
      <point x="385" y="-57" type="curve" smooth="yes"/>
      <point x="385" y="470" type="line" smooth="yes"/>
      <point x="385" y="544"/>
      <point x="392" y="554"/>
      <point x="426" y="554" type="curve" smooth="yes"/>
      <point x="485" y="554" type="line" smooth="yes"/>
      <point x="496" y="554"/>
      <point x="505" y="561"/>
      <point x="505" y="571" type="curve" smooth="yes"/>
      <point x="505" y="580"/>
      <point x="496" y="587"/>
      <point x="485" y="587" type="curve" smooth="yes"/>
      <point x="414" y="587" type="line" smooth="yes"/>
      <point x="365" y="587"/>
      <point x="345" y="558"/>
      <point x="345" y="482" type="curve" smooth="yes"/>
      <point x="345" y="-57" type="line" smooth="yes"/>
      <point x="345" y="-71"/>
      <point x="354" y="-82"/>
      <point x="365" y="-82" type="curve" smooth="yes"/>
    </contour>
  </outline>
</glyph>
<glyph name="bBRa_bSignU" format="1">
  <advance width="709"/>
  <outline>
    <contour>
      <point x="612" y="197"/>
      <point x="671" y="247"/>
      <point x="671" y="327" type="curve" smooth="yes"/>
      <point x="671" y="402"/>
      <point x="618" y="461"/>
      <point x="552" y="461" type="curve" smooth="yes"/>
      <point x="510" y="461"/>
      <point x="480" y="438"/>
      <point x="480" y="402" type="curve" smooth="yes"/>
      <point x="480" y="370"/>
      <point x="505" y="340"/>
      <point x="541" y="340" type="curve" smooth="yes"/>
      <point x="574" y="340"/>
      <point x="600" y="365"/>
      <point x="600" y="394" type="curve" smooth="yes"/>
      <point x="600" y="413"/>
      <point x="589" y="447"/>
      <point x="556" y="447" type="curve"/>
      <point x="563" y="432" type="line"/>
      <point x="613" y="424"/>
      <point x="636" y="375"/>
      <point x="636" y="338" type="curve" smooth="yes"/>
      <point x="636" y="289"/>
      <point x="596" y="240"/>
      <point x="534" y="240" type="curve" smooth="yes"/>
      <point x="476" y="240"/>
      <point x="385" y="284"/>
      <point x="385" y="420" type="curve"/>
      <point x="352" y="409" type="line"/>
      <point x="352" y="309"/>
      <point x="420" y="197"/>
      <point x="535" y="197" type="curve" smooth="yes"/>
    </contour>
    <contour>
      <point x="521" y="368"/>
      <point x="510" y="384"/>
      <point x="510" y="398" type="curve" smooth="yes"/>
      <point x="510" y="413"/>
      <point x="522" y="428"/>
      <point x="541" y="428" type="curve" smooth="yes"/>
      <point x="559" y="428"/>
      <point x="571" y="413"/>
      <point x="571" y="398" type="curve" smooth="yes"/>
      <point x="571" y="384"/>
      <point x="560" y="368"/>
      <point x="541" y="368" type="curve" smooth="yes"/>
    </contour>
    <contour>
      <point x="709" y="554" type="line" smooth="yes"/>
      <point x="720" y="554"/>
      <point x="729" y="562"/>
      <point x="729" y="571" type="curve" smooth="yes"/>
      <point x="729" y="580"/>
      <point x="720" y="587"/>
      <point x="709" y="587" type="curve" smooth="yes"/>
      <point x="479" y="587" type="line" smooth="yes"/>
      <point x="468" y="587"/>
      <point x="459" y="580"/>
      <point x="459" y="571" type="curve" smooth="yes"/>
      <point x="459" y="562"/>
      <point x="468" y="554"/>
      <point x="479" y="554" type="curve" smooth="yes"/>
    </contour>
    <contour>
      <point x="378" y="53" type="line"/>
      <point x="378" y="164"/>
      <point x="197" y="282"/>
      <point x="35" y="312" type="curve"/>
      <point x="37" y="298" type="line"/>
      <point x="290" y="403"/>
      <point x="372" y="446"/>
      <point x="372" y="518" type="curve" smooth="yes"/>
      <point x="372" y="563"/>
      <point x="329" y="587"/>
      <point x="270" y="587" type="curve" smooth="yes"/>
      <point x="0" y="587" type="line" smooth="yes"/>
      <point x="-7" y="587"/>
      <point x="-16" y="582"/>
      <point x="-16" y="571" type="curve" smooth="yes"/>
      <point x="-16" y="562"/>
      <point x="-9" y="554"/>
      <point x="0" y="554" type="curve" smooth="yes"/>
      <point x="270" y="554" type="line" smooth="yes"/>
      <point x="324" y="554"/>
      <point x="345" y="539"/>
      <point x="345" y="520" type="curve" smooth="yes"/>
      <point x="345" y="490"/>
      <point x="298" y="457"/>
      <point x="38" y="343" type="curve" smooth="yes"/>
      <point x="19" y="334"/>
      <point x="10" y="323"/>
      <point x="10" y="310" type="curve" smooth="yes"/>
      <point x="10" y="295"/>
      <point x="21" y="280"/>
      <point x="45" y="273" type="curve" smooth="yes"/>
      <point x="125" y="248"/>
      <point x="345" y="165"/>
      <point x="345" y="48" type="curve"/>
    </contour>
    <contour>
      <point x="373" y="-42" type="line"/>
      <point x="365" y="12"/>
      <point x="318" y="40"/>
      <point x="264" y="40" type="curve" smooth="yes"/>
      <point x="218" y="40"/>
      <point x="155" y="20"/>
      <point x="117" y="20" type="curve" smooth="yes"/>
      <point x="76" y="20"/>
      <point x="46" y="43"/>
      <point x="46" y="86" type="curve" smooth="yes"/>
      <point x="46" y="109"/>
      <point x="55" y="138"/>
      <point x="55" y="149" type="curve" smooth="yes"/>
      <point x="55" y="156"/>
      <point x="52" y="164"/>
      <point x="42" y="164" type="curve" smooth="yes"/>
      <point x="17" y="164"/>
      <point x="9" y="115"/>
      <point x="9" y="89" type="curve" smooth="yes"/>
      <point x="9" y="29"/>
      <point x="49" y="-20"/>
      <point x="115" y="-20" type="curve" smooth="yes"/>
      <point x="159" y="-20"/>
      <point x="232" y="1"/>
      <point x="276" y="1" type="curve" smooth="yes"/>
      <point x="319" y="1"/>
      <point x="345" y="-20"/>
      <point x="345" y="-57" type="curve"/>
    </contour>
    <contour>
      <point x="376" y="-82"/>
      <point x="385" y="-71"/>
      <point x="385" y="-57" type="curve" smooth="yes"/>
      <point x="385" y="470" type="line" smooth="yes"/>
      <point x="385" y="544"/>
      <point x="392" y="554"/>
      <point x="426" y="554" type="curve" smooth="yes"/>
      <point x="485" y="554" type="line" smooth="yes"/>
      <point x="496" y="554"/>
      <point x="505" y="561"/>
      <point x="505" y="571" type="curve" smooth="yes"/>
      <point x="505" y="580"/>
      <point x="496" y="587"/>
      <point x="485" y="587" type="curve" smooth="yes"/>
      <point x="414" y="587" type="line" smooth="yes"/>
      <point x="365" y="587"/>
      <point x="345" y="558"/>
      <point x="345" y="482" type="curve" smooth="yes"/>
      <point x="345" y="-57" type="line" smooth="yes"/>
      <point x="345" y="-71"/>
      <point x="354" y="-82"/>
      <point x="365" y="-82" type="curve" smooth="yes"/>
    </contour>
  </outline>
</glyph>
<glyph name="bBRa_bSignUu" format="1">
  <advance width="648"/>
  <outline>
    <contour>
      <point x="648" y="554" type="line" smooth="yes"/>
      <point x="659" y="554"/>
      <point x="668" y="562"/>
      <point x="668" y="571" type="curve" smooth="yes"/>
      <point x="668" y="580"/>
      <point x="659" y="587"/>
      <point x="648" y="587" type="curve" smooth="yes"/>
      <point x="453" y="587" type="line" smooth="yes"/>
      <point x="442" y="587"/>
      <point x="433" y="580"/>
      <point x="433" y="571" type="curve" smooth="yes"/>
      <point x="433" y="562"/>
      <point x="442" y="554"/>
      <point x="453" y="554" type="curve" smooth="yes"/>
    </contour>
    <contour>
      <point x="561" y="-12"/>
      <point x="568" y="-1"/>
      <point x="568" y="14" type="curve" smooth="yes"/>
      <point x="568" y="284" type="line" smooth="yes"/>
      <point x="568" y="364"/>
      <point x="591" y="416"/>
      <point x="591" y="439" type="curve" smooth="yes"/>
      <point x="591" y="455"/>
      <point x="579" y="469"/>
      <point x="556" y="469" type="curve" smooth="yes"/>
      <point x="525" y="469"/>
      <point x="381" y="372"/>
      <point x="360" y="357" type="curve"/>
      <point x="364" y="308" type="line"/>
      <point x="397" y="332"/>
      <point x="531" y="426"/>
      <point x="563" y="433" type="curve"/>
      <point x="558" y="459" type="line"/>
      <point x="536" y="400"/>
      <point x="529" y="330"/>
      <point x="529" y="279" type="curve" smooth="yes"/>
      <point x="529" y="14" type="line" smooth="yes"/>
      <point x="529" y="-1"/>
      <point x="538" y="-12"/>
      <point x="549" y="-12" type="curve" smooth="yes"/>
    </contour>
    <contour>
      <point x="378" y="53" type="line"/>
      <point x="378" y="164"/>
      <point x="197" y="282"/>
      <point x="35" y="312" type="curve"/>
      <point x="37" y="298" type="line"/>
      <point x="290" y="403"/>
      <point x="372" y="446"/>
      <point x="372" y="518" type="curve" smooth="yes"/>
      <point x="372" y="563"/>
      <point x="329" y="587"/>
      <point x="270" y="587" type="curve" smooth="yes"/>
      <point x="0" y="587" type="line" smooth="yes"/>
      <point x="-7" y="587"/>
      <point x="-16" y="582"/>
      <point x="-16" y="571" type="curve" smooth="yes"/>
      <point x="-16" y="562"/>
      <point x="-9" y="554"/>
      <point x="0" y="554" type="curve" smooth="yes"/>
      <point x="270" y="554" type="line" smooth="yes"/>
      <point x="324" y="554"/>
      <point x="345" y="539"/>
      <point x="345" y="520" type="curve" smooth="yes"/>
      <point x="345" y="490"/>
      <point x="298" y="457"/>
      <point x="38" y="343" type="curve" smooth="yes"/>
      <point x="19" y="334"/>
      <point x="10" y="323"/>
      <point x="10" y="310" type="curve" smooth="yes"/>
      <point x="10" y="295"/>
      <point x="21" y="280"/>
      <point x="45" y="273" type="curve" smooth="yes"/>
      <point x="125" y="248"/>
      <point x="345" y="165"/>
      <point x="345" y="48" type="curve"/>
    </contour>
    <contour>
      <point x="373" y="-42" type="line"/>
      <point x="365" y="12"/>
      <point x="318" y="40"/>
      <point x="264" y="40" type="curve" smooth="yes"/>
      <point x="218" y="40"/>
      <point x="155" y="20"/>
      <point x="117" y="20" type="curve" smooth="yes"/>
      <point x="76" y="20"/>
      <point x="46" y="43"/>
      <point x="46" y="86" type="curve" smooth="yes"/>
      <point x="46" y="109"/>
      <point x="55" y="138"/>
      <point x="55" y="149" type="curve" smooth="yes"/>
      <point x="55" y="156"/>
      <point x="52" y="164"/>
      <point x="42" y="164" type="curve" smooth="yes"/>
      <point x="17" y="164"/>
      <point x="9" y="115"/>
      <point x="9" y="89" type="curve" smooth="yes"/>
      <point x="9" y="29"/>
      <point x="49" y="-20"/>
      <point x="115" y="-20" type="curve" smooth="yes"/>
      <point x="159" y="-20"/>
      <point x="232" y="1"/>
      <point x="276" y="1" type="curve" smooth="yes"/>
      <point x="319" y="1"/>
      <point x="345" y="-20"/>
      <point x="345" y="-57" type="curve"/>
    </contour>
    <contour>
      <point x="376" y="-82"/>
      <point x="385" y="-71"/>
      <point x="385" y="-57" type="curve" smooth="yes"/>
      <point x="385" y="470" type="line" smooth="yes"/>
      <point x="385" y="544"/>
      <point x="392" y="554"/>
      <point x="426" y="554" type="curve" smooth="yes"/>
      <point x="485" y="554" type="line" smooth="yes"/>
      <point x="496" y="554"/>
      <point x="505" y="561"/>
      <point x="505" y="571" type="curve" smooth="yes"/>
      <point x="505" y="580"/>
      <point x="496" y="587"/>
      <point x="485" y="587" type="curve" smooth="yes"/>
      <point x="414" y="587" type="line" smooth="yes"/>
      <point x="365" y="587"/>
      <point x="345" y="558"/>
      <point x="345" y="482" type="curve" smooth="yes"/>
      <point x="345" y="-57" type="line" smooth="yes"/>
      <point x="345" y="-71"/>
      <point x="354" y="-82"/>
      <point x="365" y="-82" type="curve" smooth="yes"/>
    </contour>
  </outline>
</glyph>
<glyph name="bBhLa" format="1">
  <advance width="558"/>
  <outline>
    <contour>
      <point x="451" y="-12"/>
      <point x="459" y="-1"/>
      <point x="459" y="13" type="curve" smooth="yes"/>
      <point x="459" y="278" type="line" smooth="yes"/>
      <point x="459" y="367"/>
      <point x="421" y="415"/>
      <point x="390" y="415" type="curve" smooth="yes"/>
      <point x="372" y="415"/>
      <point x="365" y="402"/>
      <point x="346" y="375" type="curve" smooth="yes"/>
      <point x="324" y="344"/>
      <point x="279" y="295"/>
      <point x="207" y="295" type="curve" smooth="yes"/>
      <point x="171" y="295"/>
      <point x="145" y="307"/>
      <point x="121" y="333" type="curve"/>
      <point x="104" y="331" type="line"/>
      <point x="120" y="322"/>
      <point x="138" y="315"/>
      <point x="150" y="315" type="curve" smooth="yes"/>
      <point x="188" y="315"/>
      <point x="225" y="343"/>
      <point x="225" y="383" type="curve" smooth="yes"/>
      <point x="225" y="426"/>
      <point x="194" y="461"/>
      <point x="148" y="461" type="curve" smooth="yes"/>
      <point x="110" y="461"/>
      <point x="70" y="428"/>
      <point x="70" y="380" type="curve" smooth="yes"/>
      <point x="70" y="322"/>
      <point x="130" y="258"/>
      <point x="210" y="258" type="curve" smooth="yes"/>
      <point x="328" y="258"/>
      <point x="403" y="372"/>
      <point x="403" y="393" type="curve"/>
      <point x="369" y="376" type="line"/>
      <point x="386" y="376"/>
      <point x="418" y="368"/>
      <point x="418" y="284" type="curve" smooth="yes"/>
      <point x="418" y="13" type="line" smooth="yes"/>
      <point x="418" y="-1"/>
      <point x="428" y="-12"/>
      <point x="439" y="-12" type="curve" smooth="yes"/>
    </contour>
    <contour>
      <point x="127" y="343"/>
      <point x="106" y="357"/>
      <point x="106" y="383" type="curve" smooth="yes"/>
      <point x="106" y="410"/>
      <point x="127" y="423"/>
      <point x="146" y="423" type="curve" smooth="yes"/>
      <point x="166" y="423"/>
      <point x="186" y="410"/>
      <point x="186" y="383" type="curve" smooth="yes"/>
      <point x="186" y="357"/>
      <point x="166" y="343"/>
      <point x="146" y="343" type="curve" smooth="yes"/>
    </contour>
    <contour>
      <point x="558" y="554" type="line" smooth="yes"/>
      <point x="569" y="554"/>
      <point x="578" y="562"/>
      <point x="578" y="571" type="curve" smooth="yes"/>
      <point x="578" y="580"/>
      <point x="569" y="587"/>
      <point x="558" y="587" type="curve" smooth="yes"/>
      <point x="0" y="587" type="line" smooth="yes"/>
      <point x="-11" y="587"/>
      <point x="-20" y="580"/>
      <point x="-20" y="571" type="curve" smooth="yes"/>
      <point x="-20" y="562"/>
      <point x="-11" y="554"/>
      <point x="0" y="554" type="curve" smooth="yes"/>
    </contour>
    <contour>
      <point x="230" y="3"/>
      <point x="249" y="27"/>
      <point x="249" y="55" type="curve" smooth="yes"/>
      <point x="249" y="75"/>
      <point x="237" y="107"/>
      <point x="198" y="107" type="curve" smooth="yes"/>
      <point x="168" y="107"/>
      <point x="145" y="85"/>
      <point x="145" y="55" type="curve" smooth="yes"/>
      <point x="145" y="44"/>
      <point x="148" y="32"/>
      <point x="155" y="20" type="curve"/>
      <point x="168" y="23" type="line"/>
      <point x="145" y="47"/>
      <point x="135" y="72"/>
      <point x="135" y="93" type="curve" smooth="yes"/>
      <point x="135" y="134"/>
      <point x="171" y="164"/>
      <point x="216" y="164" type="curve" smooth="yes"/>
      <point x="262" y="164"/>
      <point x="318" y="130"/>
      <point x="318" y="94" type="curve" smooth="yes"/>
      <point x="318" y="84"/>
      <point x="312" y="75"/>
      <point x="305" y="75" type="curve" smooth="yes"/>
      <point x="299" y="75"/>
      <point x="293" y="81"/>
      <point x="293" y="93" type="curve" smooth="yes"/>
      <point x="293" y="121"/>
      <point x="319" y="147"/>
      <point x="354" y="147" type="curve" smooth="yes"/>
      <point x="401" y="147"/>
      <point x="421" y="107"/>
      <point x="418" y="48" type="curve"/>
      <point x="434" y="89" type="line"/>
      <point x="439" y="124"/>
      <point x="410" y="175"/>
      <point x="352" y="175" type="curve" smooth="yes"/>
      <point x="304" y="175"/>
      <point x="265" y="141"/>
      <point x="265" y="96" type="curve" smooth="yes"/>
      <point x="265" y="66"/>
      <point x="282" y="46"/>
      <point x="307" y="46" type="curve" smooth="yes"/>
      <point x="331" y="46"/>
      <point x="345" y="66"/>
      <point x="345" y="91" type="curve" smooth="yes"/>
      <point x="345" y="153"/>
      <point x="277" y="199"/>
      <point x="215" y="199" type="curve" smooth="yes"/>
      <point x="148" y="199"/>
      <point x="99" y="155"/>
      <point x="99" y="98" type="curve" smooth="yes"/>
      <point x="99" y="51"/>
      <point x="136" y="3"/>
      <point x="191" y="3" type="curve" smooth="yes"/>
    </contour>
    <contour>
      <point x="182" y="28"/>
      <point x="171" y="38"/>
      <point x="171" y="53" type="curve" smooth="yes"/>
      <point x="171" y="68"/>
      <point x="182" y="78"/>
      <point x="196" y="78" type="curve" smooth="yes"/>
      <point x="210" y="78"/>
      <point x="221" y="68"/>
      <point x="221" y="53" type="curve" smooth="yes"/>
      <point x="221" y="38"/>
      <point x="210" y="28"/>
      <point x="196" y="28" type="curve" smooth="yes"/>
    </contour>
  </outline>
</glyph>
